<svg width="300" height="300" viewBox="0 0 300 300" fill="none" xmlns="http://www.w3.org/2000/svg">
<circle cx="150" cy="89" r="44.5" fill="#F2994A" fill-opacity="0.1"/>
<circle cx="150" cy="89" r="36.5" fill="#F2994A"/>
<path d="M140.739 75.0566L139.243 76.5505L141.469 78.7754L142.963 77.2815L140.738 75.0566H140.739ZM160.262 75.0566L158.036 77.2815L159.531 78.7754L161.756 76.5516L160.261 75.0566H160.262ZM150.5 75.7196C150.149 75.7239 149.795 75.7441 149.438 75.7876C149.427 75.7876 149.416 75.7855 149.406 75.7876C145.096 76.2817 141.666 79.7635 141.07 84.0539C140.594 87.507 142.018 90.6382 144.391 92.6548C145.361 93.4831 146.018 94.6197 146.25 95.8742V102.249H148.672C149.042 102.884 149.717 103.312 150.5 103.312C151.283 103.312 151.958 102.884 152.327 102.249H154.75V97.9992H154.85V96.737C154.85 95.1793 155.66 93.609 156.975 92.3881C158.734 90.6265 160.062 88.1243 160.062 85.2503C160.062 80.0015 155.742 75.6708 150.5 75.7196ZM150.5 77.8446C154.607 77.7873 157.938 81.149 157.938 85.2503C157.938 87.4751 156.907 89.4344 155.48 90.8603L155.514 90.8943C154.096 92.2019 153.179 93.9636 152.921 95.8753H148.274C148.04 94.0541 147.259 92.2915 145.784 91.0271C143.906 89.4333 142.787 87.0321 143.161 84.3206C143.626 80.9737 146.341 78.2824 149.669 77.9137C149.944 77.8754 150.221 77.8527 150.498 77.8457L150.5 77.8446ZM135.625 85.2503V87.3753H138.812V85.2503H135.625ZM162.188 85.2503V87.3753H165.375V85.2503H162.188ZM141.469 93.8501L139.244 96.074L140.739 97.5689L142.962 95.344L141.469 93.8501ZM159.531 93.8501L158.037 95.344L160.261 97.5689L161.756 96.074L159.531 93.8501ZM148.375 98.0003H152.625V100.125H148.375V98.0003Z" fill="white"/>
<path d="M90.9406 171.5V154.7H94.0126V171.5H90.9406ZM97.1967 171.5V159.596H99.9087L100.149 161.612C100.517 160.908 101.045 160.348 101.733 159.932C102.437 159.516 103.261 159.308 104.205 159.308C105.677 159.308 106.821 159.772 107.637 160.7C108.453 161.628 108.861 162.988 108.861 164.78V171.5H105.789V165.068C105.789 164.044 105.581 163.26 105.165 162.716C104.749 162.172 104.101 161.9 103.221 161.9C102.357 161.9 101.645 162.204 101.085 162.812C100.541 163.42 100.269 164.268 100.269 165.356V171.5H97.1967ZM111.798 171.5V159.596H114.51L114.75 161.612C115.118 160.908 115.646 160.348 116.334 159.932C117.038 159.516 117.862 159.308 118.806 159.308C120.278 159.308 121.422 159.772 122.238 160.7C123.054 161.628 123.462 162.988 123.462 164.78V171.5H120.39V165.068C120.39 164.044 120.182 163.26 119.766 162.716C119.35 162.172 118.702 161.9 117.822 161.9C116.958 161.9 116.246 162.204 115.686 162.812C115.142 163.42 114.87 164.268 114.87 165.356V171.5H111.798ZM132.112 171.788C130.96 171.788 129.92 171.524 128.992 170.996C128.08 170.468 127.352 169.74 126.808 168.812C126.28 167.868 126.016 166.78 126.016 165.548C126.016 164.316 126.288 163.236 126.832 162.308C127.376 161.364 128.104 160.628 129.016 160.1C129.944 159.572 130.984 159.308 132.136 159.308C133.272 159.308 134.296 159.572 135.208 160.1C136.136 160.628 136.864 161.364 137.392 162.308C137.936 163.236 138.208 164.316 138.208 165.548C138.208 166.78 137.936 167.868 137.392 168.812C136.864 169.74 136.136 170.468 135.208 170.996C134.28 171.524 133.248 171.788 132.112 171.788ZM132.112 169.124C132.912 169.124 133.608 168.828 134.2 168.236C134.792 167.628 135.088 166.732 135.088 165.548C135.088 164.364 134.792 163.476 134.2 162.884C133.608 162.276 132.92 161.972 132.136 161.972C131.32 161.972 130.616 162.276 130.024 162.884C129.448 163.476 129.16 164.364 129.16 165.548C129.16 166.732 129.448 167.628 130.024 168.236C130.616 168.828 131.312 169.124 132.112 169.124ZM143.585 171.5L139.217 159.596H142.433L145.457 168.596L148.481 159.596H151.697L147.305 171.5H143.585ZM157.012 171.788C155.988 171.788 155.148 171.628 154.492 171.308C153.836 170.972 153.348 170.532 153.028 169.988C152.708 169.444 152.548 168.844 152.548 168.188C152.548 167.084 152.98 166.188 153.844 165.5C154.708 164.812 156.004 164.468 157.732 164.468H160.756V164.18C160.756 163.364 160.524 162.764 160.06 162.38C159.596 161.996 159.02 161.804 158.332 161.804C157.708 161.804 157.164 161.956 156.7 162.26C156.236 162.548 155.948 162.98 155.836 163.556H152.836C152.916 162.692 153.204 161.94 153.7 161.3C154.212 160.66 154.868 160.172 155.668 159.836C156.468 159.484 157.364 159.308 158.356 159.308C160.052 159.308 161.388 159.732 162.364 160.58C163.34 161.428 163.828 162.628 163.828 164.18V171.5H161.212L160.924 169.58C160.572 170.22 160.076 170.748 159.436 171.164C158.812 171.58 158.004 171.788 157.012 171.788ZM157.708 169.388C158.588 169.388 159.268 169.1 159.748 168.524C160.244 167.948 160.556 167.236 160.684 166.388H158.068C157.252 166.388 156.668 166.54 156.316 166.844C155.964 167.132 155.788 167.492 155.788 167.924C155.788 168.388 155.964 168.748 156.316 169.004C156.668 169.26 157.132 169.388 157.708 169.388ZM171.899 171.5C170.651 171.5 169.651 171.196 168.899 170.588C168.147 169.98 167.771 168.9 167.771 167.348V162.164H165.731V159.596H167.771L168.131 156.404H170.843V159.596H174.059V162.164H170.843V167.372C170.843 167.948 170.963 168.348 171.203 168.572C171.459 168.78 171.891 168.884 172.499 168.884H173.987V171.5H171.899ZM178.353 157.748C177.793 157.748 177.329 157.58 176.961 157.244C176.609 156.908 176.433 156.484 176.433 155.972C176.433 155.46 176.609 155.044 176.961 154.724C177.329 154.388 177.793 154.22 178.353 154.22C178.913 154.22 179.369 154.388 179.721 154.724C180.089 155.044 180.273 155.46 180.273 155.972C180.273 156.484 180.089 156.908 179.721 157.244C179.369 157.58 178.913 157.748 178.353 157.748ZM176.817 171.5V159.596H179.889V171.5H176.817ZM188.807 171.788C187.655 171.788 186.615 171.524 185.687 170.996C184.775 170.468 184.047 169.74 183.503 168.812C182.975 167.868 182.711 166.78 182.711 165.548C182.711 164.316 182.983 163.236 183.527 162.308C184.071 161.364 184.799 160.628 185.711 160.1C186.639 159.572 187.679 159.308 188.831 159.308C189.967 159.308 190.991 159.572 191.903 160.1C192.831 160.628 193.559 161.364 194.087 162.308C194.631 163.236 194.903 164.316 194.903 165.548C194.903 166.78 194.631 167.868 194.087 168.812C193.559 169.74 192.831 170.468 191.903 170.996C190.975 171.524 189.943 171.788 188.807 171.788ZM188.807 169.124C189.607 169.124 190.303 168.828 190.895 168.236C191.487 167.628 191.783 166.732 191.783 165.548C191.783 164.364 191.487 163.476 190.895 162.884C190.303 162.276 189.615 161.972 188.831 161.972C188.015 161.972 187.311 162.276 186.719 162.884C186.143 163.476 185.855 164.364 185.855 165.548C185.855 166.732 186.143 167.628 186.719 168.236C187.311 168.828 188.007 169.124 188.807 169.124ZM197.65 171.5V159.596H200.362L200.602 161.612C200.97 160.908 201.498 160.348 202.186 159.932C202.89 159.516 203.714 159.308 204.658 159.308C206.13 159.308 207.274 159.772 208.09 160.7C208.906 161.628 209.314 162.988 209.314 164.78V171.5H206.242V165.068C206.242 164.044 206.034 163.26 205.618 162.716C205.202 162.172 204.554 161.9 203.674 161.9C202.81 161.9 202.098 162.204 201.538 162.812C200.994 163.42 200.722 164.268 200.722 165.356V171.5H197.65Z" fill="#3D3D3D"/>
<path d="M36.3036 208.516L33.2316 197.3H34.6716L37.0876 206.916L39.8396 197.3H41.3276L43.9996 206.916L46.4476 197.3H47.8876L44.7516 208.5H43.2156L40.5436 199.252L37.8076 208.5L36.3036 208.516ZM52.2239 208.692C51.4665 208.692 50.7945 208.521 50.2079 208.18C49.6212 207.828 49.1572 207.343 48.8159 206.724C48.4852 206.105 48.3199 205.375 48.3199 204.532C48.3199 203.7 48.4852 202.975 48.8159 202.356C49.1465 201.727 49.6052 201.241 50.1919 200.9C50.7892 200.548 51.4772 200.372 52.2559 200.372C53.0239 200.372 53.6852 200.548 54.2399 200.9C54.8052 201.241 55.2372 201.695 55.5359 202.26C55.8345 202.825 55.9839 203.433 55.9839 204.084C55.9839 204.201 55.9785 204.319 55.9679 204.436C55.9679 204.553 55.9679 204.687 55.9679 204.836H49.6479C49.6799 205.444 49.8185 205.951 50.0639 206.356C50.3199 206.751 50.6345 207.049 51.0079 207.252C51.3919 207.455 51.7972 207.556 52.2239 207.556C52.7785 207.556 53.2425 207.428 53.6159 207.172C53.9892 206.916 54.2612 206.569 54.4319 206.132H55.7599C55.5465 206.868 55.1359 207.481 54.5279 207.972C53.9305 208.452 53.1625 208.692 52.2239 208.692ZM52.2239 201.508C51.5839 201.508 51.0132 201.705 50.5119 202.1C50.0212 202.484 49.7385 203.049 49.6639 203.796H54.6559C54.6239 203.081 54.3785 202.521 53.9199 202.116C53.4612 201.711 52.8959 201.508 52.2239 201.508ZM64.7996 208.692C64.1383 208.692 63.589 208.58 63.1516 208.356C62.7143 208.132 62.389 207.833 62.1756 207.46C61.9623 207.087 61.8556 206.681 61.8556 206.244C61.8556 205.433 62.165 204.809 62.7836 204.372C63.4023 203.935 64.245 203.716 65.3116 203.716H67.4556V203.62C67.4556 202.927 67.2743 202.404 66.9116 202.052C66.549 201.689 66.0636 201.508 65.4556 201.508C64.933 201.508 64.4796 201.641 64.0956 201.908C63.7223 202.164 63.4876 202.543 63.3916 203.044H62.0156C62.069 202.468 62.261 201.983 62.5916 201.588C62.933 201.193 63.3543 200.895 63.8556 200.692C64.357 200.479 64.8903 200.372 65.4556 200.372C66.565 200.372 67.397 200.671 67.9516 201.268C68.517 201.855 68.7996 202.639 68.7996 203.62V208.5H67.5996L67.5196 207.076C67.2956 207.524 66.965 207.908 66.5276 208.228C66.101 208.537 65.525 208.692 64.7996 208.692ZM65.0076 207.556C65.5196 207.556 65.957 207.423 66.3196 207.156C66.693 206.889 66.9756 206.543 67.1676 206.116C67.3596 205.689 67.4556 205.241 67.4556 204.772V204.756H65.4236C64.6343 204.756 64.0743 204.895 63.7436 205.172C63.4236 205.439 63.2636 205.775 63.2636 206.18C63.2636 206.596 63.413 206.932 63.7116 207.188C64.021 207.433 64.453 207.556 65.0076 207.556ZM70.8959 208.5V200.564H72.1119L72.2239 202.084C72.4692 201.561 72.8425 201.145 73.3439 200.836C73.8452 200.527 74.4639 200.372 75.1999 200.372V201.78H74.8319C74.3625 201.78 73.9305 201.865 73.5359 202.036C73.1412 202.196 72.8265 202.473 72.5919 202.868C72.3572 203.263 72.2399 203.807 72.2399 204.5V208.5H70.8959ZM80.0595 208.692C79.3022 208.692 78.6302 208.521 78.0435 208.18C77.4568 207.828 76.9928 207.343 76.6515 206.724C76.3208 206.105 76.1555 205.375 76.1555 204.532C76.1555 203.7 76.3208 202.975 76.6515 202.356C76.9822 201.727 77.4408 201.241 78.0275 200.9C78.6248 200.548 79.3128 200.372 80.0915 200.372C80.8595 200.372 81.5208 200.548 82.0755 200.9C82.6408 201.241 83.0728 201.695 83.3715 202.26C83.6702 202.825 83.8195 203.433 83.8195 204.084C83.8195 204.201 83.8142 204.319 83.8035 204.436C83.8035 204.553 83.8035 204.687 83.8035 204.836H77.4835C77.5155 205.444 77.6542 205.951 77.8995 206.356C78.1555 206.751 78.4702 207.049 78.8435 207.252C79.2275 207.455 79.6328 207.556 80.0595 207.556C80.6142 207.556 81.0782 207.428 81.4515 207.172C81.8248 206.916 82.0968 206.569 82.2675 206.132H83.5955C83.3822 206.868 82.9715 207.481 82.3635 207.972C81.7662 208.452 80.9982 208.692 80.0595 208.692ZM80.0595 201.508C79.4195 201.508 78.8488 201.705 78.3475 202.1C77.8568 202.484 77.5742 203.049 77.4995 203.796H82.4915C82.4595 203.081 82.2142 202.521 81.7555 202.116C81.2968 201.711 80.7315 201.508 80.0595 201.508ZM90.8113 198.804C90.5446 198.804 90.3206 198.719 90.1393 198.548C89.9686 198.367 89.8833 198.143 89.8833 197.876C89.8833 197.62 89.9686 197.407 90.1393 197.236C90.3206 197.065 90.5446 196.98 90.8113 196.98C91.0673 196.98 91.2859 197.065 91.4673 197.236C91.6486 197.407 91.7393 197.62 91.7393 197.876C91.7393 198.143 91.6486 198.367 91.4673 198.548C91.2859 198.719 91.0673 198.804 90.8113 198.804ZM90.1393 208.5V200.564H91.4833V208.5H90.1393ZM93.9034 208.5V200.564H95.1194L95.1994 201.988C95.4554 201.487 95.8234 201.092 96.3034 200.804C96.7834 200.516 97.3274 200.372 97.9354 200.372C98.874 200.372 99.6207 200.66 100.175 201.236C100.741 201.801 101.023 202.676 101.023 203.86V208.5H99.6794V204.004C99.6794 202.351 98.9967 201.524 97.6314 201.524C96.9487 201.524 96.378 201.775 95.9194 202.276C95.4714 202.767 95.2474 203.471 95.2474 204.388V208.5H93.9034ZM103.14 208.5V200.564H104.356L104.436 201.988C104.692 201.487 105.06 201.092 105.54 200.804C106.02 200.516 106.564 200.372 107.172 200.372C108.11 200.372 108.857 200.66 109.412 201.236C109.977 201.801 110.26 202.676 110.26 203.86V208.5H108.916V204.004C108.916 202.351 108.233 201.524 106.868 201.524C106.185 201.524 105.614 201.775 105.156 202.276C104.708 202.767 104.484 203.471 104.484 204.388V208.5H103.14ZM115.992 208.692C115.245 208.692 114.573 208.521 113.976 208.18C113.379 207.839 112.904 207.359 112.552 206.74C112.211 206.111 112.04 205.375 112.04 204.532C112.04 203.689 112.216 202.959 112.568 202.34C112.92 201.711 113.395 201.225 113.992 200.884C114.6 200.543 115.277 200.372 116.024 200.372C116.771 200.372 117.443 200.543 118.04 200.884C118.637 201.225 119.107 201.711 119.448 202.34C119.8 202.959 119.976 203.689 119.976 204.532C119.976 205.375 119.8 206.111 119.448 206.74C119.096 207.359 118.616 207.839 118.008 208.18C117.411 208.521 116.739 208.692 115.992 208.692ZM115.992 207.54C116.451 207.54 116.877 207.428 117.272 207.204C117.667 206.98 117.987 206.644 118.232 206.196C118.477 205.748 118.6 205.193 118.6 204.532C118.6 203.871 118.477 203.316 118.232 202.868C117.997 202.42 117.683 202.084 117.288 201.86C116.893 201.636 116.472 201.524 116.024 201.524C115.565 201.524 115.139 201.636 114.744 201.86C114.349 202.084 114.029 202.42 113.784 202.868C113.539 203.316 113.416 203.871 113.416 204.532C113.416 205.193 113.539 205.748 113.784 206.196C114.029 206.644 114.344 206.98 114.728 207.204C115.123 207.428 115.544 207.54 115.992 207.54ZM123.806 208.5L120.798 200.564H122.206L124.59 207.204L126.99 200.564H128.366L125.358 208.5H123.806ZM132.176 208.692C131.515 208.692 130.965 208.58 130.528 208.356C130.091 208.132 129.765 207.833 129.552 207.46C129.339 207.087 129.232 206.681 129.232 206.244C129.232 205.433 129.541 204.809 130.16 204.372C130.779 203.935 131.621 203.716 132.688 203.716H134.832V203.62C134.832 202.927 134.651 202.404 134.288 202.052C133.925 201.689 133.44 201.508 132.832 201.508C132.309 201.508 131.856 201.641 131.472 201.908C131.099 202.164 130.864 202.543 130.768 203.044H129.392C129.445 202.468 129.637 201.983 129.968 201.588C130.309 201.193 130.731 200.895 131.232 200.692C131.733 200.479 132.267 200.372 132.832 200.372C133.941 200.372 134.773 200.671 135.328 201.268C135.893 201.855 136.176 202.639 136.176 203.62V208.5H134.976L134.896 207.076C134.672 207.524 134.341 207.908 133.904 208.228C133.477 208.537 132.901 208.692 132.176 208.692ZM132.384 207.556C132.896 207.556 133.333 207.423 133.696 207.156C134.069 206.889 134.352 206.543 134.544 206.116C134.736 205.689 134.832 205.241 134.832 204.772V204.756H132.8C132.011 204.756 131.451 204.895 131.12 205.172C130.8 205.439 130.64 205.775 130.64 206.18C130.64 206.596 130.789 206.932 131.088 207.188C131.397 207.433 131.829 207.556 132.384 207.556ZM141.189 208.5C140.464 208.5 139.893 208.324 139.477 207.972C139.061 207.62 138.853 206.985 138.853 206.068V201.7H137.477V200.564H138.853L139.029 198.66H140.197V200.564H142.533V201.7H140.197V206.068C140.197 206.569 140.299 206.911 140.501 207.092C140.704 207.263 141.061 207.348 141.573 207.348H142.405V208.5H141.189ZM147.718 208.692C146.971 208.692 146.299 208.521 145.702 208.18C145.105 207.839 144.63 207.359 144.278 206.74C143.937 206.111 143.766 205.375 143.766 204.532C143.766 203.689 143.942 202.959 144.294 202.34C144.646 201.711 145.121 201.225 145.718 200.884C146.326 200.543 147.003 200.372 147.75 200.372C148.497 200.372 149.169 200.543 149.766 200.884C150.363 201.225 150.833 201.711 151.174 202.34C151.526 202.959 151.702 203.689 151.702 204.532C151.702 205.375 151.526 206.111 151.174 206.74C150.822 207.359 150.342 207.839 149.734 208.18C149.137 208.521 148.465 208.692 147.718 208.692ZM147.718 207.54C148.177 207.54 148.603 207.428 148.998 207.204C149.393 206.98 149.713 206.644 149.958 206.196C150.203 205.748 150.326 205.193 150.326 204.532C150.326 203.871 150.203 203.316 149.958 202.868C149.723 202.42 149.409 202.084 149.014 201.86C148.619 201.636 148.198 201.524 147.75 201.524C147.291 201.524 146.865 201.636 146.47 201.86C146.075 202.084 145.755 202.42 145.51 202.868C145.265 203.316 145.142 203.871 145.142 204.532C145.142 205.193 145.265 205.748 145.51 206.196C145.755 206.644 146.07 206.98 146.454 207.204C146.849 207.428 147.27 207.54 147.718 207.54ZM153.651 208.5V200.564H154.867L154.979 202.084C155.224 201.561 155.598 201.145 156.099 200.836C156.6 200.527 157.219 200.372 157.955 200.372V201.78H157.587C157.118 201.78 156.686 201.865 156.291 202.036C155.896 202.196 155.582 202.473 155.347 202.868C155.112 203.263 154.995 203.807 154.995 204.5V208.5H153.651ZM162.583 208.692C161.634 208.692 160.845 208.452 160.215 207.972C159.586 207.492 159.218 206.841 159.111 206.02H160.487C160.573 206.436 160.791 206.799 161.143 207.108C161.506 207.407 161.991 207.556 162.599 207.556C163.165 207.556 163.581 207.439 163.847 207.204C164.114 206.959 164.247 206.671 164.247 206.34C164.247 205.86 164.071 205.54 163.719 205.38C163.378 205.22 162.893 205.076 162.263 204.948C161.837 204.863 161.41 204.74 160.983 204.58C160.557 204.42 160.199 204.196 159.911 203.908C159.623 203.609 159.479 203.22 159.479 202.74C159.479 202.047 159.735 201.481 160.247 201.044C160.77 200.596 161.474 200.372 162.359 200.372C163.202 200.372 163.89 200.585 164.423 201.012C164.967 201.428 165.282 202.025 165.367 202.804H164.039C163.986 202.399 163.81 202.084 163.511 201.86C163.223 201.625 162.834 201.508 162.343 201.508C161.863 201.508 161.49 201.609 161.223 201.812C160.967 202.015 160.839 202.281 160.839 202.612C160.839 202.932 161.005 203.183 161.335 203.364C161.677 203.545 162.135 203.7 162.711 203.828C163.202 203.935 163.666 204.068 164.103 204.228C164.551 204.377 164.914 204.607 165.191 204.916C165.479 205.215 165.623 205.652 165.623 206.228C165.634 206.943 165.362 207.535 164.807 208.004C164.263 208.463 163.522 208.692 162.583 208.692ZM175.538 208.692C174.748 208.692 174.055 208.511 173.458 208.148C172.871 207.785 172.412 207.289 172.082 206.66C171.762 206.031 171.602 205.316 171.602 204.516C171.602 203.716 171.767 203.007 172.098 202.388C172.428 201.759 172.887 201.268 173.474 200.916C174.06 200.553 174.754 200.372 175.554 200.372C176.204 200.372 176.78 200.505 177.282 200.772C177.783 201.039 178.172 201.412 178.45 201.892V196.98H179.794V208.5H178.578L178.45 207.188C178.194 207.572 177.826 207.919 177.346 208.228C176.866 208.537 176.263 208.692 175.538 208.692ZM175.682 207.524C176.215 207.524 176.684 207.401 177.09 207.156C177.506 206.9 177.826 206.548 178.05 206.1C178.284 205.652 178.402 205.129 178.402 204.532C178.402 203.935 178.284 203.412 178.05 202.964C177.826 202.516 177.506 202.169 177.09 201.924C176.684 201.668 176.215 201.54 175.682 201.54C175.159 201.54 174.69 201.668 174.274 201.924C173.868 202.169 173.548 202.516 173.314 202.964C173.09 203.412 172.978 203.935 172.978 204.532C172.978 205.129 173.09 205.652 173.314 206.1C173.548 206.548 173.868 206.9 174.274 207.156C174.69 207.401 175.159 207.524 175.682 207.524ZM185.633 208.692C184.875 208.692 184.203 208.521 183.617 208.18C183.03 207.828 182.566 207.343 182.225 206.724C181.894 206.105 181.729 205.375 181.729 204.532C181.729 203.7 181.894 202.975 182.225 202.356C182.555 201.727 183.014 201.241 183.601 200.9C184.198 200.548 184.886 200.372 185.665 200.372C186.433 200.372 187.094 200.548 187.649 200.9C188.214 201.241 188.646 201.695 188.945 202.26C189.243 202.825 189.393 203.433 189.393 204.084C189.393 204.201 189.387 204.319 189.377 204.436C189.377 204.553 189.377 204.687 189.377 204.836H183.057C183.089 205.444 183.227 205.951 183.473 206.356C183.729 206.751 184.043 207.049 184.417 207.252C184.801 207.455 185.206 207.556 185.633 207.556C186.187 207.556 186.651 207.428 187.025 207.172C187.398 206.916 187.67 206.569 187.841 206.132H189.169C188.955 206.868 188.545 207.481 187.937 207.972C187.339 208.452 186.571 208.692 185.633 208.692ZM185.633 201.508C184.993 201.508 184.422 201.705 183.921 202.1C183.43 202.484 183.147 203.049 183.073 203.796H188.065C188.033 203.081 187.787 202.521 187.329 202.116C186.87 201.711 186.305 201.508 185.633 201.508ZM194.854 208.692C194.065 208.692 193.371 208.511 192.774 208.148C192.187 207.785 191.729 207.289 191.398 206.66C191.078 206.031 190.918 205.316 190.918 204.516C190.918 203.716 191.083 203.007 191.414 202.388C191.745 201.759 192.203 201.268 192.79 200.916C193.377 200.553 194.07 200.372 194.87 200.372C195.521 200.372 196.097 200.505 196.598 200.772C197.099 201.039 197.489 201.412 197.766 201.892V196.98H199.11V208.5H197.894L197.766 207.188C197.51 207.572 197.142 207.919 196.662 208.228C196.182 208.537 195.579 208.692 194.854 208.692ZM194.998 207.524C195.531 207.524 196.001 207.401 196.406 207.156C196.822 206.9 197.142 206.548 197.366 206.1C197.601 205.652 197.718 205.129 197.718 204.532C197.718 203.935 197.601 203.412 197.366 202.964C197.142 202.516 196.822 202.169 196.406 201.924C196.001 201.668 195.531 201.54 194.998 201.54C194.475 201.54 194.006 201.668 193.59 201.924C193.185 202.169 192.865 202.516 192.63 202.964C192.406 203.412 192.294 203.935 192.294 204.532C192.294 205.129 192.406 205.652 192.63 206.1C192.865 206.548 193.185 206.9 193.59 207.156C194.006 207.401 194.475 207.524 194.998 207.524ZM202.197 198.804C201.93 198.804 201.706 198.719 201.525 198.548C201.354 198.367 201.269 198.143 201.269 197.876C201.269 197.62 201.354 197.407 201.525 197.236C201.706 197.065 201.93 196.98 202.197 196.98C202.453 196.98 202.672 197.065 202.853 197.236C203.034 197.407 203.125 197.62 203.125 197.876C203.125 198.143 203.034 198.367 202.853 198.548C202.672 198.719 202.453 198.804 202.197 198.804ZM201.525 208.5V200.564H202.869V208.5H201.525ZM208.937 208.692C208.18 208.692 207.497 208.521 206.889 208.18C206.292 207.828 205.817 207.343 205.465 206.724C205.124 206.095 204.953 205.364 204.953 204.532C204.953 203.7 205.124 202.975 205.465 202.356C205.817 201.727 206.292 201.241 206.889 200.9C207.497 200.548 208.18 200.372 208.937 200.372C209.876 200.372 210.665 200.617 211.305 201.108C211.956 201.599 212.366 202.255 212.537 203.076H211.161C211.054 202.585 210.793 202.207 210.377 201.94C209.961 201.663 209.476 201.524 208.921 201.524C208.473 201.524 208.052 201.636 207.657 201.86C207.262 202.084 206.942 202.42 206.697 202.868C206.452 203.316 206.329 203.871 206.329 204.532C206.329 205.193 206.452 205.748 206.697 206.196C206.942 206.644 207.262 206.985 207.657 207.22C208.052 207.444 208.473 207.556 208.921 207.556C209.476 207.556 209.961 207.423 210.377 207.156C210.793 206.879 211.054 206.489 211.161 205.988H212.537C212.377 206.788 211.972 207.439 211.321 207.94C210.67 208.441 209.876 208.692 208.937 208.692ZM217.134 208.692C216.473 208.692 215.923 208.58 215.486 208.356C215.049 208.132 214.723 207.833 214.51 207.46C214.297 207.087 214.19 206.681 214.19 206.244C214.19 205.433 214.499 204.809 215.118 204.372C215.737 203.935 216.579 203.716 217.646 203.716H219.79V203.62C219.79 202.927 219.609 202.404 219.246 202.052C218.883 201.689 218.398 201.508 217.79 201.508C217.267 201.508 216.814 201.641 216.43 201.908C216.057 202.164 215.822 202.543 215.726 203.044H214.35C214.403 202.468 214.595 201.983 214.926 201.588C215.267 201.193 215.689 200.895 216.19 200.692C216.691 200.479 217.225 200.372 217.79 200.372C218.899 200.372 219.731 200.671 220.286 201.268C220.851 201.855 221.134 202.639 221.134 203.62V208.5H219.934L219.854 207.076C219.63 207.524 219.299 207.908 218.862 208.228C218.435 208.537 217.859 208.692 217.134 208.692ZM217.342 207.556C217.854 207.556 218.291 207.423 218.654 207.156C219.027 206.889 219.31 206.543 219.502 206.116C219.694 205.689 219.79 205.241 219.79 204.772V204.756H217.758C216.969 204.756 216.409 204.895 216.078 205.172C215.758 205.439 215.598 205.775 215.598 206.18C215.598 206.596 215.747 206.932 216.046 207.188C216.355 207.433 216.787 207.556 217.342 207.556ZM226.148 208.5C225.422 208.5 224.852 208.324 224.436 207.972C224.02 207.62 223.812 206.985 223.812 206.068V201.7H222.436V200.564H223.812L223.988 198.66H225.156V200.564H227.492V201.7H225.156V206.068C225.156 206.569 225.257 206.911 225.46 207.092C225.662 207.263 226.02 207.348 226.532 207.348H227.364V208.5H226.148ZM232.628 208.692C231.871 208.692 231.199 208.521 230.612 208.18C230.026 207.828 229.562 207.343 229.22 206.724C228.89 206.105 228.724 205.375 228.724 204.532C228.724 203.7 228.89 202.975 229.22 202.356C229.551 201.727 230.01 201.241 230.596 200.9C231.194 200.548 231.882 200.372 232.66 200.372C233.428 200.372 234.09 200.548 234.644 200.9C235.21 201.241 235.642 201.695 235.94 202.26C236.239 202.825 236.388 203.433 236.388 204.084C236.388 204.201 236.383 204.319 236.372 204.436C236.372 204.553 236.372 204.687 236.372 204.836H230.052C230.084 205.444 230.223 205.951 230.468 206.356C230.724 206.751 231.039 207.049 231.412 207.252C231.796 207.455 232.202 207.556 232.628 207.556C233.183 207.556 233.647 207.428 234.02 207.172C234.394 206.916 234.666 206.569 234.836 206.132H236.164C235.951 206.868 235.54 207.481 234.932 207.972C234.335 208.452 233.567 208.692 232.628 208.692ZM232.628 201.508C231.988 201.508 231.418 201.705 230.916 202.1C230.426 202.484 230.143 203.049 230.068 203.796H235.06C235.028 203.081 234.783 202.521 234.324 202.116C233.866 201.711 233.3 201.508 232.628 201.508ZM241.85 208.692C241.06 208.692 240.367 208.511 239.77 208.148C239.183 207.785 238.724 207.289 238.394 206.66C238.074 206.031 237.914 205.316 237.914 204.516C237.914 203.716 238.079 203.007 238.41 202.388C238.74 201.759 239.199 201.268 239.786 200.916C240.372 200.553 241.066 200.372 241.866 200.372C242.516 200.372 243.092 200.505 243.594 200.772C244.095 201.039 244.484 201.412 244.762 201.892V196.98H246.106V208.5H244.89L244.762 207.188C244.506 207.572 244.138 207.919 243.658 208.228C243.178 208.537 242.575 208.692 241.85 208.692ZM241.994 207.524C242.527 207.524 242.996 207.401 243.402 207.156C243.818 206.9 244.138 206.548 244.362 206.1C244.596 205.652 244.714 205.129 244.714 204.532C244.714 203.935 244.596 203.412 244.362 202.964C244.138 202.516 243.818 202.169 243.402 201.924C242.996 201.668 242.527 201.54 241.994 201.54C241.471 201.54 241.002 201.668 240.586 201.924C240.18 202.169 239.86 202.516 239.626 202.964C239.402 203.412 239.29 203.935 239.29 204.532C239.29 205.129 239.402 205.652 239.626 206.1C239.86 206.548 240.18 206.9 240.586 207.156C241.002 207.401 241.471 207.524 241.994 207.524ZM255.827 208.5C255.102 208.5 254.531 208.324 254.115 207.972C253.699 207.62 253.491 206.985 253.491 206.068V201.7H252.115V200.564H253.491L253.667 198.66H254.835V200.564H257.171V201.7H254.835V206.068C254.835 206.569 254.936 206.911 255.139 207.092C255.342 207.263 255.699 207.348 256.211 207.348H257.043V208.5H255.827ZM262.356 208.692C261.609 208.692 260.937 208.521 260.34 208.18C259.742 207.839 259.268 207.359 258.916 206.74C258.574 206.111 258.404 205.375 258.404 204.532C258.404 203.689 258.58 202.959 258.932 202.34C259.284 201.711 259.758 201.225 260.356 200.884C260.964 200.543 261.641 200.372 262.388 200.372C263.134 200.372 263.806 200.543 264.404 200.884C265.001 201.225 265.47 201.711 265.812 202.34C266.164 202.959 266.34 203.689 266.34 204.532C266.34 205.375 266.164 206.111 265.812 206.74C265.46 207.359 264.98 207.839 264.372 208.18C263.774 208.521 263.102 208.692 262.356 208.692ZM262.356 207.54C262.814 207.54 263.241 207.428 263.636 207.204C264.03 206.98 264.35 206.644 264.596 206.196C264.841 205.748 264.964 205.193 264.964 204.532C264.964 203.871 264.841 203.316 264.596 202.868C264.361 202.42 264.046 202.084 263.652 201.86C263.257 201.636 262.836 201.524 262.388 201.524C261.929 201.524 261.502 201.636 261.108 201.86C260.713 202.084 260.393 202.42 260.148 202.868C259.902 203.316 259.78 203.871 259.78 204.532C259.78 205.193 259.902 205.748 260.148 206.196C260.393 206.644 260.708 206.98 261.092 207.204C261.486 207.428 261.908 207.54 262.356 207.54ZM58.6306 229.5C57.9053 229.5 57.3346 229.324 56.9186 228.972C56.5026 228.62 56.2946 227.985 56.2946 227.068V222.7H54.9186V221.564H56.2946L56.4706 219.66H57.6386V221.564H59.9746V222.7H57.6386V227.068C57.6386 227.569 57.74 227.911 57.9426 228.092C58.1453 228.263 58.5026 228.348 59.0146 228.348H59.8466V229.5H58.6306ZM64.4021 229.692C63.7408 229.692 63.1915 229.58 62.7541 229.356C62.3168 229.132 61.9915 228.833 61.7781 228.46C61.5648 228.087 61.4581 227.681 61.4581 227.244C61.4581 226.433 61.7675 225.809 62.3861 225.372C63.0048 224.935 63.8475 224.716 64.9141 224.716H67.0581V224.62C67.0581 223.927 66.8768 223.404 66.5141 223.052C66.1515 222.689 65.6661 222.508 65.0581 222.508C64.5355 222.508 64.0821 222.641 63.6981 222.908C63.3248 223.164 63.0901 223.543 62.9941 224.044H61.6181C61.6715 223.468 61.8635 222.983 62.1941 222.588C62.5355 222.193 62.9568 221.895 63.4581 221.692C63.9595 221.479 64.4928 221.372 65.0581 221.372C66.1675 221.372 66.9995 221.671 67.5541 222.268C68.1195 222.855 68.4021 223.639 68.4021 224.62V229.5H67.2021L67.1221 228.076C66.8981 228.524 66.5675 228.908 66.1301 229.228C65.7035 229.537 65.1275 229.692 64.4021 229.692ZM64.6101 228.556C65.1221 228.556 65.5595 228.423 65.9221 228.156C66.2955 227.889 66.5781 227.543 66.7701 227.116C66.9621 226.689 67.0581 226.241 67.0581 225.772V225.756H65.0261C64.2368 225.756 63.6768 225.895 63.3461 226.172C63.0261 226.439 62.8661 226.775 62.8661 227.18C62.8661 227.596 63.0155 227.932 63.3141 228.188C63.6235 228.433 64.0555 228.556 64.6101 228.556ZM74.1464 229.692C73.389 229.692 72.7064 229.521 72.0984 229.18C71.501 228.828 71.0264 228.343 70.6744 227.724C70.333 227.095 70.1624 226.364 70.1624 225.532C70.1624 224.7 70.333 223.975 70.6744 223.356C71.0264 222.727 71.501 222.241 72.0984 221.9C72.7064 221.548 73.389 221.372 74.1464 221.372C75.085 221.372 75.8744 221.617 76.5144 222.108C77.165 222.599 77.5757 223.255 77.7464 224.076H76.3704C76.2637 223.585 76.0024 223.207 75.5864 222.94C75.1704 222.663 74.685 222.524 74.1304 222.524C73.6824 222.524 73.261 222.636 72.8664 222.86C72.4717 223.084 72.1517 223.42 71.9064 223.868C71.661 224.316 71.5384 224.871 71.5384 225.532C71.5384 226.193 71.661 226.748 71.9064 227.196C72.1517 227.644 72.4717 227.985 72.8664 228.22C73.261 228.444 73.6824 228.556 74.1304 228.556C74.685 228.556 75.1704 228.423 75.5864 228.156C76.0024 227.879 76.2637 227.489 76.3704 226.988H77.7464C77.5864 227.788 77.181 228.439 76.5304 228.94C75.8797 229.441 75.085 229.692 74.1464 229.692ZM79.7034 229.5V217.98H81.0474V224.908L84.2954 221.564H85.9434L82.4234 225.148L86.3914 229.5H84.6794L81.0474 225.388V229.5H79.7034ZM87.8459 229.5V217.98H89.1899V229.5H87.8459ZM92.2888 219.804C92.0221 219.804 91.7981 219.719 91.6168 219.548C91.4461 219.367 91.3608 219.143 91.3608 218.876C91.3608 218.62 91.4461 218.407 91.6168 218.236C91.7981 218.065 92.0221 217.98 92.2888 217.98C92.5448 217.98 92.7634 218.065 92.9448 218.236C93.1261 218.407 93.2168 218.62 93.2168 218.876C93.2168 219.143 93.1261 219.367 92.9448 219.548C92.7634 219.719 92.5448 219.804 92.2888 219.804ZM91.6168 229.5V221.564H92.9608V229.5H91.6168ZM95.3809 229.5V221.564H96.5969L96.6769 222.988C96.9329 222.487 97.3009 222.092 97.7809 221.804C98.2609 221.516 98.8049 221.372 99.4129 221.372C100.352 221.372 101.098 221.66 101.653 222.236C102.218 222.801 102.501 223.676 102.501 224.86V229.5H101.157V225.004C101.157 223.351 100.474 222.524 99.1089 222.524C98.4262 222.524 97.8555 222.775 97.3969 223.276C96.9489 223.767 96.7249 224.471 96.7249 225.388V229.5H95.3809ZM107.753 227.004C107.305 227.004 106.894 226.945 106.521 226.828L105.721 227.58C105.838 227.665 105.982 227.74 106.153 227.804C106.334 227.857 106.59 227.911 106.921 227.964C107.252 228.007 107.716 228.055 108.313 228.108C109.38 228.183 110.142 228.428 110.601 228.844C111.06 229.26 111.289 229.804 111.289 230.476C111.289 230.935 111.161 231.372 110.905 231.788C110.66 232.204 110.276 232.545 109.753 232.812C109.241 233.079 108.58 233.212 107.769 233.212C107.054 233.212 106.42 233.116 105.865 232.924C105.31 232.743 104.878 232.46 104.569 232.076C104.26 231.703 104.105 231.228 104.105 230.652C104.105 230.353 104.185 230.028 104.345 229.676C104.505 229.335 104.804 229.009 105.241 228.7C105.006 228.604 104.804 228.503 104.633 228.396C104.473 228.279 104.324 228.151 104.185 228.012V227.644L105.545 226.3C104.916 225.767 104.601 225.063 104.601 224.188C104.601 223.665 104.724 223.191 104.969 222.764C105.214 222.337 105.572 222.001 106.041 221.756C106.51 221.5 107.081 221.372 107.753 221.372C108.212 221.372 108.628 221.436 109.001 221.564H111.929V222.572L110.441 222.636C110.75 223.084 110.905 223.601 110.905 224.188C110.905 224.711 110.777 225.185 110.521 225.612C110.276 226.039 109.918 226.38 109.449 226.636C108.99 226.881 108.425 227.004 107.753 227.004ZM107.753 225.9C108.318 225.9 108.766 225.756 109.097 225.468C109.438 225.169 109.609 224.743 109.609 224.188C109.609 223.644 109.438 223.228 109.097 222.94C108.766 222.641 108.318 222.492 107.753 222.492C107.177 222.492 106.718 222.641 106.377 222.94C106.046 223.228 105.881 223.644 105.881 224.188C105.881 224.743 106.046 225.169 106.377 225.468C106.718 225.756 107.177 225.9 107.753 225.9ZM105.417 230.524C105.417 231.057 105.641 231.452 106.089 231.708C106.537 231.975 107.097 232.108 107.769 232.108C108.43 232.108 108.958 231.964 109.353 231.676C109.758 231.388 109.961 231.004 109.961 230.524C109.961 230.183 109.822 229.884 109.545 229.628C109.268 229.383 108.756 229.239 108.009 229.196C107.422 229.153 106.916 229.1 106.489 229.036C106.052 229.271 105.764 229.521 105.625 229.788C105.486 230.065 105.417 230.311 105.417 230.524ZM120.976 229.5C120.25 229.5 119.68 229.324 119.264 228.972C118.848 228.62 118.64 227.985 118.64 227.068V222.7H117.264V221.564H118.64L118.816 219.66H119.984V221.564H122.32V222.7H119.984V227.068C119.984 227.569 120.085 227.911 120.288 228.092C120.49 228.263 120.848 228.348 121.36 228.348H122.192V229.5H120.976ZM127.504 229.692C126.758 229.692 126.086 229.521 125.488 229.18C124.891 228.839 124.416 228.359 124.064 227.74C123.723 227.111 123.552 226.375 123.552 225.532C123.552 224.689 123.728 223.959 124.08 223.34C124.432 222.711 124.907 222.225 125.504 221.884C126.112 221.543 126.79 221.372 127.536 221.372C128.283 221.372 128.955 221.543 129.552 221.884C130.15 222.225 130.619 222.711 130.96 223.34C131.312 223.959 131.488 224.689 131.488 225.532C131.488 226.375 131.312 227.111 130.96 227.74C130.608 228.359 130.128 228.839 129.52 229.18C128.923 229.521 128.251 229.692 127.504 229.692ZM127.504 228.54C127.963 228.54 128.39 228.428 128.784 228.204C129.179 227.98 129.499 227.644 129.744 227.196C129.99 226.748 130.112 226.193 130.112 225.532C130.112 224.871 129.99 224.316 129.744 223.868C129.51 223.42 129.195 223.084 128.8 222.86C128.406 222.636 127.984 222.524 127.536 222.524C127.078 222.524 126.651 222.636 126.256 222.86C125.862 223.084 125.542 223.42 125.296 223.868C125.051 224.316 124.928 224.871 124.928 225.532C124.928 226.193 125.051 226.748 125.296 227.196C125.542 227.644 125.856 227.98 126.24 228.204C126.635 228.428 127.056 228.54 127.504 228.54ZM137.037 229.692C136.248 229.692 135.554 229.511 134.957 229.148C134.37 228.785 133.912 228.289 133.581 227.66C133.261 227.031 133.101 226.316 133.101 225.516C133.101 224.716 133.266 224.007 133.597 223.388C133.928 222.759 134.386 222.268 134.973 221.916C135.56 221.553 136.253 221.372 137.053 221.372C137.704 221.372 138.28 221.505 138.781 221.772C139.282 222.039 139.672 222.412 139.949 222.892V217.98H141.293V229.5H140.077L139.949 228.188C139.693 228.572 139.325 228.919 138.845 229.228C138.365 229.537 137.762 229.692 137.037 229.692ZM137.181 228.524C137.714 228.524 138.184 228.401 138.589 228.156C139.005 227.9 139.325 227.548 139.549 227.1C139.784 226.652 139.901 226.129 139.901 225.532C139.901 224.935 139.784 224.412 139.549 223.964C139.325 223.516 139.005 223.169 138.589 222.924C138.184 222.668 137.714 222.54 137.181 222.54C136.658 222.54 136.189 222.668 135.773 222.924C135.368 223.169 135.048 223.516 134.813 223.964C134.589 224.412 134.477 224.935 134.477 225.532C134.477 226.129 134.589 226.652 134.813 227.1C135.048 227.548 135.368 227.9 135.773 228.156C136.189 228.401 136.658 228.524 137.181 228.524ZM146.204 229.692C145.543 229.692 144.993 229.58 144.556 229.356C144.119 229.132 143.793 228.833 143.58 228.46C143.367 228.087 143.26 227.681 143.26 227.244C143.26 226.433 143.569 225.809 144.188 225.372C144.807 224.935 145.649 224.716 146.716 224.716H148.86V224.62C148.86 223.927 148.679 223.404 148.316 223.052C147.953 222.689 147.468 222.508 146.86 222.508C146.337 222.508 145.884 222.641 145.5 222.908C145.127 223.164 144.892 223.543 144.796 224.044H143.42C143.473 223.468 143.665 222.983 143.996 222.588C144.337 222.193 144.759 221.895 145.26 221.692C145.761 221.479 146.295 221.372 146.86 221.372C147.969 221.372 148.801 221.671 149.356 222.268C149.921 222.855 150.204 223.639 150.204 224.62V229.5H149.004L148.924 228.076C148.7 228.524 148.369 228.908 147.932 229.228C147.505 229.537 146.929 229.692 146.204 229.692ZM146.412 228.556C146.924 228.556 147.361 228.423 147.724 228.156C148.097 227.889 148.38 227.543 148.572 227.116C148.764 226.689 148.86 226.241 148.86 225.772V225.756H146.828C146.039 225.756 145.479 225.895 145.148 226.172C144.828 226.439 144.668 226.775 144.668 227.18C144.668 227.596 144.817 227.932 145.116 228.188C145.425 228.433 145.857 228.556 146.412 228.556ZM152.93 233.02L154.898 228.732H154.434L151.282 221.564H152.738L155.362 227.74L158.146 221.564H159.538L154.338 233.02H152.93ZM160.732 220.572L160.524 217.42H161.852L161.66 220.572H160.732ZM166.672 229.692C165.723 229.692 164.933 229.452 164.304 228.972C163.675 228.492 163.307 227.841 163.2 227.02H164.576C164.661 227.436 164.88 227.799 165.232 228.108C165.595 228.407 166.08 228.556 166.688 228.556C167.253 228.556 167.669 228.439 167.936 228.204C168.203 227.959 168.336 227.671 168.336 227.34C168.336 226.86 168.16 226.54 167.808 226.38C167.467 226.22 166.981 226.076 166.352 225.948C165.925 225.863 165.499 225.74 165.072 225.58C164.645 225.42 164.288 225.196 164 224.908C163.712 224.609 163.568 224.22 163.568 223.74C163.568 223.047 163.824 222.481 164.336 222.044C164.859 221.596 165.563 221.372 166.448 221.372C167.291 221.372 167.979 221.585 168.512 222.012C169.056 222.428 169.371 223.025 169.456 223.804H168.128C168.075 223.399 167.899 223.084 167.6 222.86C167.312 222.625 166.923 222.508 166.432 222.508C165.952 222.508 165.579 222.609 165.312 222.812C165.056 223.015 164.928 223.281 164.928 223.612C164.928 223.932 165.093 224.183 165.424 224.364C165.765 224.545 166.224 224.7 166.8 224.828C167.291 224.935 167.755 225.068 168.192 225.228C168.64 225.377 169.003 225.607 169.28 225.916C169.568 226.215 169.712 226.652 169.712 227.228C169.723 227.943 169.451 228.535 168.896 229.004C168.352 229.463 167.611 229.692 166.672 229.692ZM176.027 233.02V221.564H177.243L177.371 222.876C177.627 222.492 177.989 222.145 178.459 221.836C178.939 221.527 179.547 221.372 180.283 221.372C181.072 221.372 181.76 221.553 182.347 221.916C182.933 222.279 183.387 222.775 183.707 223.404C184.037 224.033 184.203 224.748 184.203 225.548C184.203 226.348 184.037 227.063 183.707 227.692C183.387 228.311 182.928 228.801 182.331 229.164C181.744 229.516 181.056 229.692 180.267 229.692C179.616 229.692 179.035 229.559 178.523 229.292C178.021 229.025 177.637 228.652 177.371 228.172V233.02H176.027ZM180.123 228.524C180.656 228.524 181.125 228.401 181.531 228.156C181.936 227.9 182.256 227.548 182.491 227.1C182.725 226.652 182.843 226.129 182.843 225.532C182.843 224.935 182.725 224.412 182.491 223.964C182.256 223.516 181.936 223.169 181.531 222.924C181.125 222.668 180.656 222.54 180.123 222.54C179.589 222.54 179.12 222.668 178.715 222.924C178.309 223.169 177.989 223.516 177.755 223.964C177.52 224.412 177.403 224.935 177.403 225.532C177.403 226.129 177.52 226.652 177.755 227.1C177.989 227.548 178.309 227.9 178.715 228.156C179.12 228.401 179.589 228.524 180.123 228.524ZM186.153 229.5V221.564H187.369L187.481 223.084C187.727 222.561 188.1 222.145 188.601 221.836C189.103 221.527 189.721 221.372 190.457 221.372V222.78H190.089C189.62 222.78 189.188 222.865 188.793 223.036C188.399 223.196 188.084 223.473 187.849 223.868C187.615 224.263 187.497 224.807 187.497 225.5V229.5H186.153ZM195.365 229.692C194.618 229.692 193.946 229.521 193.349 229.18C192.752 228.839 192.277 228.359 191.925 227.74C191.584 227.111 191.413 226.375 191.413 225.532C191.413 224.689 191.589 223.959 191.941 223.34C192.293 222.711 192.768 222.225 193.365 221.884C193.973 221.543 194.65 221.372 195.397 221.372C196.144 221.372 196.816 221.543 197.413 221.884C198.01 222.225 198.48 222.711 198.821 223.34C199.173 223.959 199.349 224.689 199.349 225.532C199.349 226.375 199.173 227.111 198.821 227.74C198.469 228.359 197.989 228.839 197.381 229.18C196.784 229.521 196.112 229.692 195.365 229.692ZM195.365 228.54C195.824 228.54 196.25 228.428 196.645 228.204C197.04 227.98 197.36 227.644 197.605 227.196C197.85 226.748 197.973 226.193 197.973 225.532C197.973 224.871 197.85 224.316 197.605 223.868C197.37 223.42 197.056 223.084 196.661 222.86C196.266 222.636 195.845 222.524 195.397 222.524C194.938 222.524 194.512 222.636 194.117 222.86C193.722 223.084 193.402 223.42 193.157 223.868C192.912 224.316 192.789 224.871 192.789 225.532C192.789 226.193 192.912 226.748 193.157 227.196C193.402 227.644 193.717 227.98 194.101 228.204C194.496 228.428 194.917 228.54 195.365 228.54ZM205.538 229.692C204.887 229.692 204.306 229.559 203.794 229.292C203.292 229.025 202.908 228.652 202.642 228.172L202.514 229.5H201.298V217.98H202.642V222.876C202.898 222.492 203.26 222.145 203.73 221.836C204.21 221.527 204.818 221.372 205.554 221.372C206.343 221.372 207.031 221.553 207.618 221.916C208.204 222.279 208.658 222.775 208.978 223.404C209.308 224.033 209.474 224.748 209.474 225.548C209.474 226.348 209.308 227.063 208.978 227.692C208.658 228.311 208.199 228.801 207.602 229.164C207.015 229.516 206.327 229.692 205.538 229.692ZM205.394 228.524C205.927 228.524 206.396 228.401 206.802 228.156C207.207 227.9 207.527 227.548 207.762 227.1C207.996 226.652 208.114 226.129 208.114 225.532C208.114 224.935 207.996 224.412 207.762 223.964C207.527 223.516 207.207 223.169 206.802 222.924C206.396 222.668 205.927 222.54 205.394 222.54C204.86 222.54 204.391 222.668 203.986 222.924C203.58 223.169 203.26 223.516 203.026 223.964C202.791 224.412 202.674 224.935 202.674 225.532C202.674 226.129 202.791 226.652 203.026 227.1C203.26 227.548 203.58 227.9 203.986 228.156C204.391 228.401 204.86 228.524 205.394 228.524ZM211.425 229.5V217.98H212.769V229.5H211.425ZM218.619 229.692C217.862 229.692 217.19 229.521 216.603 229.18C216.017 228.828 215.553 228.343 215.211 227.724C214.881 227.105 214.715 226.375 214.715 225.532C214.715 224.7 214.881 223.975 215.211 223.356C215.542 222.727 216.001 222.241 216.587 221.9C217.185 221.548 217.873 221.372 218.651 221.372C219.419 221.372 220.081 221.548 220.635 221.9C221.201 222.241 221.633 222.695 221.931 223.26C222.23 223.825 222.379 224.433 222.379 225.084C222.379 225.201 222.374 225.319 222.363 225.436C222.363 225.553 222.363 225.687 222.363 225.836H216.043C216.075 226.444 216.214 226.951 216.459 227.356C216.715 227.751 217.03 228.049 217.403 228.252C217.787 228.455 218.193 228.556 218.619 228.556C219.174 228.556 219.638 228.428 220.011 228.172C220.385 227.916 220.657 227.569 220.827 227.132H222.155C221.942 227.868 221.531 228.481 220.923 228.972C220.326 229.452 219.558 229.692 218.619 229.692ZM218.619 222.508C217.979 222.508 217.409 222.705 216.907 223.1C216.417 223.484 216.134 224.049 216.059 224.796H221.051C221.019 224.081 220.774 223.521 220.315 223.116C219.857 222.711 219.291 222.508 218.619 222.508ZM224.241 229.5V221.564H225.457L225.553 222.716C225.809 222.289 226.15 221.959 226.577 221.724C227.004 221.489 227.484 221.372 228.017 221.372C228.646 221.372 229.185 221.5 229.633 221.756C230.092 222.012 230.444 222.401 230.689 222.924C230.966 222.444 231.345 222.065 231.825 221.788C232.316 221.511 232.844 221.372 233.409 221.372C234.358 221.372 235.116 221.66 235.681 222.236C236.246 222.801 236.529 223.676 236.529 224.86V229.5H235.201V225.004C235.201 224.183 235.036 223.564 234.705 223.148C234.374 222.732 233.9 222.524 233.281 222.524C232.641 222.524 232.108 222.775 231.681 223.276C231.265 223.767 231.057 224.471 231.057 225.388V229.5H229.713V225.004C229.713 224.183 229.548 223.564 229.217 223.148C228.886 222.732 228.412 222.524 227.793 222.524C227.164 222.524 226.636 222.775 226.209 223.276C225.793 223.767 225.585 224.471 225.585 225.388V229.5H224.241ZM241.673 229.692C240.724 229.692 239.935 229.452 239.305 228.972C238.676 228.492 238.308 227.841 238.201 227.02H239.577C239.663 227.436 239.881 227.799 240.233 228.108C240.596 228.407 241.081 228.556 241.689 228.556C242.255 228.556 242.671 228.439 242.937 228.204C243.204 227.959 243.337 227.671 243.337 227.34C243.337 226.86 243.161 226.54 242.809 226.38C242.468 226.22 241.983 226.076 241.353 225.948C240.927 225.863 240.5 225.74 240.073 225.58C239.647 225.42 239.289 225.196 239.001 224.908C238.713 224.609 238.569 224.22 238.569 223.74C238.569 223.047 238.825 222.481 239.337 222.044C239.86 221.596 240.564 221.372 241.449 221.372C242.292 221.372 242.98 221.585 243.513 222.012C244.057 222.428 244.372 223.025 244.457 223.804H243.129C243.076 223.399 242.9 223.084 242.601 222.86C242.313 222.625 241.924 222.508 241.433 222.508C240.953 222.508 240.58 222.609 240.313 222.812C240.057 223.015 239.929 223.281 239.929 223.612C239.929 223.932 240.095 224.183 240.425 224.364C240.767 224.545 241.225 224.7 241.801 224.828C242.292 224.935 242.756 225.068 243.193 225.228C243.641 225.377 244.004 225.607 244.281 225.916C244.569 226.215 244.713 226.652 244.713 227.228C244.724 227.943 244.452 228.535 243.897 229.004C243.353 229.463 242.612 229.692 241.673 229.692ZM116.74 250.5C116.015 250.5 115.444 250.324 115.028 249.972C114.612 249.62 114.404 248.985 114.404 248.068V243.7H113.028V242.564H114.404L114.58 240.66H115.748V242.564H118.084V243.7H115.748V248.068C115.748 248.569 115.85 248.911 116.052 249.092C116.255 249.263 116.612 249.348 117.124 249.348H117.956V250.5H116.74ZM123.269 250.692C122.522 250.692 121.85 250.521 121.253 250.18C120.656 249.839 120.181 249.359 119.829 248.74C119.488 248.111 119.317 247.375 119.317 246.532C119.317 245.689 119.493 244.959 119.845 244.34C120.197 243.711 120.672 243.225 121.269 242.884C121.877 242.543 122.554 242.372 123.301 242.372C124.048 242.372 124.72 242.543 125.317 242.884C125.914 243.225 126.384 243.711 126.725 244.34C127.077 244.959 127.253 245.689 127.253 246.532C127.253 247.375 127.077 248.111 126.725 248.74C126.373 249.359 125.893 249.839 125.285 250.18C124.688 250.521 124.016 250.692 123.269 250.692ZM123.269 249.54C123.728 249.54 124.154 249.428 124.549 249.204C124.944 248.98 125.264 248.644 125.509 248.196C125.754 247.748 125.877 247.193 125.877 246.532C125.877 245.871 125.754 245.316 125.509 244.868C125.274 244.42 124.96 244.084 124.565 243.86C124.17 243.636 123.749 243.524 123.301 243.524C122.842 243.524 122.416 243.636 122.021 243.86C121.626 244.084 121.306 244.42 121.061 244.868C120.816 245.316 120.693 245.871 120.693 246.532C120.693 247.193 120.816 247.748 121.061 248.196C121.306 248.644 121.621 248.98 122.005 249.204C122.4 249.428 122.821 249.54 123.269 249.54ZM129.202 250.5V242.564H130.418L130.514 243.716C130.77 243.289 131.111 242.959 131.538 242.724C131.964 242.489 132.444 242.372 132.978 242.372C133.607 242.372 134.146 242.5 134.594 242.756C135.052 243.012 135.404 243.401 135.65 243.924C135.927 243.444 136.306 243.065 136.786 242.788C137.276 242.511 137.804 242.372 138.37 242.372C139.319 242.372 140.076 242.66 140.642 243.236C141.207 243.801 141.49 244.676 141.49 245.86V250.5H140.162V246.004C140.162 245.183 139.996 244.564 139.666 244.148C139.335 243.732 138.86 243.524 138.242 243.524C137.602 243.524 137.068 243.775 136.642 244.276C136.226 244.767 136.018 245.471 136.018 246.388V250.5H134.674V246.004C134.674 245.183 134.508 244.564 134.178 244.148C133.847 243.732 133.372 243.524 132.754 243.524C132.124 243.524 131.596 243.775 131.17 244.276C130.754 244.767 130.546 245.471 130.546 246.388V250.5H129.202ZM147.21 250.692C146.464 250.692 145.792 250.521 145.194 250.18C144.597 249.839 144.122 249.359 143.77 248.74C143.429 248.111 143.258 247.375 143.258 246.532C143.258 245.689 143.434 244.959 143.786 244.34C144.138 243.711 144.613 243.225 145.21 242.884C145.818 242.543 146.496 242.372 147.242 242.372C147.989 242.372 148.661 242.543 149.258 242.884C149.856 243.225 150.325 243.711 150.666 244.34C151.018 244.959 151.194 245.689 151.194 246.532C151.194 247.375 151.018 248.111 150.666 248.74C150.314 249.359 149.834 249.839 149.226 250.18C148.629 250.521 147.957 250.692 147.21 250.692ZM147.21 249.54C147.669 249.54 148.096 249.428 148.49 249.204C148.885 248.98 149.205 248.644 149.45 248.196C149.696 247.748 149.818 247.193 149.818 246.532C149.818 245.871 149.696 245.316 149.45 244.868C149.216 244.42 148.901 244.084 148.506 243.86C148.112 243.636 147.69 243.524 147.242 243.524C146.784 243.524 146.357 243.636 145.962 243.86C145.568 244.084 145.248 244.42 145.002 244.868C144.757 245.316 144.634 245.871 144.634 246.532C144.634 247.193 144.757 247.748 145.002 248.196C145.248 248.644 145.562 248.98 145.946 249.204C146.341 249.428 146.762 249.54 147.21 249.54ZM153.143 250.5V242.564H154.359L154.471 244.084C154.716 243.561 155.09 243.145 155.591 242.836C156.092 242.527 156.711 242.372 157.447 242.372V243.78H157.079C156.61 243.78 156.178 243.865 155.783 244.036C155.388 244.196 155.074 244.473 154.839 244.868C154.604 245.263 154.487 245.807 154.487 246.5V250.5H153.143ZM159.036 250.5V242.564H160.252L160.364 244.084C160.609 243.561 160.982 243.145 161.484 242.836C161.985 242.527 162.604 242.372 163.34 242.372V243.78H162.972C162.502 243.78 162.07 243.865 161.676 244.036C161.281 244.196 160.966 244.473 160.732 244.868C160.497 245.263 160.38 245.807 160.38 246.5V250.5H159.036ZM168.247 250.692C167.501 250.692 166.829 250.521 166.231 250.18C165.634 249.839 165.159 249.359 164.807 248.74C164.466 248.111 164.295 247.375 164.295 246.532C164.295 245.689 164.471 244.959 164.823 244.34C165.175 243.711 165.65 243.225 166.247 242.884C166.855 242.543 167.533 242.372 168.279 242.372C169.026 242.372 169.698 242.543 170.295 242.884C170.893 243.225 171.362 243.711 171.703 244.34C172.055 244.959 172.231 245.689 172.231 246.532C172.231 247.375 172.055 248.111 171.703 248.74C171.351 249.359 170.871 249.839 170.263 250.18C169.666 250.521 168.994 250.692 168.247 250.692ZM168.247 249.54C168.706 249.54 169.133 249.428 169.527 249.204C169.922 248.98 170.242 248.644 170.487 248.196C170.733 247.748 170.855 247.193 170.855 246.532C170.855 245.871 170.733 245.316 170.487 244.868C170.253 244.42 169.938 244.084 169.543 243.86C169.149 243.636 168.727 243.524 168.279 243.524C167.821 243.524 167.394 243.636 166.999 243.86C166.605 244.084 166.285 244.42 166.039 244.868C165.794 245.316 165.671 245.871 165.671 246.532C165.671 247.193 165.794 247.748 166.039 248.196C166.285 248.644 166.599 248.98 166.983 249.204C167.378 249.428 167.799 249.54 168.247 249.54ZM175.483 250.5L173.163 242.564H174.507L176.187 248.788L178.043 242.564H179.563L181.435 248.788L183.099 242.564H184.459L182.139 250.5H180.763L178.811 243.956L176.859 250.5H175.483ZM185.943 250.58C185.676 250.58 185.452 250.495 185.271 250.324C185.1 250.143 185.015 249.924 185.015 249.668C185.015 249.412 185.1 249.199 185.271 249.028C185.452 248.847 185.676 248.756 185.943 248.756C186.199 248.756 186.412 248.847 186.583 249.028C186.764 249.199 186.855 249.412 186.855 249.668C186.855 249.924 186.764 250.143 186.583 250.324C186.412 250.495 186.199 250.58 185.943 250.58Z" fill="#3D3D3D"/>
</svg>
