<svg width="300" height="300" viewBox="0 0 300 300" fill="none" xmlns="http://www.w3.org/2000/svg">
<circle cx="150" cy="100.5" r="44.5" fill="#9B51E0" fill-opacity="0.1"/>
<circle cx="150" cy="100.5" r="36.5" fill="#9B51E0"/>
<path d="M159.415 96.7504C159.416 95.0432 158.976 93.3647 158.138 91.8775C157.299 90.3902 156.091 89.1446 154.63 88.2611C153.17 87.3777 151.505 86.8863 149.799 86.8346C148.092 86.7829 146.402 87.1727 144.89 87.9661C143.378 88.7595 142.097 89.9298 141.17 91.3636C140.244 92.7974 139.703 94.4461 139.6 96.1502C139.497 97.8544 139.836 99.5562 140.584 101.091C141.332 102.626 142.463 103.941 143.869 104.91L139.582 112.334L142.778 112.465L144.489 115.167L149.4 106.661C149.434 106.661 149.465 106.667 149.499 106.667C149.533 106.667 149.564 106.663 149.598 106.661L154.508 115.167L156.253 112.524L159.415 112.334L155.129 104.91C156.451 104 157.532 102.781 158.279 101.36C159.026 99.938 159.416 98.3562 159.415 96.7504ZM142.415 96.7504C142.415 95.3494 142.831 93.98 143.609 92.8151C144.387 91.6503 145.494 90.7424 146.788 90.2063C148.082 89.6701 149.507 89.5299 150.881 89.8032C152.255 90.0765 153.517 90.7511 154.507 91.7417C155.498 92.7323 156.173 93.9945 156.446 95.3685C156.719 96.7425 156.579 98.1668 156.043 99.4611C155.507 100.755 154.599 101.862 153.434 102.64C152.269 103.418 150.9 103.834 149.499 103.834C147.62 103.834 145.818 103.087 144.49 101.759C143.162 100.431 142.415 98.629 142.415 96.7504Z" fill="white"/>
<path d="M149.5 101C151.847 101 153.75 99.0972 153.75 96.75C153.75 94.4028 151.847 92.5 149.5 92.5C147.153 92.5 145.25 94.4028 145.25 96.75C145.25 99.0972 147.153 101 149.5 101Z" fill="white"/>
<path d="M99.1818 182V165.2H102.302V182H99.1818ZM113.83 169.04C114.854 169.04 115.766 169.24 116.566 169.64C117.382 170.04 118.022 170.656 118.486 171.488C118.95 172.304 119.182 173.36 119.182 174.656V182H116.182V175.04C116.182 173.904 115.91 173.056 115.366 172.496C114.838 171.936 114.094 171.656 113.134 171.656C112.43 171.656 111.806 171.8 111.262 172.088C110.718 172.376 110.294 172.808 109.99 173.384C109.702 173.944 109.558 174.656 109.558 175.52V182H106.558V169.184H109.414V172.64L108.91 171.584C109.358 170.768 110.006 170.144 110.854 169.712C111.718 169.264 112.71 169.04 113.83 169.04ZM127.812 182.168C126.404 182.168 125.316 181.808 124.548 181.088C123.78 180.352 123.396 179.272 123.396 177.848V166.352H126.396V177.776C126.396 178.384 126.548 178.856 126.852 179.192C127.172 179.528 127.612 179.696 128.172 179.696C128.844 179.696 129.404 179.52 129.852 179.168L130.692 181.304C130.34 181.592 129.908 181.808 129.396 181.952C128.884 182.096 128.356 182.168 127.812 182.168ZM121.284 171.68V169.28H129.828V171.68H121.284ZM138.762 182.168C137.338 182.168 136.09 181.888 135.018 181.328C133.962 180.752 133.138 179.968 132.546 178.976C131.97 177.984 131.682 176.856 131.682 175.592C131.682 174.312 131.962 173.184 132.522 172.208C133.098 171.216 133.882 170.44 134.874 169.88C135.882 169.32 137.026 169.04 138.306 169.04C139.554 169.04 140.666 169.312 141.642 169.856C142.618 170.4 143.386 171.168 143.946 172.16C144.506 173.152 144.786 174.32 144.786 175.664C144.786 175.792 144.778 175.936 144.762 176.096C144.762 176.256 144.754 176.408 144.738 176.552H134.058V174.56H143.154L141.978 175.184C141.994 174.448 141.842 173.8 141.522 173.24C141.202 172.68 140.762 172.24 140.202 171.92C139.658 171.6 139.026 171.44 138.306 171.44C137.57 171.44 136.922 171.6 136.362 171.92C135.818 172.24 135.386 172.688 135.066 173.264C134.762 173.824 134.61 174.488 134.61 175.256V175.736C134.61 176.504 134.786 177.184 135.138 177.776C135.49 178.368 135.986 178.824 136.626 179.144C137.266 179.464 138.002 179.624 138.834 179.624C139.554 179.624 140.202 179.512 140.778 179.288C141.354 179.064 141.866 178.712 142.314 178.232L143.922 180.08C143.346 180.752 142.618 181.272 141.738 181.64C140.874 181.992 139.882 182.168 138.762 182.168ZM153.475 186.824C152.291 186.824 151.131 186.664 149.995 186.344C148.875 186.04 147.955 185.592 147.235 185L148.579 182.744C149.139 183.208 149.843 183.576 150.691 183.848C151.555 184.136 152.427 184.28 153.307 184.28C154.715 184.28 155.747 183.952 156.403 183.296C157.059 182.656 157.387 181.688 157.387 180.392V178.112L157.627 175.208L157.531 172.304V169.184H160.387V180.056C160.387 182.376 159.795 184.08 158.611 185.168C157.427 186.272 155.715 186.824 153.475 186.824ZM153.091 181.424C151.875 181.424 150.771 181.168 149.779 180.656C148.803 180.128 148.027 179.4 147.451 178.472C146.891 177.544 146.611 176.456 146.611 175.208C146.611 173.976 146.891 172.896 147.451 171.968C148.027 171.04 148.803 170.32 149.779 169.808C150.771 169.296 151.875 169.04 153.091 169.04C154.179 169.04 155.155 169.256 156.019 169.688C156.883 170.12 157.571 170.792 158.083 171.704C158.611 172.616 158.875 173.784 158.875 175.208C158.875 176.632 158.611 177.808 158.083 178.736C157.571 179.648 156.883 180.328 156.019 180.776C155.155 181.208 154.179 181.424 153.091 181.424ZM153.547 178.88C154.299 178.88 154.971 178.728 155.563 178.424C156.155 178.104 156.611 177.672 156.931 177.128C157.267 176.568 157.435 175.928 157.435 175.208C157.435 174.488 157.267 173.856 156.931 173.312C156.611 172.752 156.155 172.328 155.563 172.04C154.971 171.736 154.299 171.584 153.547 171.584C152.795 171.584 152.115 171.736 151.507 172.04C150.915 172.328 150.451 172.752 150.115 173.312C149.795 173.856 149.635 174.488 149.635 175.208C149.635 175.928 149.795 176.568 150.115 177.128C150.451 177.672 150.915 178.104 151.507 178.424C152.115 178.728 152.795 178.88 153.547 178.88ZM164.331 182V169.184H167.187V172.712L166.851 171.68C167.235 170.816 167.835 170.16 168.651 169.712C169.483 169.264 170.515 169.04 171.747 169.04V171.896C171.619 171.864 171.499 171.848 171.387 171.848C171.275 171.832 171.163 171.824 171.051 171.824C169.915 171.824 169.011 172.16 168.339 172.832C167.667 173.488 167.331 174.472 167.331 175.784V182H164.331ZM174.292 182V169.184H177.292V182H174.292ZM175.804 167.072C175.244 167.072 174.78 166.896 174.412 166.544C174.06 166.192 173.884 165.768 173.884 165.272C173.884 164.76 174.06 164.336 174.412 164C174.78 163.648 175.244 163.472 175.804 163.472C176.364 163.472 176.82 163.64 177.172 163.976C177.54 164.296 177.724 164.704 177.724 165.2C177.724 165.728 177.548 166.176 177.196 166.544C176.844 166.896 176.38 167.072 175.804 167.072ZM186.054 182.168C184.646 182.168 183.558 181.808 182.79 181.088C182.022 180.352 181.638 179.272 181.638 177.848V166.352H184.638V177.776C184.638 178.384 184.79 178.856 185.094 179.192C185.414 179.528 185.854 179.696 186.414 179.696C187.086 179.696 187.646 179.52 188.094 179.168L188.934 181.304C188.582 181.592 188.15 181.808 187.638 181.952C187.126 182.096 186.598 182.168 186.054 182.168ZM179.526 171.68V169.28H188.07V171.68H179.526ZM192.223 186.824C191.599 186.824 190.975 186.72 190.351 186.512C189.727 186.304 189.207 186.016 188.791 185.648L189.991 183.44C190.295 183.712 190.639 183.928 191.023 184.088C191.407 184.248 191.799 184.328 192.199 184.328C192.743 184.328 193.183 184.192 193.519 183.92C193.855 183.648 194.167 183.192 194.455 182.552L195.199 180.872L195.439 180.512L200.287 169.184H203.167L197.167 183.032C196.767 183.992 196.319 184.752 195.823 185.312C195.343 185.872 194.799 186.264 194.191 186.488C193.599 186.712 192.943 186.824 192.223 186.824ZM194.863 182.456L189.079 169.184H192.199L196.903 180.248L194.863 182.456Z" fill="#3D3D3D"/>
<path d="M37.243 218.016L34.171 206.8H35.611L38.027 216.416L40.779 206.8H42.267L44.939 216.416L47.387 206.8H48.827L45.691 218H44.155L41.483 208.752L38.747 218L37.243 218.016ZM53.1632 218.192C52.4059 218.192 51.7339 218.021 51.1472 217.68C50.5606 217.328 50.0966 216.843 49.7552 216.224C49.4246 215.605 49.2592 214.875 49.2592 214.032C49.2592 213.2 49.4246 212.475 49.7552 211.856C50.0859 211.227 50.5446 210.741 51.1312 210.4C51.7286 210.048 52.4166 209.872 53.1952 209.872C53.9632 209.872 54.6246 210.048 55.1792 210.4C55.7446 210.741 56.1766 211.195 56.4752 211.76C56.7739 212.325 56.9232 212.933 56.9232 213.584C56.9232 213.701 56.9179 213.819 56.9072 213.936C56.9072 214.053 56.9072 214.187 56.9072 214.336H50.5872C50.6192 214.944 50.7579 215.451 51.0032 215.856C51.2592 216.251 51.5739 216.549 51.9472 216.752C52.3312 216.955 52.7366 217.056 53.1632 217.056C53.7179 217.056 54.1819 216.928 54.5552 216.672C54.9286 216.416 55.2006 216.069 55.3712 215.632H56.6992C56.4859 216.368 56.0752 216.981 55.4672 217.472C54.8699 217.952 54.1019 218.192 53.1632 218.192ZM53.1632 211.008C52.5232 211.008 51.9526 211.205 51.4512 211.6C50.9606 211.984 50.6779 212.549 50.6032 213.296H55.5952C55.5632 212.581 55.3179 212.021 54.8592 211.616C54.4006 211.211 53.8352 211.008 53.1632 211.008ZM66.747 218.192C65.9897 218.192 65.307 218.021 64.699 217.68C64.1017 217.328 63.627 216.843 63.275 216.224C62.9337 215.595 62.763 214.864 62.763 214.032C62.763 213.2 62.9337 212.475 63.275 211.856C63.627 211.227 64.1017 210.741 64.699 210.4C65.307 210.048 65.9897 209.872 66.747 209.872C67.6857 209.872 68.475 210.117 69.115 210.608C69.7657 211.099 70.1763 211.755 70.347 212.576H68.971C68.8643 212.085 68.603 211.707 68.187 211.44C67.771 211.163 67.2857 211.024 66.731 211.024C66.283 211.024 65.8617 211.136 65.467 211.36C65.0723 211.584 64.7523 211.92 64.507 212.368C64.2617 212.816 64.139 213.371 64.139 214.032C64.139 214.693 64.2617 215.248 64.507 215.696C64.7523 216.144 65.0723 216.485 65.467 216.72C65.8617 216.944 66.283 217.056 66.731 217.056C67.2857 217.056 67.771 216.923 68.187 216.656C68.603 216.379 68.8643 215.989 68.971 215.488H70.347C70.187 216.288 69.7817 216.939 69.131 217.44C68.4803 217.941 67.6857 218.192 66.747 218.192ZM75.92 218.192C75.1733 218.192 74.5013 218.021 73.904 217.68C73.3067 217.339 72.832 216.859 72.48 216.24C72.1387 215.611 71.968 214.875 71.968 214.032C71.968 213.189 72.144 212.459 72.496 211.84C72.848 211.211 73.3227 210.725 73.92 210.384C74.528 210.043 75.2053 209.872 75.952 209.872C76.6987 209.872 77.3707 210.043 77.968 210.384C78.5653 210.725 79.0347 211.211 79.376 211.84C79.728 212.459 79.904 213.189 79.904 214.032C79.904 214.875 79.728 215.611 79.376 216.24C79.024 216.859 78.544 217.339 77.936 217.68C77.3387 218.021 76.6667 218.192 75.92 218.192ZM75.92 217.04C76.3787 217.04 76.8053 216.928 77.2 216.704C77.5947 216.48 77.9147 216.144 78.16 215.696C78.4053 215.248 78.528 214.693 78.528 214.032C78.528 213.371 78.4053 212.816 78.16 212.368C77.9253 211.92 77.6107 211.584 77.216 211.36C76.8213 211.136 76.4 211.024 75.952 211.024C75.4933 211.024 75.0667 211.136 74.672 211.36C74.2773 211.584 73.9573 211.92 73.712 212.368C73.4667 212.816 73.344 213.371 73.344 214.032C73.344 214.693 73.4667 215.248 73.712 215.696C73.9573 216.144 74.272 216.48 74.656 216.704C75.0507 216.928 75.472 217.04 75.92 217.04ZM81.8527 218V210.064H83.0687L83.1647 211.216C83.4207 210.789 83.7621 210.459 84.1887 210.224C84.6154 209.989 85.0954 209.872 85.6287 209.872C86.2581 209.872 86.7967 210 87.2447 210.256C87.7034 210.512 88.0554 210.901 88.3007 211.424C88.5781 210.944 88.9567 210.565 89.4367 210.288C89.9274 210.011 90.4554 209.872 91.0207 209.872C91.9701 209.872 92.7274 210.16 93.2927 210.736C93.8581 211.301 94.1407 212.176 94.1407 213.36V218H92.8127V213.504C92.8127 212.683 92.6474 212.064 92.3167 211.648C91.9861 211.232 91.5114 211.024 90.8927 211.024C90.2527 211.024 89.7194 211.275 89.2927 211.776C88.8767 212.267 88.6687 212.971 88.6687 213.888V218H87.3247V213.504C87.3247 212.683 87.1594 212.064 86.8287 211.648C86.4981 211.232 86.0234 211.024 85.4047 211.024C84.7754 211.024 84.2474 211.275 83.8207 211.776C83.4047 212.267 83.1967 212.971 83.1967 213.888V218H81.8527ZM96.2453 218V210.064H97.4613L97.5573 211.216C97.8133 210.789 98.1546 210.459 98.5813 210.224C99.0079 209.989 99.4879 209.872 100.021 209.872C100.651 209.872 101.189 210 101.637 210.256C102.096 210.512 102.448 210.901 102.693 211.424C102.971 210.944 103.349 210.565 103.829 210.288C104.32 210.011 104.848 209.872 105.413 209.872C106.363 209.872 107.12 210.16 107.685 210.736C108.251 211.301 108.533 212.176 108.533 213.36V218H107.205V213.504C107.205 212.683 107.04 212.064 106.709 211.648C106.379 211.232 105.904 211.024 105.285 211.024C104.645 211.024 104.112 211.275 103.685 211.776C103.269 212.267 103.061 212.971 103.061 213.888V218H101.717V213.504C101.717 212.683 101.552 212.064 101.221 211.648C100.891 211.232 100.416 211.024 99.7973 211.024C99.1679 211.024 98.6399 211.275 98.2133 211.776C97.7973 212.267 97.5893 212.971 97.5893 213.888V218H96.2453ZM113.534 218.192C112.595 218.192 111.848 217.909 111.294 217.344C110.739 216.768 110.462 215.888 110.462 214.704V210.064H111.806V214.56C111.806 216.213 112.483 217.04 113.838 217.04C114.531 217.04 115.102 216.795 115.55 216.304C116.008 215.803 116.238 215.093 116.238 214.176V210.064H117.582V218H116.366L116.27 216.576C116.024 217.077 115.656 217.472 115.166 217.76C114.686 218.048 114.142 218.192 113.534 218.192ZM119.874 218V210.064H121.09L121.17 211.488C121.426 210.987 121.794 210.592 122.274 210.304C122.754 210.016 123.298 209.872 123.906 209.872C124.845 209.872 125.591 210.16 126.146 210.736C126.711 211.301 126.994 212.176 126.994 213.36V218H125.65V213.504C125.65 211.851 124.967 211.024 123.602 211.024C122.919 211.024 122.349 211.275 121.89 211.776C121.442 212.267 121.218 212.971 121.218 213.888V218H119.874ZM129.926 208.304C129.66 208.304 129.436 208.219 129.254 208.048C129.084 207.867 128.998 207.643 128.998 207.376C128.998 207.12 129.084 206.907 129.254 206.736C129.436 206.565 129.66 206.48 129.926 206.48C130.182 206.48 130.401 206.565 130.582 206.736C130.764 206.907 130.854 207.12 130.854 207.376C130.854 207.643 130.764 207.867 130.582 208.048C130.401 208.219 130.182 208.304 129.926 208.304ZM129.254 218V210.064H130.598V218H129.254ZM136.666 218.192C135.909 218.192 135.226 218.021 134.618 217.68C134.021 217.328 133.546 216.843 133.194 216.224C132.853 215.595 132.682 214.864 132.682 214.032C132.682 213.2 132.853 212.475 133.194 211.856C133.546 211.227 134.021 210.741 134.618 210.4C135.226 210.048 135.909 209.872 136.666 209.872C137.605 209.872 138.394 210.117 139.034 210.608C139.685 211.099 140.096 211.755 140.266 212.576H138.89C138.784 212.085 138.522 211.707 138.106 211.44C137.69 211.163 137.205 211.024 136.65 211.024C136.202 211.024 135.781 211.136 135.386 211.36C134.992 211.584 134.672 211.92 134.426 212.368C134.181 212.816 134.058 213.371 134.058 214.032C134.058 214.693 134.181 215.248 134.426 215.696C134.672 216.144 134.992 216.485 135.386 216.72C135.781 216.944 136.202 217.056 136.65 217.056C137.205 217.056 137.69 216.923 138.106 216.656C138.522 216.379 138.784 215.989 138.89 215.488H140.266C140.106 216.288 139.701 216.939 139.05 217.44C138.4 217.941 137.605 218.192 136.666 218.192ZM144.863 218.192C144.202 218.192 143.653 218.08 143.215 217.856C142.778 217.632 142.453 217.333 142.239 216.96C142.026 216.587 141.919 216.181 141.919 215.744C141.919 214.933 142.229 214.309 142.847 213.872C143.466 213.435 144.309 213.216 145.375 213.216H147.519V213.12C147.519 212.427 147.338 211.904 146.975 211.552C146.613 211.189 146.127 211.008 145.519 211.008C144.997 211.008 144.543 211.141 144.159 211.408C143.786 211.664 143.551 212.043 143.455 212.544H142.079C142.133 211.968 142.325 211.483 142.655 211.088C142.997 210.693 143.418 210.395 143.919 210.192C144.421 209.979 144.954 209.872 145.519 209.872C146.629 209.872 147.461 210.171 148.015 210.768C148.581 211.355 148.863 212.139 148.863 213.12V218H147.663L147.583 216.576C147.359 217.024 147.029 217.408 146.591 217.728C146.165 218.037 145.589 218.192 144.863 218.192ZM145.071 217.056C145.583 217.056 146.021 216.923 146.383 216.656C146.757 216.389 147.039 216.043 147.231 215.616C147.423 215.189 147.519 214.741 147.519 214.272V214.256H145.487C144.698 214.256 144.138 214.395 143.807 214.672C143.487 214.939 143.327 215.275 143.327 215.68C143.327 216.096 143.477 216.432 143.775 216.688C144.085 216.933 144.517 217.056 145.071 217.056ZM153.877 218C153.152 218 152.581 217.824 152.165 217.472C151.749 217.12 151.541 216.485 151.541 215.568V211.2H150.165V210.064H151.541L151.717 208.16H152.885V210.064H155.221V211.2H152.885V215.568C152.885 216.069 152.986 216.411 153.189 216.592C153.392 216.763 153.749 216.848 154.261 216.848H155.093V218H153.877ZM160.358 218.192C159.6 218.192 158.928 218.021 158.342 217.68C157.755 217.328 157.291 216.843 156.95 216.224C156.619 215.605 156.454 214.875 156.454 214.032C156.454 213.2 156.619 212.475 156.95 211.856C157.28 211.227 157.739 210.741 158.326 210.4C158.923 210.048 159.611 209.872 160.39 209.872C161.158 209.872 161.819 210.048 162.374 210.4C162.939 210.741 163.371 211.195 163.67 211.76C163.968 212.325 164.118 212.933 164.118 213.584C164.118 213.701 164.112 213.819 164.102 213.936C164.102 214.053 164.102 214.187 164.102 214.336H157.782C157.814 214.944 157.952 215.451 158.198 215.856C158.454 216.251 158.768 216.549 159.142 216.752C159.526 216.955 159.931 217.056 160.358 217.056C160.912 217.056 161.376 216.928 161.75 216.672C162.123 216.416 162.395 216.069 162.566 215.632H163.894C163.68 216.368 163.27 216.981 162.662 217.472C162.064 217.952 161.296 218.192 160.358 218.192ZM160.358 211.008C159.718 211.008 159.147 211.205 158.646 211.6C158.155 211.984 157.872 212.549 157.798 213.296H162.79C162.758 212.581 162.512 212.021 162.054 211.616C161.595 211.211 161.03 211.008 160.358 211.008ZM171.893 218L169.573 210.064H170.917L172.597 216.288L174.453 210.064H175.973L177.845 216.288L179.509 210.064H180.869L178.549 218H177.173L175.221 211.456L173.269 218H171.893ZM183.252 208.304C182.985 208.304 182.761 208.219 182.58 208.048C182.409 207.867 182.324 207.643 182.324 207.376C182.324 207.12 182.409 206.907 182.58 206.736C182.761 206.565 182.985 206.48 183.252 206.48C183.508 206.48 183.727 206.565 183.908 206.736C184.089 206.907 184.18 207.12 184.18 207.376C184.18 207.643 184.089 207.867 183.908 208.048C183.727 208.219 183.508 208.304 183.252 208.304ZM182.58 218V210.064H183.924V218H182.58ZM189.48 218C188.755 218 188.184 217.824 187.768 217.472C187.352 217.12 187.144 216.485 187.144 215.568V211.2H185.768V210.064H187.144L187.32 208.16H188.488V210.064H190.824V211.2H188.488V215.568C188.488 216.069 188.589 216.411 188.792 216.592C188.995 216.763 189.352 216.848 189.864 216.848H190.696V218H189.48ZM192.612 218V206.48H193.956V211.424C194.222 210.933 194.601 210.555 195.092 210.288C195.582 210.011 196.116 209.872 196.692 209.872C197.609 209.872 198.345 210.16 198.9 210.736C199.454 211.301 199.732 212.176 199.732 213.36V218H198.404V213.504C198.404 211.851 197.737 211.024 196.404 211.024C195.71 211.024 195.129 211.275 194.66 211.776C194.19 212.267 193.956 212.971 193.956 213.888V218H192.612ZM206.162 218V210.064H207.378L207.49 211.584C207.735 211.061 208.109 210.645 208.61 210.336C209.111 210.027 209.73 209.872 210.466 209.872V211.28H210.098C209.629 211.28 209.197 211.365 208.802 211.536C208.407 211.696 208.093 211.973 207.858 212.368C207.623 212.763 207.506 213.307 207.506 214V218H206.162ZM215.326 218.192C214.568 218.192 213.896 218.021 213.31 217.68C212.723 217.328 212.259 216.843 211.918 216.224C211.587 215.605 211.422 214.875 211.422 214.032C211.422 213.2 211.587 212.475 211.918 211.856C212.248 211.227 212.707 210.741 213.294 210.4C213.891 210.048 214.579 209.872 215.358 209.872C216.126 209.872 216.787 210.048 217.342 210.4C217.907 210.741 218.339 211.195 218.638 211.76C218.936 212.325 219.086 212.933 219.086 213.584C219.086 213.701 219.08 213.819 219.07 213.936C219.07 214.053 219.07 214.187 219.07 214.336H212.75C212.782 214.944 212.92 215.451 213.166 215.856C213.422 216.251 213.736 216.549 214.11 216.752C214.494 216.955 214.899 217.056 215.326 217.056C215.88 217.056 216.344 216.928 216.718 216.672C217.091 216.416 217.363 216.069 217.534 215.632H218.862C218.648 216.368 218.238 216.981 217.63 217.472C217.032 217.952 216.264 218.192 215.326 218.192ZM215.326 211.008C214.686 211.008 214.115 211.205 213.614 211.6C213.123 211.984 212.84 212.549 212.766 213.296H217.758C217.726 212.581 217.48 212.021 217.022 211.616C216.563 211.211 215.998 211.008 215.326 211.008ZM223.987 218.192C223.038 218.192 222.248 217.952 221.619 217.472C220.99 216.992 220.622 216.341 220.515 215.52H221.891C221.976 215.936 222.195 216.299 222.547 216.608C222.91 216.907 223.395 217.056 224.003 217.056C224.568 217.056 224.984 216.939 225.251 216.704C225.518 216.459 225.651 216.171 225.651 215.84C225.651 215.36 225.475 215.04 225.123 214.88C224.782 214.72 224.296 214.576 223.667 214.448C223.24 214.363 222.814 214.24 222.387 214.08C221.96 213.92 221.603 213.696 221.315 213.408C221.027 213.109 220.883 212.72 220.883 212.24C220.883 211.547 221.139 210.981 221.651 210.544C222.174 210.096 222.878 209.872 223.763 209.872C224.606 209.872 225.294 210.085 225.827 210.512C226.371 210.928 226.686 211.525 226.771 212.304H225.443C225.39 211.899 225.214 211.584 224.915 211.36C224.627 211.125 224.238 211.008 223.747 211.008C223.267 211.008 222.894 211.109 222.627 211.312C222.371 211.515 222.243 211.781 222.243 212.112C222.243 212.432 222.408 212.683 222.739 212.864C223.08 213.045 223.539 213.2 224.115 213.328C224.606 213.435 225.07 213.568 225.507 213.728C225.955 213.877 226.318 214.107 226.595 214.416C226.883 214.715 227.027 215.152 227.027 215.728C227.038 216.443 226.766 217.035 226.211 217.504C225.667 217.963 224.926 218.192 223.987 218.192ZM229.027 221.52V210.064H230.243L230.371 211.376C230.627 210.992 230.99 210.645 231.459 210.336C231.939 210.027 232.547 209.872 233.283 209.872C234.072 209.872 234.76 210.053 235.347 210.416C235.934 210.779 236.387 211.275 236.707 211.904C237.038 212.533 237.203 213.248 237.203 214.048C237.203 214.848 237.038 215.563 236.707 216.192C236.387 216.811 235.928 217.301 235.331 217.664C234.744 218.016 234.056 218.192 233.267 218.192C232.616 218.192 232.035 218.059 231.523 217.792C231.022 217.525 230.638 217.152 230.371 216.672V221.52H229.027ZM233.123 217.024C233.656 217.024 234.126 216.901 234.531 216.656C234.936 216.4 235.256 216.048 235.491 215.6C235.726 215.152 235.843 214.629 235.843 214.032C235.843 213.435 235.726 212.912 235.491 212.464C235.256 212.016 234.936 211.669 234.531 211.424C234.126 211.168 233.656 211.04 233.123 211.04C232.59 211.04 232.12 211.168 231.715 211.424C231.31 211.669 230.99 212.016 230.755 212.464C230.52 212.912 230.403 213.435 230.403 214.032C230.403 214.629 230.52 215.152 230.755 215.6C230.99 216.048 231.31 216.4 231.715 216.656C232.12 216.901 232.59 217.024 233.123 217.024ZM242.722 218.192C241.965 218.192 241.293 218.021 240.706 217.68C240.119 217.328 239.655 216.843 239.314 216.224C238.983 215.605 238.818 214.875 238.818 214.032C238.818 213.2 238.983 212.475 239.314 211.856C239.645 211.227 240.103 210.741 240.69 210.4C241.287 210.048 241.975 209.872 242.754 209.872C243.522 209.872 244.183 210.048 244.738 210.4C245.303 210.741 245.735 211.195 246.034 211.76C246.333 212.325 246.482 212.933 246.482 213.584C246.482 213.701 246.477 213.819 246.466 213.936C246.466 214.053 246.466 214.187 246.466 214.336H240.146C240.178 214.944 240.317 215.451 240.562 215.856C240.818 216.251 241.133 216.549 241.506 216.752C241.89 216.955 242.295 217.056 242.722 217.056C243.277 217.056 243.741 216.928 244.114 216.672C244.487 216.416 244.759 216.069 244.93 215.632H246.258C246.045 216.368 245.634 216.981 245.026 217.472C244.429 217.952 243.661 218.192 242.722 218.192ZM242.722 211.008C242.082 211.008 241.511 211.205 241.01 211.6C240.519 211.984 240.237 212.549 240.162 213.296H245.154C245.122 212.581 244.877 212.021 244.418 211.616C243.959 211.211 243.394 211.008 242.722 211.008ZM251.991 218.192C251.234 218.192 250.551 218.021 249.943 217.68C249.346 217.328 248.871 216.843 248.519 216.224C248.178 215.595 248.007 214.864 248.007 214.032C248.007 213.2 248.178 212.475 248.519 211.856C248.871 211.227 249.346 210.741 249.943 210.4C250.551 210.048 251.234 209.872 251.991 209.872C252.93 209.872 253.719 210.117 254.359 210.608C255.01 211.099 255.421 211.755 255.591 212.576H254.215C254.109 212.085 253.847 211.707 253.431 211.44C253.015 211.163 252.53 211.024 251.975 211.024C251.527 211.024 251.106 211.136 250.711 211.36C250.317 211.584 249.997 211.92 249.751 212.368C249.506 212.816 249.383 213.371 249.383 214.032C249.383 214.693 249.506 215.248 249.751 215.696C249.997 216.144 250.317 216.485 250.711 216.72C251.106 216.944 251.527 217.056 251.975 217.056C252.53 217.056 253.015 216.923 253.431 216.656C253.847 216.379 254.109 215.989 254.215 215.488H255.591C255.431 216.288 255.026 216.939 254.375 217.44C253.725 217.941 252.93 218.192 251.991 218.192ZM260.466 218C259.74 218 259.17 217.824 258.754 217.472C258.338 217.12 258.13 216.485 258.13 215.568V211.2H256.754V210.064H258.13L258.306 208.16H259.474V210.064H261.81V211.2H259.474V215.568C259.474 216.069 259.575 216.411 259.778 216.592C259.98 216.763 260.338 216.848 260.85 216.848H261.682V218H260.466ZM263.353 219.904L264.281 216.368H265.673L264.281 219.904H263.353ZM36.845 229.304C36.5783 229.304 36.3543 229.219 36.173 229.048C36.0023 228.867 35.917 228.643 35.917 228.376C35.917 228.12 36.0023 227.907 36.173 227.736C36.3543 227.565 36.5783 227.48 36.845 227.48C37.101 227.48 37.3197 227.565 37.501 227.736C37.6823 227.907 37.773 228.12 37.773 228.376C37.773 228.643 37.6823 228.867 37.501 229.048C37.3197 229.219 37.101 229.304 36.845 229.304ZM36.173 239V231.064H37.517V239H36.173ZM39.9371 239V231.064H41.1531L41.2331 232.488C41.4891 231.987 41.8571 231.592 42.3371 231.304C42.8171 231.016 43.3611 230.872 43.9691 230.872C44.9078 230.872 45.6545 231.16 46.2091 231.736C46.7745 232.301 47.0571 233.176 47.0571 234.36V239H45.7131V234.504C45.7131 232.851 45.0305 232.024 43.6651 232.024C42.9825 232.024 42.4118 232.275 41.9531 232.776C41.5051 233.267 41.2811 233.971 41.2811 234.888V239H39.9371ZM52.3094 239C51.584 239 51.0134 238.824 50.5974 238.472C50.1814 238.12 49.9734 237.485 49.9734 236.568V232.2H48.5974V231.064H49.9734L50.1494 229.16H51.3174V231.064H53.6534V232.2H51.3174V236.568C51.3174 237.069 51.4187 237.411 51.6214 237.592C51.824 237.763 52.1814 237.848 52.6934 237.848H53.5254V239H52.3094ZM58.7901 239.192C58.0328 239.192 57.3608 239.021 56.7741 238.68C56.1875 238.328 55.7235 237.843 55.3821 237.224C55.0515 236.605 54.8861 235.875 54.8861 235.032C54.8861 234.2 55.0515 233.475 55.3821 232.856C55.7128 232.227 56.1715 231.741 56.7581 231.4C57.3555 231.048 58.0435 230.872 58.8221 230.872C59.5901 230.872 60.2515 231.048 60.8061 231.4C61.3715 231.741 61.8035 232.195 62.1021 232.76C62.4008 233.325 62.5501 233.933 62.5501 234.584C62.5501 234.701 62.5448 234.819 62.5341 234.936C62.5341 235.053 62.5341 235.187 62.5341 235.336H56.2141C56.2461 235.944 56.3848 236.451 56.6301 236.856C56.8861 237.251 57.2008 237.549 57.5741 237.752C57.9581 237.955 58.3635 238.056 58.7901 238.056C59.3448 238.056 59.8088 237.928 60.1821 237.672C60.5555 237.416 60.8275 237.069 60.9981 236.632H62.3261C62.1128 237.368 61.7021 237.981 61.0941 238.472C60.4968 238.952 59.7288 239.192 58.7901 239.192ZM58.7901 232.008C58.1501 232.008 57.5795 232.205 57.0781 232.6C56.5875 232.984 56.3048 233.549 56.2301 234.296H61.2221C61.1901 233.581 60.9448 233.021 60.4861 232.616C60.0275 232.211 59.4621 232.008 58.7901 232.008ZM67.5006 236.504C67.0526 236.504 66.642 236.445 66.2686 236.328L65.4686 237.08C65.586 237.165 65.73 237.24 65.9006 237.304C66.082 237.357 66.338 237.411 66.6686 237.464C66.9993 237.507 67.4633 237.555 68.0606 237.608C69.1273 237.683 69.89 237.928 70.3486 238.344C70.8073 238.76 71.0366 239.304 71.0366 239.976C71.0366 240.435 70.9086 240.872 70.6526 241.288C70.4073 241.704 70.0233 242.045 69.5006 242.312C68.9886 242.579 68.3273 242.712 67.5166 242.712C66.802 242.712 66.1673 242.616 65.6126 242.424C65.058 242.243 64.626 241.96 64.3166 241.576C64.0073 241.203 63.8526 240.728 63.8526 240.152C63.8526 239.853 63.9326 239.528 64.0926 239.176C64.2526 238.835 64.5513 238.509 64.9886 238.2C64.754 238.104 64.5513 238.003 64.3806 237.896C64.2206 237.779 64.0713 237.651 63.9326 237.512V237.144L65.2926 235.8C64.6633 235.267 64.3486 234.563 64.3486 233.688C64.3486 233.165 64.4713 232.691 64.7166 232.264C64.962 231.837 65.3193 231.501 65.7886 231.256C66.258 231 66.8286 230.872 67.5006 230.872C67.9593 230.872 68.3753 230.936 68.7486 231.064H71.6766V232.072L70.1886 232.136C70.498 232.584 70.6526 233.101 70.6526 233.688C70.6526 234.211 70.5246 234.685 70.2686 235.112C70.0233 235.539 69.666 235.88 69.1966 236.136C68.738 236.381 68.1726 236.504 67.5006 236.504ZM67.5006 235.4C68.066 235.4 68.514 235.256 68.8446 234.968C69.186 234.669 69.3566 234.243 69.3566 233.688C69.3566 233.144 69.186 232.728 68.8446 232.44C68.514 232.141 68.066 231.992 67.5006 231.992C66.9246 231.992 66.466 232.141 66.1246 232.44C65.794 232.728 65.6286 233.144 65.6286 233.688C65.6286 234.243 65.794 234.669 66.1246 234.968C66.466 235.256 66.9246 235.4 67.5006 235.4ZM65.1646 240.024C65.1646 240.557 65.3886 240.952 65.8366 241.208C66.2846 241.475 66.8446 241.608 67.5166 241.608C68.178 241.608 68.706 241.464 69.1006 241.176C69.506 240.888 69.7086 240.504 69.7086 240.024C69.7086 239.683 69.57 239.384 69.2926 239.128C69.0153 238.883 68.5033 238.739 67.7566 238.696C67.17 238.653 66.6633 238.6 66.2366 238.536C65.7993 238.771 65.5113 239.021 65.3726 239.288C65.234 239.565 65.1646 239.811 65.1646 240.024ZM73.2728 239V231.064H74.4888L74.6008 232.584C74.8461 232.061 75.2194 231.645 75.7208 231.336C76.2221 231.027 76.8408 230.872 77.5768 230.872V232.28H77.2088C76.7394 232.28 76.3074 232.365 75.9128 232.536C75.5181 232.696 75.2034 232.973 74.9688 233.368C74.7341 233.763 74.6168 234.307 74.6168 235V239H73.2728ZM79.9813 229.304C79.7146 229.304 79.4906 229.219 79.3093 229.048C79.1386 228.867 79.0533 228.643 79.0533 228.376C79.0533 228.12 79.1386 227.907 79.3093 227.736C79.4906 227.565 79.7146 227.48 79.9813 227.48C80.2373 227.48 80.4559 227.565 80.6373 227.736C80.8186 227.907 80.9093 228.12 80.9093 228.376C80.9093 228.643 80.8186 228.867 80.6373 229.048C80.4559 229.219 80.2373 229.304 79.9813 229.304ZM79.3093 239V231.064H80.6533V239H79.3093ZM86.2094 239C85.484 239 84.9134 238.824 84.4974 238.472C84.0814 238.12 83.8734 237.485 83.8734 236.568V232.2H82.4974V231.064H83.8734L84.0494 229.16H85.2174V231.064H87.5534V232.2H85.2174V236.568C85.2174 237.069 85.3187 237.411 85.5214 237.592C85.724 237.763 86.0814 237.848 86.5934 237.848H87.4254V239H86.2094ZM90.2049 242.52L92.1729 238.232H91.7089L88.5569 231.064H90.0129L92.6369 237.24L95.4209 231.064H96.8129L91.6129 242.52H90.2049ZM96.2708 240.904L97.1988 237.368H98.5908L97.1988 240.904H96.2708ZM108.229 239.192C107.472 239.192 106.789 239.021 106.181 238.68C105.584 238.328 105.109 237.843 104.757 237.224C104.416 236.595 104.245 235.864 104.245 235.032C104.245 234.2 104.416 233.475 104.757 232.856C105.109 232.227 105.584 231.741 106.181 231.4C106.789 231.048 107.472 230.872 108.229 230.872C109.168 230.872 109.957 231.117 110.597 231.608C111.248 232.099 111.658 232.755 111.829 233.576H110.453C110.346 233.085 110.085 232.707 109.669 232.44C109.253 232.163 108.768 232.024 108.213 232.024C107.765 232.024 107.344 232.136 106.949 232.36C106.554 232.584 106.234 232.92 105.989 233.368C105.744 233.816 105.621 234.371 105.621 235.032C105.621 235.693 105.744 236.248 105.989 236.696C106.234 237.144 106.554 237.485 106.949 237.72C107.344 237.944 107.765 238.056 108.213 238.056C108.768 238.056 109.253 237.923 109.669 237.656C110.085 237.379 110.346 236.989 110.453 236.488H111.829C111.669 237.288 111.264 237.939 110.613 238.44C109.962 238.941 109.168 239.192 108.229 239.192ZM117.402 239.192C116.655 239.192 115.983 239.021 115.386 238.68C114.789 238.339 114.314 237.859 113.962 237.24C113.621 236.611 113.45 235.875 113.45 235.032C113.45 234.189 113.626 233.459 113.978 232.84C114.33 232.211 114.805 231.725 115.402 231.384C116.01 231.043 116.687 230.872 117.434 230.872C118.181 230.872 118.853 231.043 119.45 231.384C120.047 231.725 120.517 232.211 120.858 232.84C121.21 233.459 121.386 234.189 121.386 235.032C121.386 235.875 121.21 236.611 120.858 237.24C120.506 237.859 120.026 238.339 119.418 238.68C118.821 239.021 118.149 239.192 117.402 239.192ZM117.402 238.04C117.861 238.04 118.287 237.928 118.682 237.704C119.077 237.48 119.397 237.144 119.642 236.696C119.887 236.248 120.01 235.693 120.01 235.032C120.01 234.371 119.887 233.816 119.642 233.368C119.407 232.92 119.093 232.584 118.698 232.36C118.303 232.136 117.882 232.024 117.434 232.024C116.975 232.024 116.549 232.136 116.154 232.36C115.759 232.584 115.439 232.92 115.194 233.368C114.949 233.816 114.826 234.371 114.826 235.032C114.826 235.693 114.949 236.248 115.194 236.696C115.439 237.144 115.754 237.48 116.138 237.704C116.533 237.928 116.954 238.04 117.402 238.04ZM126.231 239.192C125.292 239.192 124.545 238.909 123.991 238.344C123.436 237.768 123.159 236.888 123.159 235.704V231.064H124.503V235.56C124.503 237.213 125.18 238.04 126.535 238.04C127.228 238.04 127.799 237.795 128.247 237.304C128.705 236.803 128.935 236.093 128.935 235.176V231.064H130.279V239H129.063L128.967 237.576C128.721 238.077 128.353 238.472 127.863 238.76C127.383 239.048 126.839 239.192 126.231 239.192ZM132.571 239V231.064H133.787L133.899 232.584C134.144 232.061 134.518 231.645 135.019 231.336C135.52 231.027 136.139 230.872 136.875 230.872V232.28H136.507C136.038 232.28 135.606 232.365 135.211 232.536C134.816 232.696 134.502 232.973 134.267 233.368C134.032 233.763 133.915 234.307 133.915 235V239H132.571ZM141.103 239.192C140.442 239.192 139.893 239.08 139.455 238.856C139.018 238.632 138.693 238.333 138.479 237.96C138.266 237.587 138.159 237.181 138.159 236.744C138.159 235.933 138.469 235.309 139.087 234.872C139.706 234.435 140.549 234.216 141.615 234.216H143.759V234.12C143.759 233.427 143.578 232.904 143.215 232.552C142.853 232.189 142.367 232.008 141.759 232.008C141.237 232.008 140.783 232.141 140.399 232.408C140.026 232.664 139.791 233.043 139.695 233.544H138.319C138.373 232.968 138.565 232.483 138.895 232.088C139.237 231.693 139.658 231.395 140.159 231.192C140.661 230.979 141.194 230.872 141.759 230.872C142.869 230.872 143.701 231.171 144.255 231.768C144.821 232.355 145.103 233.139 145.103 234.12V239H143.903L143.823 237.576C143.599 238.024 143.269 238.408 142.831 238.728C142.405 239.037 141.829 239.192 141.103 239.192ZM141.311 238.056C141.823 238.056 142.261 237.923 142.623 237.656C142.997 237.389 143.279 237.043 143.471 236.616C143.663 236.189 143.759 235.741 143.759 235.272V235.256H141.727C140.938 235.256 140.378 235.395 140.047 235.672C139.727 235.939 139.567 236.275 139.567 236.68C139.567 237.096 139.717 237.432 140.015 237.688C140.325 237.933 140.757 238.056 141.311 238.056ZM150.336 236.504C149.888 236.504 149.477 236.445 149.104 236.328L148.304 237.08C148.421 237.165 148.565 237.24 148.736 237.304C148.917 237.357 149.173 237.411 149.504 237.464C149.834 237.507 150.298 237.555 150.896 237.608C151.962 237.683 152.725 237.928 153.184 238.344C153.642 238.76 153.872 239.304 153.872 239.976C153.872 240.435 153.744 240.872 153.488 241.288C153.242 241.704 152.858 242.045 152.336 242.312C151.824 242.579 151.162 242.712 150.352 242.712C149.637 242.712 149.002 242.616 148.448 242.424C147.893 242.243 147.461 241.96 147.152 241.576C146.842 241.203 146.688 240.728 146.688 240.152C146.688 239.853 146.768 239.528 146.928 239.176C147.088 238.835 147.386 238.509 147.824 238.2C147.589 238.104 147.386 238.003 147.216 237.896C147.056 237.779 146.906 237.651 146.768 237.512V237.144L148.128 235.8C147.498 235.267 147.184 234.563 147.184 233.688C147.184 233.165 147.306 232.691 147.552 232.264C147.797 231.837 148.154 231.501 148.624 231.256C149.093 231 149.664 230.872 150.336 230.872C150.794 230.872 151.21 230.936 151.584 231.064H154.512V232.072L153.024 232.136C153.333 232.584 153.488 233.101 153.488 233.688C153.488 234.211 153.36 234.685 153.104 235.112C152.858 235.539 152.501 235.88 152.032 236.136C151.573 236.381 151.008 236.504 150.336 236.504ZM150.336 235.4C150.901 235.4 151.349 235.256 151.68 234.968C152.021 234.669 152.192 234.243 152.192 233.688C152.192 233.144 152.021 232.728 151.68 232.44C151.349 232.141 150.901 231.992 150.336 231.992C149.76 231.992 149.301 232.141 148.96 232.44C148.629 232.728 148.464 233.144 148.464 233.688C148.464 234.243 148.629 234.669 148.96 234.968C149.301 235.256 149.76 235.4 150.336 235.4ZM148 240.024C148 240.557 148.224 240.952 148.672 241.208C149.12 241.475 149.68 241.608 150.352 241.608C151.013 241.608 151.541 241.464 151.936 241.176C152.341 240.888 152.544 240.504 152.544 240.024C152.544 239.683 152.405 239.384 152.128 239.128C151.85 238.883 151.338 238.739 150.592 238.696C150.005 238.653 149.498 238.6 149.072 238.536C148.634 238.771 148.346 239.021 148.208 239.288C148.069 239.565 148 239.811 148 240.024ZM159.363 239.192C158.606 239.192 157.934 239.021 157.347 238.68C156.761 238.328 156.297 237.843 155.955 237.224C155.625 236.605 155.459 235.875 155.459 235.032C155.459 234.2 155.625 233.475 155.955 232.856C156.286 232.227 156.745 231.741 157.331 231.4C157.929 231.048 158.617 230.872 159.395 230.872C160.163 230.872 160.825 231.048 161.379 231.4C161.945 231.741 162.377 232.195 162.675 232.76C162.974 233.325 163.123 233.933 163.123 234.584C163.123 234.701 163.118 234.819 163.107 234.936C163.107 235.053 163.107 235.187 163.107 235.336H156.787C156.819 235.944 156.958 236.451 157.203 236.856C157.459 237.251 157.774 237.549 158.147 237.752C158.531 237.955 158.937 238.056 159.363 238.056C159.918 238.056 160.382 237.928 160.755 237.672C161.129 237.416 161.401 237.069 161.571 236.632H162.899C162.686 237.368 162.275 237.981 161.667 238.472C161.07 238.952 160.302 239.192 159.363 239.192ZM159.363 232.008C158.723 232.008 158.153 232.205 157.651 232.6C157.161 232.984 156.878 233.549 156.803 234.296H161.795C161.763 233.581 161.518 233.021 161.059 232.616C160.601 232.211 160.035 232.008 159.363 232.008ZM171.939 239.192C171.278 239.192 170.728 239.08 170.291 238.856C169.854 238.632 169.528 238.333 169.315 237.96C169.102 237.587 168.995 237.181 168.995 236.744C168.995 235.933 169.304 235.309 169.923 234.872C170.542 234.435 171.384 234.216 172.451 234.216H174.595V234.12C174.595 233.427 174.414 232.904 174.051 232.552C173.688 232.189 173.203 232.008 172.595 232.008C172.072 232.008 171.619 232.141 171.235 232.408C170.862 232.664 170.627 233.043 170.531 233.544H169.155C169.208 232.968 169.4 232.483 169.731 232.088C170.072 231.693 170.494 231.395 170.995 231.192C171.496 230.979 172.03 230.872 172.595 230.872C173.704 230.872 174.536 231.171 175.091 231.768C175.656 232.355 175.939 233.139 175.939 234.12V239H174.739L174.659 237.576C174.435 238.024 174.104 238.408 173.667 238.728C173.24 239.037 172.664 239.192 171.939 239.192ZM172.147 238.056C172.659 238.056 173.096 237.923 173.459 237.656C173.832 237.389 174.115 237.043 174.307 236.616C174.499 236.189 174.595 235.741 174.595 235.272V235.256H172.563C171.774 235.256 171.214 235.395 170.883 235.672C170.563 235.939 170.403 236.275 170.403 236.68C170.403 237.096 170.552 237.432 170.851 237.688C171.16 237.933 171.592 238.056 172.147 238.056ZM178.035 239V231.064H179.251L179.331 232.488C179.587 231.987 179.955 231.592 180.435 231.304C180.915 231.016 181.459 230.872 182.067 230.872C183.006 230.872 183.753 231.16 184.307 231.736C184.873 232.301 185.155 233.176 185.155 234.36V239H183.811V234.504C183.811 232.851 183.129 232.024 181.763 232.024C181.081 232.024 180.51 232.275 180.051 232.776C179.603 233.267 179.379 233.971 179.379 234.888V239H178.035ZM190.871 239.192C190.082 239.192 189.389 239.011 188.791 238.648C188.205 238.285 187.746 237.789 187.415 237.16C187.095 236.531 186.935 235.816 186.935 235.016C186.935 234.216 187.101 233.507 187.431 232.888C187.762 232.259 188.221 231.768 188.807 231.416C189.394 231.053 190.087 230.872 190.887 230.872C191.538 230.872 192.114 231.005 192.615 231.272C193.117 231.539 193.506 231.912 193.783 232.392V227.48H195.127V239H193.911L193.783 237.688C193.527 238.072 193.159 238.419 192.679 238.728C192.199 239.037 191.597 239.192 190.871 239.192ZM191.015 238.024C191.549 238.024 192.018 237.901 192.423 237.656C192.839 237.4 193.159 237.048 193.383 236.6C193.618 236.152 193.735 235.629 193.735 235.032C193.735 234.435 193.618 233.912 193.383 233.464C193.159 233.016 192.839 232.669 192.423 232.424C192.018 232.168 191.549 232.04 191.015 232.04C190.493 232.04 190.023 232.168 189.607 232.424C189.202 232.669 188.882 233.016 188.647 233.464C188.423 233.912 188.311 234.435 188.311 235.032C188.311 235.629 188.423 236.152 188.647 236.6C188.882 237.048 189.202 237.4 189.607 237.656C190.023 237.901 190.493 238.024 191.015 238.024ZM205.361 239.192C204.603 239.192 203.921 239.021 203.313 238.68C202.715 238.328 202.241 237.843 201.889 237.224C201.547 236.595 201.377 235.864 201.377 235.032C201.377 234.2 201.547 233.475 201.889 232.856C202.241 232.227 202.715 231.741 203.313 231.4C203.921 231.048 204.603 230.872 205.361 230.872C206.299 230.872 207.089 231.117 207.729 231.608C208.379 232.099 208.79 232.755 208.961 233.576H207.585C207.478 233.085 207.217 232.707 206.801 232.44C206.385 232.163 205.899 232.024 205.345 232.024C204.897 232.024 204.475 232.136 204.081 232.36C203.686 232.584 203.366 232.92 203.121 233.368C202.875 233.816 202.753 234.371 202.753 235.032C202.753 235.693 202.875 236.248 203.121 236.696C203.366 237.144 203.686 237.485 204.081 237.72C204.475 237.944 204.897 238.056 205.345 238.056C205.899 238.056 206.385 237.923 206.801 237.656C207.217 237.379 207.478 236.989 207.585 236.488H208.961C208.801 237.288 208.395 237.939 207.745 238.44C207.094 238.941 206.299 239.192 205.361 239.192ZM213.558 239.192C212.896 239.192 212.347 239.08 211.91 238.856C211.472 238.632 211.147 238.333 210.934 237.96C210.72 237.587 210.614 237.181 210.614 236.744C210.614 235.933 210.923 235.309 211.542 234.872C212.16 234.435 213.003 234.216 214.07 234.216H216.214V234.12C216.214 233.427 216.032 232.904 215.67 232.552C215.307 232.189 214.822 232.008 214.214 232.008C213.691 232.008 213.238 232.141 212.854 232.408C212.48 232.664 212.246 233.043 212.15 233.544H210.774C210.827 232.968 211.019 232.483 211.35 232.088C211.691 231.693 212.112 231.395 212.614 231.192C213.115 230.979 213.648 230.872 214.214 230.872C215.323 230.872 216.155 231.171 216.71 231.768C217.275 232.355 217.558 233.139 217.558 234.12V239H216.358L216.278 237.576C216.054 238.024 215.723 238.408 215.286 238.728C214.859 239.037 214.283 239.192 213.558 239.192ZM213.766 238.056C214.278 238.056 214.715 237.923 215.078 237.656C215.451 237.389 215.734 237.043 215.926 236.616C216.118 236.189 216.214 235.741 216.214 235.272V235.256H214.182C213.392 235.256 212.832 235.395 212.502 235.672C212.182 235.939 212.022 236.275 212.022 236.68C212.022 237.096 212.171 237.432 212.47 237.688C212.779 237.933 213.211 238.056 213.766 238.056ZM219.654 239V231.064H220.87L220.95 232.488C221.206 231.987 221.574 231.592 222.054 231.304C222.534 231.016 223.078 230.872 223.686 230.872C224.625 230.872 225.371 231.16 225.926 231.736C226.491 232.301 226.774 233.176 226.774 234.36V239H225.43V234.504C225.43 232.851 224.747 232.024 223.382 232.024C222.699 232.024 222.129 232.275 221.67 232.776C221.222 233.267 220.998 233.971 220.998 234.888V239H219.654ZM232.49 239.192C231.701 239.192 231.008 239.011 230.41 238.648C229.824 238.285 229.365 237.789 229.034 237.16C228.714 236.531 228.554 235.816 228.554 235.016C228.554 234.216 228.72 233.507 229.05 232.888C229.381 232.259 229.84 231.768 230.426 231.416C231.013 231.053 231.706 230.872 232.506 230.872C233.157 230.872 233.733 231.005 234.234 231.272C234.736 231.539 235.125 231.912 235.402 232.392V227.48H236.746V239H235.53L235.402 237.688C235.146 238.072 234.778 238.419 234.298 238.728C233.818 239.037 233.216 239.192 232.49 239.192ZM232.634 238.024C233.168 238.024 233.637 237.901 234.042 237.656C234.458 237.4 234.778 237.048 235.002 236.6C235.237 236.152 235.354 235.629 235.354 235.032C235.354 234.435 235.237 233.912 235.002 233.464C234.778 233.016 234.458 232.669 234.042 232.424C233.637 232.168 233.168 232.04 232.634 232.04C232.112 232.04 231.642 232.168 231.226 232.424C230.821 232.669 230.501 233.016 230.266 233.464C230.042 233.912 229.93 234.435 229.93 235.032C229.93 235.629 230.042 236.152 230.266 236.6C230.501 237.048 230.821 237.4 231.226 237.656C231.642 237.901 232.112 238.024 232.634 238.024ZM242.633 239.192C241.886 239.192 241.214 239.021 240.617 238.68C240.02 238.339 239.545 237.859 239.193 237.24C238.852 236.611 238.681 235.875 238.681 235.032C238.681 234.189 238.857 233.459 239.209 232.84C239.561 232.211 240.036 231.725 240.633 231.384C241.241 231.043 241.918 230.872 242.665 230.872C243.412 230.872 244.084 231.043 244.681 231.384C245.278 231.725 245.748 232.211 246.089 232.84C246.441 233.459 246.617 234.189 246.617 235.032C246.617 235.875 246.441 236.611 246.089 237.24C245.737 237.859 245.257 238.339 244.649 238.68C244.052 239.021 243.38 239.192 242.633 239.192ZM242.633 238.04C243.092 238.04 243.518 237.928 243.913 237.704C244.308 237.48 244.628 237.144 244.873 236.696C245.118 236.248 245.241 235.693 245.241 235.032C245.241 234.371 245.118 233.816 244.873 233.368C244.638 232.92 244.324 232.584 243.929 232.36C243.534 232.136 243.113 232.024 242.665 232.024C242.206 232.024 241.78 232.136 241.385 232.36C240.99 232.584 240.67 232.92 240.425 233.368C240.18 233.816 240.057 234.371 240.057 235.032C240.057 235.693 240.18 236.248 240.425 236.696C240.67 237.144 240.985 237.48 241.369 237.704C241.764 237.928 242.185 238.04 242.633 238.04ZM251.462 239.192C250.523 239.192 249.777 238.909 249.222 238.344C248.667 237.768 248.39 236.888 248.39 235.704V231.064H249.734V235.56C249.734 237.213 250.411 238.04 251.766 238.04C252.459 238.04 253.03 237.795 253.478 237.304C253.937 236.803 254.166 236.093 254.166 235.176V231.064H255.51V239H254.294L254.198 237.576C253.953 238.077 253.585 238.472 253.094 238.76C252.614 239.048 252.07 239.192 251.462 239.192ZM257.802 239V231.064H259.018L259.13 232.584C259.375 232.061 259.749 231.645 260.25 231.336C260.751 231.027 261.37 230.872 262.106 230.872V232.28H261.738C261.269 232.28 260.837 232.365 260.442 232.536C260.047 232.696 259.733 232.973 259.498 233.368C259.263 233.763 259.146 234.307 259.146 235V239H257.802ZM263.518 239.08C263.251 239.08 263.027 238.995 262.846 238.824C262.675 238.643 262.59 238.424 262.59 238.168C262.59 237.912 262.675 237.699 262.846 237.528C263.027 237.347 263.251 237.256 263.518 237.256C263.774 237.256 263.987 237.347 264.158 237.528C264.339 237.699 264.43 237.912 264.43 238.168C264.43 238.424 264.339 238.643 264.158 238.824C263.987 238.995 263.774 239.08 263.518 239.08Z" fill="#3D3D3D"/>
</svg>
