<svg width="300" height="300" viewBox="0 0 300 300" fill="none" xmlns="http://www.w3.org/2000/svg">
<circle cx="150" cy="89" r="36.5" fill="#0077B5"/>
<circle cx="150" cy="89" r="44.5" fill="#0077B5" fill-opacity="0.1"/>
<path d="M163.025 79.0305C162.301 78.3066 161.442 77.7323 160.496 77.3405C159.551 76.9487 158.537 76.7471 157.514 76.7471C156.49 76.7471 155.477 76.9487 154.531 77.3405C153.586 77.7323 152.727 78.3066 152.003 79.0305L150.501 80.5322L149 79.0305C147.538 77.5689 145.556 76.7478 143.489 76.7478C141.422 76.7478 139.44 77.5689 137.978 79.0305C136.516 80.4921 135.695 82.4744 135.695 84.5413C135.695 86.6083 136.516 88.5906 137.978 90.0522L139.48 91.5538L150.501 102.575L161.523 91.5538L163.025 90.0522C163.749 89.3286 164.323 88.4695 164.715 87.5239C165.106 86.5783 165.308 85.5648 165.308 84.5413C165.308 83.5178 165.106 82.5043 164.715 81.5587C164.323 80.6132 163.749 79.7541 163.025 79.0305V79.0305Z" stroke="white" stroke-width="2" stroke-linecap="round" stroke-linejoin="round"/>
<path d="M107.405 171.5V154.7H113.621C114.965 154.7 116.077 154.924 116.957 155.372C117.837 155.82 118.493 156.436 118.925 157.22C119.357 158.004 119.573 158.884 119.573 159.86C119.573 160.788 119.365 161.644 118.949 162.428C118.533 163.196 117.885 163.82 117.005 164.3C116.125 164.764 114.997 164.996 113.621 164.996H110.477V171.5H107.405ZM110.477 162.5H113.429C114.501 162.5 115.269 162.268 115.733 161.804C116.213 161.324 116.453 160.676 116.453 159.86C116.453 159.028 116.213 158.38 115.733 157.916C115.269 157.436 114.501 157.196 113.429 157.196H110.477V162.5ZM125.266 171.788C124.242 171.788 123.402 171.628 122.746 171.308C122.09 170.972 121.602 170.532 121.282 169.988C120.962 169.444 120.802 168.844 120.802 168.188C120.802 167.084 121.234 166.188 122.098 165.5C122.962 164.812 124.258 164.468 125.986 164.468H129.01V164.18C129.01 163.364 128.778 162.764 128.314 162.38C127.85 161.996 127.274 161.804 126.586 161.804C125.962 161.804 125.418 161.956 124.954 162.26C124.49 162.548 124.202 162.98 124.09 163.556H121.09C121.17 162.692 121.458 161.94 121.954 161.3C122.466 160.66 123.122 160.172 123.922 159.836C124.722 159.484 125.618 159.308 126.61 159.308C128.306 159.308 129.642 159.732 130.618 160.58C131.594 161.428 132.082 162.628 132.082 164.18V171.5H129.466L129.178 169.58C128.826 170.22 128.33 170.748 127.69 171.164C127.066 171.58 126.258 171.788 125.266 171.788ZM125.962 169.388C126.842 169.388 127.522 169.1 128.002 168.524C128.498 167.948 128.81 167.236 128.938 166.388H126.322C125.506 166.388 124.922 166.54 124.57 166.844C124.218 167.132 124.042 167.492 124.042 167.924C124.042 168.388 124.218 168.748 124.57 169.004C124.922 169.26 125.386 169.388 125.962 169.388ZM139.933 171.788C138.877 171.788 137.949 171.62 137.149 171.284C136.349 170.932 135.709 170.452 135.229 169.844C134.749 169.236 134.461 168.532 134.365 167.732H137.461C137.557 168.196 137.813 168.596 138.229 168.932C138.661 169.252 139.213 169.412 139.885 169.412C140.557 169.412 141.045 169.276 141.349 169.004C141.669 168.732 141.829 168.42 141.829 168.068C141.829 167.556 141.605 167.212 141.157 167.036C140.709 166.844 140.085 166.66 139.285 166.484C138.773 166.372 138.253 166.236 137.725 166.076C137.197 165.916 136.709 165.716 136.261 165.476C135.829 165.22 135.477 164.9 135.205 164.516C134.933 164.116 134.797 163.628 134.797 163.052C134.797 161.996 135.213 161.108 136.045 160.388C136.893 159.668 138.077 159.308 139.597 159.308C141.005 159.308 142.125 159.636 142.957 160.292C143.805 160.948 144.309 161.852 144.469 163.004H141.565C141.389 162.124 140.725 161.684 139.573 161.684C138.997 161.684 138.549 161.796 138.229 162.02C137.925 162.244 137.773 162.524 137.773 162.86C137.773 163.212 138.005 163.492 138.469 163.7C138.933 163.908 139.549 164.1 140.317 164.276C141.149 164.468 141.909 164.684 142.597 164.924C143.301 165.148 143.861 165.492 144.277 165.956C144.693 166.404 144.901 167.052 144.901 167.9C144.917 168.636 144.725 169.3 144.325 169.892C143.925 170.484 143.349 170.948 142.597 171.284C141.845 171.62 140.957 171.788 139.933 171.788ZM152.543 171.788C151.487 171.788 150.559 171.62 149.759 171.284C148.959 170.932 148.319 170.452 147.839 169.844C147.359 169.236 147.071 168.532 146.975 167.732H150.071C150.167 168.196 150.423 168.596 150.839 168.932C151.271 169.252 151.823 169.412 152.495 169.412C153.167 169.412 153.655 169.276 153.959 169.004C154.279 168.732 154.439 168.42 154.439 168.068C154.439 167.556 154.215 167.212 153.767 167.036C153.319 166.844 152.695 166.66 151.895 166.484C151.383 166.372 150.863 166.236 150.335 166.076C149.807 165.916 149.319 165.716 148.871 165.476C148.439 165.22 148.087 164.9 147.815 164.516C147.543 164.116 147.407 163.628 147.407 163.052C147.407 161.996 147.823 161.108 148.655 160.388C149.503 159.668 150.687 159.308 152.207 159.308C153.615 159.308 154.735 159.636 155.567 160.292C156.415 160.948 156.919 161.852 157.079 163.004H154.175C153.999 162.124 153.335 161.684 152.183 161.684C151.607 161.684 151.159 161.796 150.839 162.02C150.535 162.244 150.383 162.524 150.383 162.86C150.383 163.212 150.615 163.492 151.079 163.7C151.543 163.908 152.159 164.1 152.927 164.276C153.759 164.468 154.519 164.684 155.207 164.924C155.911 165.148 156.471 165.492 156.887 165.956C157.303 166.404 157.511 167.052 157.511 167.9C157.527 168.636 157.335 169.3 156.935 169.892C156.535 170.484 155.959 170.948 155.207 171.284C154.455 171.62 153.567 171.788 152.543 171.788ZM161.888 157.748C161.328 157.748 160.864 157.58 160.496 157.244C160.144 156.908 159.968 156.484 159.968 155.972C159.968 155.46 160.144 155.044 160.496 154.724C160.864 154.388 161.328 154.22 161.888 154.22C162.448 154.22 162.904 154.388 163.256 154.724C163.624 155.044 163.808 155.46 163.808 155.972C163.808 156.484 163.624 156.908 163.256 157.244C162.904 157.58 162.448 157.748 161.888 157.748ZM160.352 171.5V159.596H163.424V171.5H160.352ZM172.342 171.788C171.19 171.788 170.15 171.524 169.222 170.996C168.31 170.468 167.582 169.74 167.038 168.812C166.51 167.868 166.246 166.78 166.246 165.548C166.246 164.316 166.518 163.236 167.062 162.308C167.606 161.364 168.334 160.628 169.246 160.1C170.174 159.572 171.214 159.308 172.366 159.308C173.502 159.308 174.526 159.572 175.438 160.1C176.366 160.628 177.094 161.364 177.622 162.308C178.166 163.236 178.438 164.316 178.438 165.548C178.438 166.78 178.166 167.868 177.622 168.812C177.094 169.74 176.366 170.468 175.438 170.996C174.51 171.524 173.478 171.788 172.342 171.788ZM172.342 169.124C173.142 169.124 173.838 168.828 174.43 168.236C175.022 167.628 175.318 166.732 175.318 165.548C175.318 164.364 175.022 163.476 174.43 162.884C173.838 162.276 173.15 161.972 172.366 161.972C171.55 161.972 170.846 162.276 170.254 162.884C169.678 163.476 169.39 164.364 169.39 165.548C169.39 166.732 169.678 167.628 170.254 168.236C170.846 168.828 171.542 169.124 172.342 169.124ZM181.185 171.5V159.596H183.897L184.137 161.612C184.505 160.908 185.033 160.348 185.721 159.932C186.425 159.516 187.249 159.308 188.193 159.308C189.665 159.308 190.809 159.772 191.625 160.7C192.441 161.628 192.849 162.988 192.849 164.78V171.5H189.777V165.068C189.777 164.044 189.569 163.26 189.153 162.716C188.737 162.172 188.089 161.9 187.209 161.9C186.345 161.9 185.633 162.204 185.073 162.812C184.529 163.42 184.257 164.268 184.257 165.356V171.5H181.185Z" fill="#3D3D3D"/>
<path d="M68.4761 208.516L65.4041 197.3H66.8441L69.2601 206.916L72.0121 197.3H73.5001L76.1721 206.916L78.6201 197.3H80.0601L76.9241 208.5H75.3881L72.7161 199.252L69.9801 208.5L68.4761 208.516ZM84.3964 208.692C83.639 208.692 82.967 208.521 82.3804 208.18C81.7937 207.828 81.3297 207.343 80.9884 206.724C80.6577 206.105 80.4924 205.375 80.4924 204.532C80.4924 203.7 80.6577 202.975 80.9884 202.356C81.319 201.727 81.7777 201.241 82.3644 200.9C82.9617 200.548 83.6497 200.372 84.4284 200.372C85.1964 200.372 85.8577 200.548 86.4124 200.9C86.9777 201.241 87.4097 201.695 87.7084 202.26C88.007 202.825 88.1564 203.433 88.1564 204.084C88.1564 204.201 88.151 204.319 88.1404 204.436C88.1404 204.553 88.1404 204.687 88.1404 204.836H81.8204C81.8524 205.444 81.991 205.951 82.2364 206.356C82.4924 206.751 82.807 207.049 83.1804 207.252C83.5644 207.455 83.9697 207.556 84.3964 207.556C84.951 207.556 85.415 207.428 85.7884 207.172C86.1617 206.916 86.4337 206.569 86.6044 206.132H87.9324C87.719 206.868 87.3084 207.481 86.7004 207.972C86.103 208.452 85.335 208.692 84.3964 208.692ZM84.3964 201.508C83.7564 201.508 83.1857 201.705 82.6844 202.1C82.1937 202.484 81.911 203.049 81.8364 203.796H86.8284C86.7964 203.081 86.551 202.521 86.0924 202.116C85.6337 201.711 85.0684 201.508 84.3964 201.508ZM96.9721 208.692C96.3108 208.692 95.7615 208.58 95.3241 208.356C94.8868 208.132 94.5615 207.833 94.3481 207.46C94.1348 207.087 94.0281 206.681 94.0281 206.244C94.0281 205.433 94.3375 204.809 94.9561 204.372C95.5748 203.935 96.4175 203.716 97.4841 203.716H99.6281V203.62C99.6281 202.927 99.4468 202.404 99.0841 202.052C98.7215 201.689 98.2361 201.508 97.6281 201.508C97.1055 201.508 96.6521 201.641 96.2681 201.908C95.8948 202.164 95.6601 202.543 95.5641 203.044H94.1881C94.2415 202.468 94.4335 201.983 94.7641 201.588C95.1055 201.193 95.5268 200.895 96.0281 200.692C96.5295 200.479 97.0628 200.372 97.6281 200.372C98.7375 200.372 99.5695 200.671 100.124 201.268C100.689 201.855 100.972 202.639 100.972 203.62V208.5H99.7721L99.6921 207.076C99.4681 207.524 99.1375 207.908 98.7001 208.228C98.2735 208.537 97.6975 208.692 96.9721 208.692ZM97.1801 207.556C97.6921 207.556 98.1295 207.423 98.4921 207.156C98.8655 206.889 99.1481 206.543 99.3401 206.116C99.5321 205.689 99.6281 205.241 99.6281 204.772V204.756H97.5961C96.8068 204.756 96.2468 204.895 95.9161 205.172C95.5961 205.439 95.4361 205.775 95.4361 206.18C95.4361 206.596 95.5855 206.932 95.8841 207.188C96.1935 207.433 96.6255 207.556 97.1801 207.556ZM103.068 208.5V200.564H104.284L104.396 202.084C104.642 201.561 105.015 201.145 105.516 200.836C106.018 200.527 106.636 200.372 107.372 200.372V201.78H107.004C106.535 201.78 106.103 201.865 105.708 202.036C105.314 202.196 104.999 202.473 104.764 202.868C104.53 203.263 104.412 203.807 104.412 204.5V208.5H103.068ZM112.232 208.692C111.475 208.692 110.803 208.521 110.216 208.18C109.629 207.828 109.165 207.343 108.824 206.724C108.493 206.105 108.328 205.375 108.328 204.532C108.328 203.7 108.493 202.975 108.824 202.356C109.155 201.727 109.613 201.241 110.2 200.9C110.797 200.548 111.485 200.372 112.264 200.372C113.032 200.372 113.693 200.548 114.248 200.9C114.813 201.241 115.245 201.695 115.544 202.26C115.843 202.825 115.992 203.433 115.992 204.084C115.992 204.201 115.987 204.319 115.976 204.436C115.976 204.553 115.976 204.687 115.976 204.836H109.656C109.688 205.444 109.827 205.951 110.072 206.356C110.328 206.751 110.643 207.049 111.016 207.252C111.4 207.455 111.805 207.556 112.232 207.556C112.787 207.556 113.251 207.428 113.624 207.172C113.997 206.916 114.269 206.569 114.44 206.132H115.768C115.555 206.868 115.144 207.481 114.536 207.972C113.939 208.452 113.171 208.692 112.232 208.692ZM112.232 201.508C111.592 201.508 111.021 201.705 110.52 202.1C110.029 202.484 109.747 203.049 109.672 203.796H114.664C114.632 203.081 114.387 202.521 113.928 202.116C113.469 201.711 112.904 201.508 112.232 201.508ZM125.768 208.692C124.978 208.692 124.285 208.511 123.688 208.148C123.101 207.785 122.642 207.289 122.312 206.66C121.992 206.031 121.832 205.316 121.832 204.516C121.832 203.716 121.997 203.007 122.328 202.388C122.658 201.759 123.117 201.268 123.704 200.916C124.29 200.553 124.984 200.372 125.784 200.372C126.434 200.372 127.01 200.505 127.512 200.772C128.013 201.039 128.402 201.412 128.68 201.892V196.98H130.024V208.5H128.808L128.68 207.188C128.424 207.572 128.056 207.919 127.576 208.228C127.096 208.537 126.493 208.692 125.768 208.692ZM125.912 207.524C126.445 207.524 126.914 207.401 127.32 207.156C127.736 206.9 128.056 206.548 128.28 206.1C128.514 205.652 128.632 205.129 128.632 204.532C128.632 203.935 128.514 203.412 128.28 202.964C128.056 202.516 127.736 202.169 127.32 201.924C126.914 201.668 126.445 201.54 125.912 201.54C125.389 201.54 124.92 201.668 124.504 201.924C124.098 202.169 123.778 202.516 123.544 202.964C123.32 203.412 123.208 203.935 123.208 204.532C123.208 205.129 123.32 205.652 123.544 206.1C123.778 206.548 124.098 206.9 124.504 207.156C124.92 207.401 125.389 207.524 125.912 207.524ZM135.863 208.692C135.105 208.692 134.433 208.521 133.847 208.18C133.26 207.828 132.796 207.343 132.455 206.724C132.124 206.105 131.959 205.375 131.959 204.532C131.959 203.7 132.124 202.975 132.455 202.356C132.785 201.727 133.244 201.241 133.831 200.9C134.428 200.548 135.116 200.372 135.895 200.372C136.663 200.372 137.324 200.548 137.879 200.9C138.444 201.241 138.876 201.695 139.175 202.26C139.473 202.825 139.623 203.433 139.623 204.084C139.623 204.201 139.617 204.319 139.607 204.436C139.607 204.553 139.607 204.687 139.607 204.836H133.287C133.319 205.444 133.457 205.951 133.703 206.356C133.959 206.751 134.273 207.049 134.647 207.252C135.031 207.455 135.436 207.556 135.863 207.556C136.417 207.556 136.881 207.428 137.255 207.172C137.628 206.916 137.9 206.569 138.071 206.132H139.399C139.185 206.868 138.775 207.481 138.167 207.972C137.569 208.452 136.801 208.692 135.863 208.692ZM135.863 201.508C135.223 201.508 134.652 201.705 134.151 202.1C133.66 202.484 133.377 203.049 133.303 203.796H138.295C138.263 203.081 138.017 202.521 137.559 202.116C137.1 201.711 136.535 201.508 135.863 201.508ZM143.46 208.5L140.452 200.564H141.86L144.244 207.204L146.644 200.564H148.02L145.012 208.5H143.46ZM152.805 208.692C152.058 208.692 151.386 208.521 150.789 208.18C150.192 207.839 149.717 207.359 149.365 206.74C149.024 206.111 148.853 205.375 148.853 204.532C148.853 203.689 149.029 202.959 149.381 202.34C149.733 201.711 150.208 201.225 150.805 200.884C151.413 200.543 152.09 200.372 152.837 200.372C153.584 200.372 154.256 200.543 154.853 200.884C155.45 201.225 155.92 201.711 156.261 202.34C156.613 202.959 156.789 203.689 156.789 204.532C156.789 205.375 156.613 206.111 156.261 206.74C155.909 207.359 155.429 207.839 154.821 208.18C154.224 208.521 153.552 208.692 152.805 208.692ZM152.805 207.54C153.264 207.54 153.69 207.428 154.085 207.204C154.48 206.98 154.8 206.644 155.045 206.196C155.29 205.748 155.413 205.193 155.413 204.532C155.413 203.871 155.29 203.316 155.045 202.868C154.81 202.42 154.496 202.084 154.101 201.86C153.706 201.636 153.285 201.524 152.837 201.524C152.378 201.524 151.952 201.636 151.557 201.86C151.162 202.084 150.842 202.42 150.597 202.868C150.352 203.316 150.229 203.871 150.229 204.532C150.229 205.193 150.352 205.748 150.597 206.196C150.842 206.644 151.157 206.98 151.541 207.204C151.936 207.428 152.357 207.54 152.805 207.54ZM161.561 208.5C160.836 208.5 160.265 208.324 159.849 207.972C159.433 207.62 159.225 206.985 159.225 206.068V201.7H157.849V200.564H159.225L159.401 198.66H160.569V200.564H162.905V201.7H160.569V206.068C160.569 206.569 160.671 206.911 160.873 207.092C161.076 207.263 161.433 207.348 161.945 207.348H162.777V208.5H161.561ZM168.042 208.692C167.285 208.692 166.613 208.521 166.026 208.18C165.439 207.828 164.975 207.343 164.634 206.724C164.303 206.105 164.138 205.375 164.138 204.532C164.138 203.7 164.303 202.975 164.634 202.356C164.965 201.727 165.423 201.241 166.01 200.9C166.607 200.548 167.295 200.372 168.074 200.372C168.842 200.372 169.503 200.548 170.058 200.9C170.623 201.241 171.055 201.695 171.354 202.26C171.653 202.825 171.802 203.433 171.802 204.084C171.802 204.201 171.797 204.319 171.786 204.436C171.786 204.553 171.786 204.687 171.786 204.836H165.466C165.498 205.444 165.637 205.951 165.882 206.356C166.138 206.751 166.453 207.049 166.826 207.252C167.21 207.455 167.615 207.556 168.042 207.556C168.597 207.556 169.061 207.428 169.434 207.172C169.807 206.916 170.079 206.569 170.25 206.132H171.578C171.365 206.868 170.954 207.481 170.346 207.972C169.749 208.452 168.981 208.692 168.042 208.692ZM168.042 201.508C167.402 201.508 166.831 201.705 166.33 202.1C165.839 202.484 165.557 203.049 165.482 203.796H170.474C170.442 203.081 170.197 202.521 169.738 202.116C169.279 201.711 168.714 201.508 168.042 201.508ZM177.263 208.692C176.474 208.692 175.781 208.511 175.183 208.148C174.597 207.785 174.138 207.289 173.807 206.66C173.487 206.031 173.327 205.316 173.327 204.516C173.327 203.716 173.493 203.007 173.823 202.388C174.154 201.759 174.613 201.268 175.199 200.916C175.786 200.553 176.479 200.372 177.279 200.372C177.93 200.372 178.506 200.505 179.007 200.772C179.509 201.039 179.898 201.412 180.175 201.892V196.98H181.519V208.5H180.303L180.175 207.188C179.919 207.572 179.551 207.919 179.071 208.228C178.591 208.537 177.989 208.692 177.263 208.692ZM177.407 207.524C177.941 207.524 178.41 207.401 178.815 207.156C179.231 206.9 179.551 206.548 179.775 206.1C180.01 205.652 180.127 205.129 180.127 204.532C180.127 203.935 180.01 203.412 179.775 202.964C179.551 202.516 179.231 202.169 178.815 201.924C178.41 201.668 177.941 201.54 177.407 201.54C176.885 201.54 176.415 201.668 175.999 201.924C175.594 202.169 175.274 202.516 175.039 202.964C174.815 203.412 174.703 203.935 174.703 204.532C174.703 205.129 174.815 205.652 175.039 206.1C175.274 206.548 175.594 206.9 175.999 207.156C176.415 207.401 176.885 207.524 177.407 207.524ZM191.241 208.5C190.515 208.5 189.945 208.324 189.529 207.972C189.113 207.62 188.905 206.985 188.905 206.068V201.7H187.529V200.564H188.905L189.081 198.66H190.249V200.564H192.585V201.7H190.249V206.068C190.249 206.569 190.35 206.911 190.553 207.092C190.755 207.263 191.113 207.348 191.625 207.348H192.457V208.5H191.241ZM197.769 208.692C197.023 208.692 196.351 208.521 195.753 208.18C195.156 207.839 194.681 207.359 194.329 206.74C193.988 206.111 193.817 205.375 193.817 204.532C193.817 203.689 193.993 202.959 194.345 202.34C194.697 201.711 195.172 201.225 195.769 200.884C196.377 200.543 197.055 200.372 197.801 200.372C198.548 200.372 199.22 200.543 199.817 200.884C200.415 201.225 200.884 201.711 201.225 202.34C201.577 202.959 201.753 203.689 201.753 204.532C201.753 205.375 201.577 206.111 201.225 206.74C200.873 207.359 200.393 207.839 199.785 208.18C199.188 208.521 198.516 208.692 197.769 208.692ZM197.769 207.54C198.228 207.54 198.655 207.428 199.049 207.204C199.444 206.98 199.764 206.644 200.009 206.196C200.255 205.748 200.377 205.193 200.377 204.532C200.377 203.871 200.255 203.316 200.009 202.868C199.775 202.42 199.46 202.084 199.065 201.86C198.671 201.636 198.249 201.524 197.801 201.524C197.343 201.524 196.916 201.636 196.521 201.86C196.127 202.084 195.807 202.42 195.561 202.868C195.316 203.316 195.193 203.871 195.193 204.532C195.193 205.193 195.316 205.748 195.561 206.196C195.807 206.644 196.121 206.98 196.505 207.204C196.9 207.428 197.321 207.54 197.769 207.54ZM210.657 208.692C209.995 208.692 209.446 208.58 209.009 208.356C208.571 208.132 208.246 207.833 208.033 207.46C207.819 207.087 207.713 206.681 207.713 206.244C207.713 205.433 208.022 204.809 208.641 204.372C209.259 203.935 210.102 203.716 211.169 203.716H213.313V203.62C213.313 202.927 213.131 202.404 212.769 202.052C212.406 201.689 211.921 201.508 211.313 201.508C210.79 201.508 210.337 201.641 209.953 201.908C209.579 202.164 209.345 202.543 209.249 203.044H207.873C207.926 202.468 208.118 201.983 208.449 201.588C208.79 201.193 209.211 200.895 209.713 200.692C210.214 200.479 210.747 200.372 211.313 200.372C212.422 200.372 213.254 200.671 213.809 201.268C214.374 201.855 214.657 202.639 214.657 203.62V208.5H213.457L213.377 207.076C213.153 207.524 212.822 207.908 212.385 208.228C211.958 208.537 211.382 208.692 210.657 208.692ZM210.865 207.556C211.377 207.556 211.814 207.423 212.177 207.156C212.55 206.889 212.833 206.543 213.025 206.116C213.217 205.689 213.313 205.241 213.313 204.772V204.756H211.281C210.491 204.756 209.931 204.895 209.601 205.172C209.281 205.439 209.121 205.775 209.121 206.18C209.121 206.596 209.27 206.932 209.569 207.188C209.878 207.433 210.31 207.556 210.865 207.556ZM216.753 208.5V200.564H217.969L218.049 201.988C218.305 201.487 218.673 201.092 219.153 200.804C219.633 200.516 220.177 200.372 220.785 200.372C221.723 200.372 222.47 200.66 223.025 201.236C223.59 201.801 223.873 202.676 223.873 203.86V208.5H222.529V204.004C222.529 202.351 221.846 201.524 220.481 201.524C219.798 201.524 219.227 201.775 218.769 202.276C218.321 202.767 218.097 203.471 218.097 204.388V208.5H216.753ZM229.589 208.692C228.8 208.692 228.106 208.511 227.509 208.148C226.922 207.785 226.464 207.289 226.133 206.66C225.813 206.031 225.653 205.316 225.653 204.516C225.653 203.716 225.818 203.007 226.149 202.388C226.48 201.759 226.938 201.268 227.525 200.916C228.112 200.553 228.805 200.372 229.605 200.372C230.256 200.372 230.832 200.505 231.333 200.772C231.834 201.039 232.224 201.412 232.501 201.892V196.98H233.845V208.5H232.629L232.501 207.188C232.245 207.572 231.877 207.919 231.397 208.228C230.917 208.537 230.314 208.692 229.589 208.692ZM229.733 207.524C230.266 207.524 230.736 207.401 231.141 207.156C231.557 206.9 231.877 206.548 232.101 206.1C232.336 205.652 232.453 205.129 232.453 204.532C232.453 203.935 232.336 203.412 232.101 202.964C231.877 202.516 231.557 202.169 231.141 201.924C230.736 201.668 230.266 201.54 229.733 201.54C229.21 201.54 228.741 201.668 228.325 201.924C227.92 202.169 227.6 202.516 227.365 202.964C227.141 203.412 227.029 203.935 227.029 204.532C227.029 205.129 227.141 205.652 227.365 206.1C227.6 206.548 227.92 206.9 228.325 207.156C228.741 207.401 229.21 207.524 229.733 207.524ZM71.7571 233.02V221.564H72.9731L73.1011 222.876C73.3571 222.492 73.7198 222.145 74.1891 221.836C74.6691 221.527 75.2771 221.372 76.0131 221.372C76.8025 221.372 77.4905 221.553 78.0771 221.916C78.6638 222.279 79.1171 222.775 79.4371 223.404C79.7678 224.033 79.9331 224.748 79.9331 225.548C79.9331 226.348 79.7678 227.063 79.4371 227.692C79.1171 228.311 78.6585 228.801 78.0611 229.164C77.4745 229.516 76.7865 229.692 75.9971 229.692C75.3465 229.692 74.7651 229.559 74.2531 229.292C73.7518 229.025 73.3678 228.652 73.1011 228.172V233.02H71.7571ZM75.8531 228.524C76.3865 228.524 76.8558 228.401 77.2611 228.156C77.6665 227.9 77.9865 227.548 78.2211 227.1C78.4558 226.652 78.5731 226.129 78.5731 225.532C78.5731 224.935 78.4558 224.412 78.2211 223.964C77.9865 223.516 77.6665 223.169 77.2611 222.924C76.8558 222.668 76.3865 222.54 75.8531 222.54C75.3198 222.54 74.8505 222.668 74.4451 222.924C74.0398 223.169 73.7198 223.516 73.4851 223.964C73.2505 224.412 73.1331 224.935 73.1331 225.532C73.1331 226.129 73.2505 226.652 73.4851 227.1C73.7198 227.548 74.0398 227.9 74.4451 228.156C74.8505 228.401 75.3198 228.524 75.8531 228.524ZM84.524 229.692C83.8627 229.692 83.3133 229.58 82.876 229.356C82.4387 229.132 82.1133 228.833 81.9 228.46C81.6867 228.087 81.58 227.681 81.58 227.244C81.58 226.433 81.8893 225.809 82.508 225.372C83.1267 224.935 83.9693 224.716 85.036 224.716H87.18V224.62C87.18 223.927 86.9987 223.404 86.636 223.052C86.2733 222.689 85.788 222.508 85.18 222.508C84.6573 222.508 84.204 222.641 83.82 222.908C83.4467 223.164 83.212 223.543 83.116 224.044H81.74C81.7933 223.468 81.9853 222.983 82.316 222.588C82.6573 222.193 83.0787 221.895 83.58 221.692C84.0813 221.479 84.6147 221.372 85.18 221.372C86.2893 221.372 87.1213 221.671 87.676 222.268C88.2413 222.855 88.524 223.639 88.524 224.62V229.5H87.324L87.244 228.076C87.02 228.524 86.6893 228.908 86.252 229.228C85.8253 229.537 85.2493 229.692 84.524 229.692ZM84.732 228.556C85.244 228.556 85.6813 228.423 86.044 228.156C86.4173 227.889 86.7 227.543 86.892 227.116C87.084 226.689 87.18 226.241 87.18 225.772V225.756H85.148C84.3587 225.756 83.7987 225.895 83.468 226.172C83.148 226.439 82.988 226.775 82.988 227.18C82.988 227.596 83.1373 227.932 83.436 228.188C83.7453 228.433 84.1773 228.556 84.732 228.556ZM93.6602 229.692C92.7109 229.692 91.9216 229.452 91.2922 228.972C90.6629 228.492 90.2949 227.841 90.1882 227.02H91.5642C91.6496 227.436 91.8682 227.799 92.2202 228.108C92.5829 228.407 93.0682 228.556 93.6762 228.556C94.2416 228.556 94.6576 228.439 94.9242 228.204C95.1909 227.959 95.3242 227.671 95.3242 227.34C95.3242 226.86 95.1482 226.54 94.7962 226.38C94.4549 226.22 93.9696 226.076 93.3402 225.948C92.9136 225.863 92.4869 225.74 92.0602 225.58C91.6336 225.42 91.2762 225.196 90.9882 224.908C90.7002 224.609 90.5562 224.22 90.5562 223.74C90.5562 223.047 90.8122 222.481 91.3242 222.044C91.8469 221.596 92.5509 221.372 93.4362 221.372C94.2789 221.372 94.9669 221.585 95.5002 222.012C96.0442 222.428 96.3589 223.025 96.4442 223.804H95.1162C95.0629 223.399 94.8869 223.084 94.5882 222.86C94.3002 222.625 93.9109 222.508 93.4202 222.508C92.9402 222.508 92.5669 222.609 92.3002 222.812C92.0442 223.015 91.9162 223.281 91.9162 223.612C91.9162 223.932 92.0816 224.183 92.4122 224.364C92.7536 224.545 93.2122 224.7 93.7882 224.828C94.2789 224.935 94.7429 225.068 95.1802 225.228C95.6282 225.377 95.9909 225.607 96.2682 225.916C96.5562 226.215 96.7002 226.652 96.7002 227.228C96.7109 227.943 96.4389 228.535 95.8842 229.004C95.3402 229.463 94.5989 229.692 93.6602 229.692ZM101.74 229.692C100.791 229.692 100.002 229.452 99.3722 228.972C98.7429 228.492 98.3749 227.841 98.2682 227.02H99.6442C99.7296 227.436 99.9482 227.799 100.3 228.108C100.663 228.407 101.148 228.556 101.756 228.556C102.322 228.556 102.738 228.439 103.004 228.204C103.271 227.959 103.404 227.671 103.404 227.34C103.404 226.86 103.228 226.54 102.876 226.38C102.535 226.22 102.05 226.076 101.42 225.948C100.994 225.863 100.567 225.74 100.14 225.58C99.7136 225.42 99.3562 225.196 99.0682 224.908C98.7802 224.609 98.6362 224.22 98.6362 223.74C98.6362 223.047 98.8922 222.481 99.4042 222.044C99.9269 221.596 100.631 221.372 101.516 221.372C102.359 221.372 103.047 221.585 103.58 222.012C104.124 222.428 104.439 223.025 104.524 223.804H103.196C103.143 223.399 102.967 223.084 102.668 222.86C102.38 222.625 101.991 222.508 101.5 222.508C101.02 222.508 100.647 222.609 100.38 222.812C100.124 223.015 99.9962 223.281 99.9962 223.612C99.9962 223.932 100.162 224.183 100.492 224.364C100.834 224.545 101.292 224.7 101.868 224.828C102.359 224.935 102.823 225.068 103.26 225.228C103.708 225.377 104.071 225.607 104.348 225.916C104.636 226.215 104.78 226.652 104.78 227.228C104.791 227.943 104.519 228.535 103.964 229.004C103.42 229.463 102.679 229.692 101.74 229.692ZM107.596 219.804C107.33 219.804 107.106 219.719 106.924 219.548C106.754 219.367 106.668 219.143 106.668 218.876C106.668 218.62 106.754 218.407 106.924 218.236C107.106 218.065 107.33 217.98 107.596 217.98C107.852 217.98 108.071 218.065 108.252 218.236C108.434 218.407 108.524 218.62 108.524 218.876C108.524 219.143 108.434 219.367 108.252 219.548C108.071 219.719 107.852 219.804 107.596 219.804ZM106.924 229.5V221.564H108.268V229.5H106.924ZM114.304 229.692C113.558 229.692 112.886 229.521 112.288 229.18C111.691 228.839 111.216 228.359 110.864 227.74C110.523 227.111 110.352 226.375 110.352 225.532C110.352 224.689 110.528 223.959 110.88 223.34C111.232 222.711 111.707 222.225 112.304 221.884C112.912 221.543 113.59 221.372 114.336 221.372C115.083 221.372 115.755 221.543 116.352 221.884C116.95 222.225 117.419 222.711 117.76 223.34C118.112 223.959 118.288 224.689 118.288 225.532C118.288 226.375 118.112 227.111 117.76 227.74C117.408 228.359 116.928 228.839 116.32 229.18C115.723 229.521 115.051 229.692 114.304 229.692ZM114.304 228.54C114.763 228.54 115.19 228.428 115.584 228.204C115.979 227.98 116.299 227.644 116.544 227.196C116.79 226.748 116.912 226.193 116.912 225.532C116.912 224.871 116.79 224.316 116.544 223.868C116.31 223.42 115.995 223.084 115.6 222.86C115.206 222.636 114.784 222.524 114.336 222.524C113.878 222.524 113.451 222.636 113.056 222.86C112.662 223.084 112.342 223.42 112.096 223.868C111.851 224.316 111.728 224.871 111.728 225.532C111.728 226.193 111.851 226.748 112.096 227.196C112.342 227.644 112.656 227.98 113.04 228.204C113.435 228.428 113.856 228.54 114.304 228.54ZM120.237 229.5V221.564H121.453L121.533 222.988C121.789 222.487 122.157 222.092 122.637 221.804C123.117 221.516 123.661 221.372 124.269 221.372C125.208 221.372 125.954 221.66 126.509 222.236C127.074 222.801 127.357 223.676 127.357 224.86V229.5H126.013V225.004C126.013 223.351 125.33 222.524 123.965 222.524C123.282 222.524 122.712 222.775 122.253 223.276C121.805 223.767 121.581 224.471 121.581 225.388V229.5H120.237ZM132.113 229.692C131.452 229.692 130.903 229.58 130.465 229.356C130.028 229.132 129.703 228.833 129.489 228.46C129.276 228.087 129.169 227.681 129.169 227.244C129.169 226.433 129.479 225.809 130.097 225.372C130.716 224.935 131.559 224.716 132.625 224.716H134.769V224.62C134.769 223.927 134.588 223.404 134.225 223.052C133.863 222.689 133.377 222.508 132.769 222.508C132.247 222.508 131.793 222.641 131.409 222.908C131.036 223.164 130.801 223.543 130.705 224.044H129.329C129.383 223.468 129.575 222.983 129.905 222.588C130.247 222.193 130.668 221.895 131.169 221.692C131.671 221.479 132.204 221.372 132.769 221.372C133.879 221.372 134.711 221.671 135.265 222.268C135.831 222.855 136.113 223.639 136.113 224.62V229.5H134.913L134.833 228.076C134.609 228.524 134.279 228.908 133.841 229.228C133.415 229.537 132.839 229.692 132.113 229.692ZM132.321 228.556C132.833 228.556 133.271 228.423 133.633 228.156C134.007 227.889 134.289 227.543 134.481 227.116C134.673 226.689 134.769 226.241 134.769 225.772V225.756H132.737C131.948 225.756 131.388 225.895 131.057 226.172C130.737 226.439 130.577 226.775 130.577 227.18C130.577 227.596 130.727 227.932 131.025 228.188C131.335 228.433 131.767 228.556 132.321 228.556ZM141.127 229.5C140.402 229.5 139.831 229.324 139.415 228.972C138.999 228.62 138.791 227.985 138.791 227.068V222.7H137.415V221.564H138.791L138.967 219.66H140.135V221.564H142.471V222.7H140.135V227.068C140.135 227.569 140.236 227.911 140.439 228.092C140.642 228.263 140.999 228.348 141.511 228.348H142.343V229.5H141.127ZM147.608 229.692C146.85 229.692 146.178 229.521 145.592 229.18C145.005 228.828 144.541 228.343 144.2 227.724C143.869 227.105 143.704 226.375 143.704 225.532C143.704 224.7 143.869 223.975 144.2 223.356C144.53 222.727 144.989 222.241 145.576 221.9C146.173 221.548 146.861 221.372 147.64 221.372C148.408 221.372 149.069 221.548 149.624 221.9C150.189 222.241 150.621 222.695 150.92 223.26C151.218 223.825 151.368 224.433 151.368 225.084C151.368 225.201 151.362 225.319 151.352 225.436C151.352 225.553 151.352 225.687 151.352 225.836H145.032C145.064 226.444 145.202 226.951 145.448 227.356C145.704 227.751 146.018 228.049 146.392 228.252C146.776 228.455 147.181 228.556 147.608 228.556C148.162 228.556 148.626 228.428 149 228.172C149.373 227.916 149.645 227.569 149.816 227.132H151.144C150.93 227.868 150.52 228.481 149.912 228.972C149.314 229.452 148.546 229.692 147.608 229.692ZM147.608 222.508C146.968 222.508 146.397 222.705 145.896 223.1C145.405 223.484 145.122 224.049 145.048 224.796H150.04C150.008 224.081 149.762 223.521 149.304 223.116C148.845 222.711 148.28 222.508 147.608 222.508ZM160.183 229.692C159.522 229.692 158.973 229.58 158.535 229.356C158.098 229.132 157.773 228.833 157.559 228.46C157.346 228.087 157.239 227.681 157.239 227.244C157.239 226.433 157.549 225.809 158.167 225.372C158.786 224.935 159.629 224.716 160.695 224.716H162.839V224.62C162.839 223.927 162.658 223.404 162.295 223.052C161.933 222.689 161.447 222.508 160.839 222.508C160.317 222.508 159.863 222.641 159.479 222.908C159.106 223.164 158.871 223.543 158.775 224.044H157.399C157.453 223.468 157.645 222.983 157.975 222.588C158.317 222.193 158.738 221.895 159.239 221.692C159.741 221.479 160.274 221.372 160.839 221.372C161.949 221.372 162.781 221.671 163.335 222.268C163.901 222.855 164.183 223.639 164.183 224.62V229.5H162.983L162.903 228.076C162.679 228.524 162.349 228.908 161.911 229.228C161.485 229.537 160.909 229.692 160.183 229.692ZM160.391 228.556C160.903 228.556 161.341 228.423 161.703 228.156C162.077 227.889 162.359 227.543 162.551 227.116C162.743 226.689 162.839 226.241 162.839 225.772V225.756H160.807C160.018 225.756 159.458 225.895 159.127 226.172C158.807 226.439 158.647 226.775 158.647 227.18C158.647 227.596 158.797 227.932 159.095 228.188C159.405 228.433 159.837 228.556 160.391 228.556ZM170.52 229.692C169.869 229.692 169.288 229.559 168.776 229.292C168.274 229.025 167.89 228.652 167.624 228.172L167.496 229.5H166.28V217.98H167.624V222.876C167.88 222.492 168.242 222.145 168.712 221.836C169.192 221.527 169.8 221.372 170.536 221.372C171.325 221.372 172.013 221.553 172.6 221.916C173.186 222.279 173.64 222.775 173.96 223.404C174.29 224.033 174.456 224.748 174.456 225.548C174.456 226.348 174.29 227.063 173.96 227.692C173.64 228.311 173.181 228.801 172.584 229.164C171.997 229.516 171.309 229.692 170.52 229.692ZM170.376 228.524C170.909 228.524 171.378 228.401 171.784 228.156C172.189 227.9 172.509 227.548 172.744 227.1C172.978 226.652 173.096 226.129 173.096 225.532C173.096 224.935 172.978 224.412 172.744 223.964C172.509 223.516 172.189 223.169 171.784 222.924C171.378 222.668 170.909 222.54 170.376 222.54C169.842 222.54 169.373 222.668 168.968 222.924C168.562 223.169 168.242 223.516 168.008 223.964C167.773 224.412 167.656 224.935 167.656 225.532C167.656 226.129 167.773 226.652 168.008 227.1C168.242 227.548 168.562 227.9 168.968 228.156C169.373 228.401 169.842 228.524 170.376 228.524ZM180.022 229.692C179.276 229.692 178.604 229.521 178.006 229.18C177.409 228.839 176.934 228.359 176.582 227.74C176.241 227.111 176.07 226.375 176.07 225.532C176.07 224.689 176.246 223.959 176.598 223.34C176.95 222.711 177.425 222.225 178.022 221.884C178.63 221.543 179.308 221.372 180.054 221.372C180.801 221.372 181.473 221.543 182.07 221.884C182.668 222.225 183.137 222.711 183.478 223.34C183.83 223.959 184.006 224.689 184.006 225.532C184.006 226.375 183.83 227.111 183.478 227.74C183.126 228.359 182.646 228.839 182.038 229.18C181.441 229.521 180.769 229.692 180.022 229.692ZM180.022 228.54C180.481 228.54 180.908 228.428 181.302 228.204C181.697 227.98 182.017 227.644 182.262 227.196C182.508 226.748 182.63 226.193 182.63 225.532C182.63 224.871 182.508 224.316 182.262 223.868C182.028 223.42 181.713 223.084 181.318 222.86C180.924 222.636 180.502 222.524 180.054 222.524C179.596 222.524 179.169 222.636 178.774 222.86C178.38 223.084 178.06 223.42 177.814 223.868C177.569 224.316 177.446 224.871 177.446 225.532C177.446 226.193 177.569 226.748 177.814 227.196C178.06 227.644 178.374 227.98 178.758 228.204C179.153 228.428 179.574 228.54 180.022 228.54ZM188.851 229.692C187.913 229.692 187.166 229.409 186.611 228.844C186.057 228.268 185.779 227.388 185.779 226.204V221.564H187.123V226.06C187.123 227.713 187.801 228.54 189.155 228.54C189.849 228.54 190.419 228.295 190.867 227.804C191.326 227.303 191.555 226.593 191.555 225.676V221.564H192.899V229.5H191.683L191.587 228.076C191.342 228.577 190.974 228.972 190.483 229.26C190.003 229.548 189.459 229.692 188.851 229.692ZM198.327 229.5C197.602 229.5 197.031 229.324 196.615 228.972C196.199 228.62 195.991 227.985 195.991 227.068V222.7H194.615V221.564H195.991L196.167 219.66H197.335V221.564H199.671V222.7H197.335V227.068C197.335 227.569 197.437 227.911 197.639 228.092C197.842 228.263 198.199 228.348 198.711 228.348H199.543V229.5H198.327ZM209.389 229.692C208.643 229.692 207.971 229.521 207.373 229.18C206.776 228.839 206.301 228.359 205.949 227.74C205.608 227.111 205.437 226.375 205.437 225.532C205.437 224.689 205.613 223.959 205.965 223.34C206.317 222.711 206.792 222.225 207.389 221.884C207.997 221.543 208.675 221.372 209.421 221.372C210.168 221.372 210.84 221.543 211.437 221.884C212.035 222.225 212.504 222.711 212.845 223.34C213.197 223.959 213.373 224.689 213.373 225.532C213.373 226.375 213.197 227.111 212.845 227.74C212.493 228.359 212.013 228.839 211.405 229.18C210.808 229.521 210.136 229.692 209.389 229.692ZM209.389 228.54C209.848 228.54 210.275 228.428 210.669 228.204C211.064 227.98 211.384 227.644 211.629 227.196C211.875 226.748 211.997 226.193 211.997 225.532C211.997 224.871 211.875 224.316 211.629 223.868C211.395 223.42 211.08 223.084 210.685 222.86C210.291 222.636 209.869 222.524 209.421 222.524C208.963 222.524 208.536 222.636 208.141 222.86C207.747 223.084 207.427 223.42 207.181 223.868C206.936 224.316 206.813 224.871 206.813 225.532C206.813 226.193 206.936 226.748 207.181 227.196C207.427 227.644 207.741 227.98 208.125 228.204C208.52 228.428 208.941 228.54 209.389 228.54ZM218.218 229.692C217.279 229.692 216.533 229.409 215.978 228.844C215.423 228.268 215.146 227.388 215.146 226.204V221.564H216.49V226.06C216.49 227.713 217.167 228.54 218.522 228.54C219.215 228.54 219.786 228.295 220.234 227.804C220.693 227.303 220.922 226.593 220.922 225.676V221.564H222.266V229.5H221.05L220.954 228.076C220.709 228.577 220.341 228.972 219.85 229.26C219.37 229.548 218.826 229.692 218.218 229.692ZM224.558 229.5V221.564H225.774L225.886 223.084C226.132 222.561 226.505 222.145 227.006 221.836C227.508 221.527 228.126 221.372 228.862 221.372V222.78H228.494C228.025 222.78 227.593 222.865 227.198 223.036C226.804 223.196 226.489 223.473 226.254 223.868C226.02 224.263 225.902 224.807 225.902 225.5V229.5H224.558ZM113.533 250.692C112.775 250.692 112.093 250.521 111.485 250.18C110.887 249.828 110.413 249.343 110.061 248.724C109.719 248.095 109.549 247.364 109.549 246.532C109.549 245.7 109.719 244.975 110.061 244.356C110.413 243.727 110.887 243.241 111.485 242.9C112.093 242.548 112.775 242.372 113.533 242.372C114.471 242.372 115.261 242.617 115.901 243.108C116.551 243.599 116.962 244.255 117.133 245.076H115.757C115.65 244.585 115.389 244.207 114.973 243.94C114.557 243.663 114.071 243.524 113.517 243.524C113.069 243.524 112.647 243.636 112.253 243.86C111.858 244.084 111.538 244.42 111.293 244.868C111.047 245.316 110.925 245.871 110.925 246.532C110.925 247.193 111.047 247.748 111.293 248.196C111.538 248.644 111.858 248.985 112.253 249.22C112.647 249.444 113.069 249.556 113.517 249.556C114.071 249.556 114.557 249.423 114.973 249.156C115.389 248.879 115.65 248.489 115.757 247.988H117.133C116.973 248.788 116.567 249.439 115.917 249.94C115.266 250.441 114.471 250.692 113.533 250.692ZM121.986 250.692C121.047 250.692 120.3 250.409 119.746 249.844C119.191 249.268 118.914 248.388 118.914 247.204V242.564H120.258V247.06C120.258 248.713 120.935 249.54 122.29 249.54C122.983 249.54 123.554 249.295 124.002 248.804C124.46 248.303 124.69 247.593 124.69 246.676V242.564H126.034V250.5H124.818L124.722 249.076C124.476 249.577 124.108 249.972 123.618 250.26C123.138 250.548 122.594 250.692 121.986 250.692ZM131.366 250.692C130.417 250.692 129.627 250.452 128.998 249.972C128.369 249.492 128.001 248.841 127.894 248.02H129.27C129.355 248.436 129.574 248.799 129.926 249.108C130.289 249.407 130.774 249.556 131.382 249.556C131.947 249.556 132.363 249.439 132.63 249.204C132.897 248.959 133.03 248.671 133.03 248.34C133.03 247.86 132.854 247.54 132.502 247.38C132.161 247.22 131.675 247.076 131.046 246.948C130.619 246.863 130.193 246.74 129.766 246.58C129.339 246.42 128.982 246.196 128.694 245.908C128.406 245.609 128.262 245.22 128.262 244.74C128.262 244.047 128.518 243.481 129.03 243.044C129.553 242.596 130.257 242.372 131.142 242.372C131.985 242.372 132.673 242.585 133.206 243.012C133.75 243.428 134.065 244.025 134.15 244.804H132.822C132.769 244.399 132.593 244.084 132.294 243.86C132.006 243.625 131.617 243.508 131.126 243.508C130.646 243.508 130.273 243.609 130.006 243.812C129.75 244.015 129.622 244.281 129.622 244.612C129.622 244.932 129.787 245.183 130.118 245.364C130.459 245.545 130.918 245.7 131.494 245.828C131.985 245.935 132.449 246.068 132.886 246.228C133.334 246.377 133.697 246.607 133.974 246.916C134.262 247.215 134.406 247.652 134.406 248.228C134.417 248.943 134.145 249.535 133.59 250.004C133.046 250.463 132.305 250.692 131.366 250.692ZM139.182 250.5C138.457 250.5 137.886 250.324 137.47 249.972C137.054 249.62 136.846 248.985 136.846 248.068V243.7H135.47V242.564H136.846L137.022 240.66H138.19V242.564H140.526V243.7H138.19V248.068C138.19 248.569 138.292 248.911 138.494 249.092C138.697 249.263 139.054 249.348 139.566 249.348H140.398V250.5H139.182ZM145.711 250.692C144.965 250.692 144.293 250.521 143.695 250.18C143.098 249.839 142.623 249.359 142.271 248.74C141.93 248.111 141.759 247.375 141.759 246.532C141.759 245.689 141.935 244.959 142.287 244.34C142.639 243.711 143.114 243.225 143.711 242.884C144.319 242.543 144.997 242.372 145.743 242.372C146.49 242.372 147.162 242.543 147.759 242.884C148.357 243.225 148.826 243.711 149.167 244.34C149.519 244.959 149.695 245.689 149.695 246.532C149.695 247.375 149.519 248.111 149.167 248.74C148.815 249.359 148.335 249.839 147.727 250.18C147.13 250.521 146.458 250.692 145.711 250.692ZM145.711 249.54C146.17 249.54 146.597 249.428 146.991 249.204C147.386 248.98 147.706 248.644 147.951 248.196C148.197 247.748 148.319 247.193 148.319 246.532C148.319 245.871 148.197 245.316 147.951 244.868C147.717 244.42 147.402 244.084 147.007 243.86C146.613 243.636 146.191 243.524 145.743 243.524C145.285 243.524 144.858 243.636 144.463 243.86C144.069 244.084 143.749 244.42 143.503 244.868C143.258 245.316 143.135 245.871 143.135 246.532C143.135 247.193 143.258 247.748 143.503 248.196C143.749 248.644 144.063 248.98 144.447 249.204C144.842 249.428 145.263 249.54 145.711 249.54ZM151.644 250.5V242.564H152.86L152.956 243.716C153.212 243.289 153.553 242.959 153.98 242.724C154.407 242.489 154.887 242.372 155.42 242.372C156.049 242.372 156.588 242.5 157.036 242.756C157.495 243.012 157.847 243.401 158.092 243.924C158.369 243.444 158.748 243.065 159.228 242.788C159.719 242.511 160.247 242.372 160.812 242.372C161.761 242.372 162.519 242.66 163.084 243.236C163.649 243.801 163.932 244.676 163.932 245.86V250.5H162.604V246.004C162.604 245.183 162.439 244.564 162.108 244.148C161.777 243.732 161.303 243.524 160.684 243.524C160.044 243.524 159.511 243.775 159.084 244.276C158.668 244.767 158.46 245.471 158.46 246.388V250.5H157.116V246.004C157.116 245.183 156.951 244.564 156.62 244.148C156.289 243.732 155.815 243.524 155.196 243.524C154.567 243.524 154.039 243.775 153.612 244.276C153.196 244.767 152.988 245.471 152.988 246.388V250.5H151.644ZM169.604 250.692C168.847 250.692 168.175 250.521 167.588 250.18C167.002 249.828 166.538 249.343 166.196 248.724C165.866 248.105 165.7 247.375 165.7 246.532C165.7 245.7 165.866 244.975 166.196 244.356C166.527 243.727 166.986 243.241 167.572 242.9C168.17 242.548 168.858 242.372 169.636 242.372C170.404 242.372 171.066 242.548 171.62 242.9C172.186 243.241 172.618 243.695 172.916 244.26C173.215 244.825 173.364 245.433 173.364 246.084C173.364 246.201 173.359 246.319 173.348 246.436C173.348 246.553 173.348 246.687 173.348 246.836H167.028C167.06 247.444 167.199 247.951 167.444 248.356C167.7 248.751 168.015 249.049 168.388 249.252C168.772 249.455 169.178 249.556 169.604 249.556C170.159 249.556 170.623 249.428 170.996 249.172C171.37 248.916 171.642 248.569 171.812 248.132H173.14C172.927 248.868 172.516 249.481 171.908 249.972C171.311 250.452 170.543 250.692 169.604 250.692ZM169.604 243.508C168.964 243.508 168.394 243.705 167.892 244.1C167.402 244.484 167.119 245.049 167.044 245.796H172.036C172.004 245.081 171.759 244.521 171.3 244.116C170.842 243.711 170.276 243.508 169.604 243.508ZM175.226 250.5V242.564H176.442L176.554 244.084C176.799 243.561 177.173 243.145 177.674 242.836C178.175 242.527 178.794 242.372 179.53 242.372V243.78H179.162C178.693 243.78 178.261 243.865 177.866 244.036C177.471 244.196 177.157 244.473 176.922 244.868C176.687 245.263 176.57 245.807 176.57 246.5V250.5H175.226ZM184.158 250.692C183.209 250.692 182.42 250.452 181.79 249.972C181.161 249.492 180.793 248.841 180.686 248.02H182.062C182.148 248.436 182.366 248.799 182.718 249.108C183.081 249.407 183.566 249.556 184.174 249.556C184.74 249.556 185.156 249.439 185.422 249.204C185.689 248.959 185.822 248.671 185.822 248.34C185.822 247.86 185.646 247.54 185.294 247.38C184.953 247.22 184.468 247.076 183.838 246.948C183.412 246.863 182.985 246.74 182.558 246.58C182.132 246.42 181.774 246.196 181.486 245.908C181.198 245.609 181.054 245.22 181.054 244.74C181.054 244.047 181.31 243.481 181.822 243.044C182.345 242.596 183.049 242.372 183.934 242.372C184.777 242.372 185.465 242.585 185.998 243.012C186.542 243.428 186.857 244.025 186.942 244.804H185.614C185.561 244.399 185.385 244.084 185.086 243.86C184.798 243.625 184.409 243.508 183.918 243.508C183.438 243.508 183.065 243.609 182.798 243.812C182.542 244.015 182.414 244.281 182.414 244.612C182.414 244.932 182.58 245.183 182.91 245.364C183.252 245.545 183.71 245.7 184.286 245.828C184.777 245.935 185.241 246.068 185.678 246.228C186.126 246.377 186.489 246.607 186.766 246.916C187.054 247.215 187.198 247.652 187.198 248.228C187.209 248.943 186.937 249.535 186.382 250.004C185.838 250.463 185.097 250.692 184.158 250.692ZM189.662 250.58C189.396 250.58 189.172 250.495 188.99 250.324C188.82 250.143 188.734 249.924 188.734 249.668C188.734 249.412 188.82 249.199 188.99 249.028C189.172 248.847 189.396 248.756 189.662 248.756C189.918 248.756 190.132 248.847 190.302 249.028C190.484 249.199 190.574 249.412 190.574 249.668C190.574 249.924 190.484 250.143 190.302 250.324C190.132 250.495 189.918 250.58 189.662 250.58Z" fill="#3D3D3D"/>
</svg>
