<svg width="300" height="300" viewBox="0 0 300 300" fill="none" xmlns="http://www.w3.org/2000/svg">
<circle cx="150" cy="90" r="44.5" fill="#219653" fill-opacity="0.1"/>
<circle cx="150" cy="91" r="36.5" fill="#27AE60"/>
<g clip-path="url(#clip0_240_1664)">
<path d="M133.5 95.5783C134.647 95.5232 135.618 95.0792 136.412 94.2465C137.206 93.4137 137.603 92.4238 137.603 91.2766C137.603 92.4238 138 93.4137 138.794 94.2465C139.589 95.0792 140.559 95.5232 141.706 95.5783C140.559 95.6335 139.589 96.0775 138.794 96.9102C138 97.743 137.603 98.7329 137.603 99.88C137.603 98.7329 137.206 97.743 136.412 96.9102C135.618 96.0775 134.647 95.6335 133.5 95.5783ZM137.603 82.8718C139.831 82.7615 141.72 81.8984 143.27 80.2825C144.82 78.6666 145.594 76.7391 145.594 74.5C145.594 76.7391 146.372 78.6666 147.927 80.2825C149.482 81.8984 151.374 82.7615 153.602 82.8718C152.135 82.938 150.79 83.3543 149.565 84.1209C148.341 84.8875 147.373 85.9023 146.662 87.1652C145.95 88.4281 145.594 89.7986 145.594 91.2766C145.594 89.0265 144.82 87.0908 143.27 85.4693C141.72 83.8479 139.831 82.9821 137.603 82.8718ZM143.46 101.882C145.137 101.805 146.56 101.157 147.729 99.938C148.898 98.7191 149.482 97.2659 149.482 95.5783C149.482 97.2659 150.064 98.7191 151.228 99.938C152.392 101.157 153.812 101.805 155.488 101.882C153.812 101.959 152.392 102.607 151.228 103.826C150.064 105.045 149.482 106.498 149.482 108.186C149.482 106.498 148.898 105.045 147.729 103.826C146.56 102.607 145.137 101.959 143.46 101.882ZM155.488 93.5102C157.165 93.433 158.582 92.7878 159.74 91.5745C160.899 90.3612 161.478 88.9052 161.478 87.2066C161.478 88.8942 162.062 90.3474 163.231 91.5662C164.401 92.785 165.823 93.433 167.5 93.5102C165.823 93.5874 164.401 94.2327 163.231 95.446C162.062 96.6593 161.478 98.1097 161.478 99.7973C161.478 98.1097 160.899 96.6593 159.74 95.446C158.582 94.2327 157.165 93.5874 155.488 93.5102Z" fill="white"/>
</g>
<path d="M115.823 171.74C114.511 171.74 113.303 171.524 112.199 171.092C111.095 170.66 110.135 170.06 109.319 169.292C108.503 168.508 107.871 167.596 107.423 166.556C106.975 165.5 106.751 164.348 106.751 163.1C106.751 161.852 106.975 160.708 107.423 159.668C107.871 158.612 108.503 157.7 109.319 156.932C110.135 156.148 111.095 155.54 112.199 155.108C113.303 154.676 114.503 154.46 115.799 154.46C117.111 154.46 118.311 154.676 119.399 155.108C120.503 155.54 121.463 156.14 122.279 156.908C123.095 157.676 123.727 158.588 124.175 159.644C124.623 160.7 124.847 161.852 124.847 163.1C124.847 164.348 124.623 165.5 124.175 166.556C123.727 167.612 123.095 168.524 122.279 169.292C121.463 170.06 120.503 170.66 119.399 171.092C118.311 171.524 117.119 171.74 115.823 171.74ZM121.295 175.172C120.703 175.172 120.127 175.1 119.567 174.956C119.023 174.828 118.479 174.604 117.935 174.284C117.407 173.98 116.855 173.572 116.279 173.06C115.703 172.564 115.071 171.948 114.383 171.212L117.695 170.348C118.143 170.94 118.567 171.412 118.967 171.764C119.383 172.132 119.783 172.396 120.167 172.556C120.551 172.716 120.951 172.796 121.367 172.796C122.471 172.796 123.431 172.348 124.247 171.452L125.687 173.18C124.567 174.508 123.103 175.172 121.295 175.172ZM115.799 169.004C116.647 169.004 117.431 168.86 118.151 168.572C118.871 168.284 119.495 167.876 120.023 167.348C120.551 166.804 120.959 166.172 121.247 165.452C121.551 164.732 121.703 163.948 121.703 163.1C121.703 162.236 121.551 161.452 121.247 160.748C120.959 160.028 120.551 159.404 120.023 158.876C119.495 158.332 118.871 157.916 118.151 157.628C117.431 157.34 116.647 157.196 115.799 157.196C114.951 157.196 114.167 157.34 113.447 157.628C112.727 157.916 112.103 158.332 111.575 158.876C111.047 159.404 110.631 160.028 110.327 160.748C110.039 161.452 109.895 162.236 109.895 163.1C109.895 163.948 110.039 164.732 110.327 165.452C110.631 166.172 111.047 166.804 111.575 167.348C112.103 167.876 112.727 168.284 113.447 168.572C114.167 168.86 114.951 169.004 115.799 169.004ZM133.29 171.668C132.202 171.668 131.242 171.468 130.41 171.068C129.578 170.652 128.93 170.028 128.466 169.196C128.002 168.348 127.77 167.284 127.77 166.004V158.684H130.77V165.596C130.77 166.748 131.026 167.612 131.538 168.188C132.066 168.748 132.81 169.028 133.77 169.028C134.474 169.028 135.082 168.884 135.594 168.596C136.122 168.308 136.53 167.876 136.818 167.3C137.122 166.724 137.274 166.012 137.274 165.164V158.684H140.274V171.5H137.418V168.044L137.922 169.1C137.49 169.932 136.858 170.572 136.026 171.02C135.194 171.452 134.282 171.668 133.29 171.668ZM152.098 171.5V168.908L151.93 168.356V163.82C151.93 162.94 151.666 162.26 151.138 161.78C150.61 161.284 149.81 161.036 148.738 161.036C148.018 161.036 147.306 161.148 146.602 161.372C145.914 161.596 145.33 161.908 144.85 162.308L143.674 160.124C144.362 159.596 145.178 159.204 146.122 158.948C147.082 158.676 148.074 158.54 149.098 158.54C150.954 158.54 152.386 158.988 153.394 159.884C154.418 160.764 154.93 162.132 154.93 163.988V171.5H152.098ZM148.066 171.668C147.106 171.668 146.266 171.508 145.546 171.188C144.826 170.852 144.266 170.396 143.866 169.82C143.482 169.228 143.29 168.564 143.29 167.828C143.29 167.108 143.458 166.46 143.794 165.884C144.146 165.308 144.714 164.852 145.498 164.516C146.282 164.18 147.322 164.012 148.618 164.012H152.338V166.004H148.834C147.81 166.004 147.122 166.172 146.77 166.508C146.418 166.828 146.242 167.228 146.242 167.708C146.242 168.252 146.458 168.684 146.89 169.004C147.322 169.324 147.922 169.484 148.69 169.484C149.426 169.484 150.082 169.316 150.658 168.98C151.25 168.644 151.674 168.148 151.93 167.492L152.434 169.292C152.146 170.044 151.626 170.628 150.874 171.044C150.138 171.46 149.202 171.668 148.066 171.668ZM158.781 171.5V153.692H161.781V171.5H158.781ZM165.718 171.5V158.684H168.718V171.5H165.718ZM167.23 156.572C166.67 156.572 166.206 156.396 165.838 156.044C165.486 155.692 165.31 155.268 165.31 154.772C165.31 154.26 165.486 153.836 165.838 153.5C166.206 153.148 166.67 152.972 167.23 152.972C167.79 152.972 168.246 153.14 168.598 153.476C168.966 153.796 169.15 154.204 169.15 154.7C169.15 155.228 168.974 155.676 168.622 156.044C168.27 156.396 167.806 156.572 167.23 156.572ZM177.48 171.668C176.072 171.668 174.984 171.308 174.215 170.588C173.448 169.852 173.064 168.772 173.064 167.348V155.852H176.064V167.276C176.064 167.884 176.216 168.356 176.52 168.692C176.84 169.028 177.28 169.196 177.84 169.196C178.512 169.196 179.072 169.02 179.52 168.668L180.36 170.804C180.008 171.092 179.576 171.308 179.064 171.452C178.552 171.596 178.024 171.668 177.48 171.668ZM170.952 161.18V158.78H179.496V161.18H170.952ZM183.649 176.324C183.025 176.324 182.401 176.22 181.777 176.012C181.153 175.804 180.633 175.516 180.217 175.148L181.417 172.94C181.721 173.212 182.065 173.428 182.449 173.588C182.833 173.748 183.225 173.828 183.625 173.828C184.169 173.828 184.609 173.692 184.945 173.42C185.281 173.148 185.593 172.692 185.881 172.052L186.625 170.372L186.865 170.012L191.713 158.684H194.593L188.593 172.532C188.193 173.492 187.745 174.252 187.249 174.812C186.769 175.372 186.225 175.764 185.617 175.988C185.025 176.212 184.369 176.324 183.649 176.324ZM186.289 171.956L180.505 158.684H183.625L188.329 169.748L186.289 171.956Z" fill="#3D3D3D"/>
<path d="M34.5458 207.516L31.4738 196.3H32.9138L35.3298 205.916L38.0818 196.3H39.5698L42.2418 205.916L44.6898 196.3H46.1298L42.9938 207.5H41.4578L38.7858 198.252L36.0498 207.5L34.5458 207.516ZM50.4661 207.692C49.7087 207.692 49.0367 207.521 48.4501 207.18C47.8634 206.828 47.3994 206.343 47.0581 205.724C46.7274 205.105 46.5621 204.375 46.5621 203.532C46.5621 202.7 46.7274 201.975 47.0581 201.356C47.3887 200.727 47.8474 200.241 48.4341 199.9C49.0314 199.548 49.7194 199.372 50.4981 199.372C51.2661 199.372 51.9274 199.548 52.4821 199.9C53.0474 200.241 53.4794 200.695 53.7781 201.26C54.0767 201.825 54.2261 202.433 54.2261 203.084C54.2261 203.201 54.2207 203.319 54.2101 203.436C54.2101 203.553 54.2101 203.687 54.2101 203.836H47.8901C47.9221 204.444 48.0607 204.951 48.3061 205.356C48.5621 205.751 48.8767 206.049 49.2501 206.252C49.6341 206.455 50.0394 206.556 50.4661 206.556C51.0207 206.556 51.4847 206.428 51.8581 206.172C52.2314 205.916 52.5034 205.569 52.6741 205.132H54.0021C53.7887 205.868 53.3781 206.481 52.7701 206.972C52.1727 207.452 51.4047 207.692 50.4661 207.692ZM50.4661 200.508C49.8261 200.508 49.2554 200.705 48.7541 201.1C48.2634 201.484 47.9807 202.049 47.9061 202.796H52.8981C52.8661 202.081 52.6207 201.521 52.1621 201.116C51.7034 200.711 51.1381 200.508 50.4661 200.508ZM60.4018 211.02V199.564H61.6178L61.7458 200.876C62.0018 200.492 62.3645 200.145 62.8338 199.836C63.3138 199.527 63.9218 199.372 64.6578 199.372C65.4471 199.372 66.1351 199.553 66.7218 199.916C67.3085 200.279 67.7618 200.775 68.0818 201.404C68.4125 202.033 68.5778 202.748 68.5778 203.548C68.5778 204.348 68.4125 205.063 68.0818 205.692C67.7618 206.311 67.3031 206.801 66.7058 207.164C66.1191 207.516 65.4311 207.692 64.6418 207.692C63.9911 207.692 63.4098 207.559 62.8978 207.292C62.3965 207.025 62.0125 206.652 61.7458 206.172V211.02H60.4018ZM64.4978 206.524C65.0311 206.524 65.5005 206.401 65.9058 206.156C66.3111 205.9 66.6311 205.548 66.8658 205.1C67.1005 204.652 67.2178 204.129 67.2178 203.532C67.2178 202.935 67.1005 202.412 66.8658 201.964C66.6311 201.516 66.3111 201.169 65.9058 200.924C65.5005 200.668 65.0311 200.54 64.4978 200.54C63.9645 200.54 63.4951 200.668 63.0898 200.924C62.6845 201.169 62.3645 201.516 62.1298 201.964C61.8951 202.412 61.7778 202.935 61.7778 203.532C61.7778 204.129 61.8951 204.652 62.1298 205.1C62.3645 205.548 62.6845 205.9 63.0898 206.156C63.4951 206.401 63.9645 206.524 64.4978 206.524ZM70.5287 207.5V199.564H71.7447L71.8567 201.084C72.102 200.561 72.4754 200.145 72.9767 199.836C73.478 199.527 74.0967 199.372 74.8327 199.372V200.78H74.4647C73.9954 200.78 73.5634 200.865 73.1687 201.036C72.774 201.196 72.4594 201.473 72.2247 201.868C71.99 202.263 71.8727 202.807 71.8727 203.5V207.5H70.5287ZM79.7403 207.692C78.9937 207.692 78.3217 207.521 77.7243 207.18C77.127 206.839 76.6523 206.359 76.3003 205.74C75.959 205.111 75.7883 204.375 75.7883 203.532C75.7883 202.689 75.9643 201.959 76.3163 201.34C76.6683 200.711 77.143 200.225 77.7403 199.884C78.3483 199.543 79.0257 199.372 79.7723 199.372C80.519 199.372 81.191 199.543 81.7883 199.884C82.3857 200.225 82.855 200.711 83.1963 201.34C83.5483 201.959 83.7243 202.689 83.7243 203.532C83.7243 204.375 83.5483 205.111 83.1963 205.74C82.8443 206.359 82.3643 206.839 81.7563 207.18C81.159 207.521 80.487 207.692 79.7403 207.692ZM79.7403 206.54C80.199 206.54 80.6257 206.428 81.0203 206.204C81.415 205.98 81.735 205.644 81.9803 205.196C82.2257 204.748 82.3483 204.193 82.3483 203.532C82.3483 202.871 82.2257 202.316 81.9803 201.868C81.7457 201.42 81.431 201.084 81.0363 200.86C80.6417 200.636 80.2203 200.524 79.7723 200.524C79.3137 200.524 78.887 200.636 78.4923 200.86C78.0977 201.084 77.7777 201.42 77.5323 201.868C77.287 202.316 77.1643 202.871 77.1643 203.532C77.1643 204.193 77.287 204.748 77.5323 205.196C77.7777 205.644 78.0923 205.98 78.4763 206.204C78.871 206.428 79.2923 206.54 79.7403 206.54ZM87.5548 207.5L84.5468 199.564H85.9548L88.3388 206.204L90.7388 199.564H92.1148L89.1068 207.5H87.5548ZM94.5066 197.804C94.2399 197.804 94.0159 197.719 93.8346 197.548C93.6639 197.367 93.5786 197.143 93.5786 196.876C93.5786 196.62 93.6639 196.407 93.8346 196.236C94.0159 196.065 94.2399 195.98 94.5066 195.98C94.7626 195.98 94.9812 196.065 95.1626 196.236C95.3439 196.407 95.4346 196.62 95.4346 196.876C95.4346 197.143 95.3439 197.367 95.1626 197.548C94.9812 197.719 94.7626 197.804 94.5066 197.804ZM93.8346 207.5V199.564H95.1786V207.5H93.8346ZM101.199 207.692C100.409 207.692 99.716 207.511 99.1187 207.148C98.532 206.785 98.0734 206.289 97.7427 205.66C97.4227 205.031 97.2627 204.316 97.2627 203.516C97.2627 202.716 97.428 202.007 97.7587 201.388C98.0894 200.759 98.548 200.268 99.1347 199.916C99.7214 199.553 100.415 199.372 101.215 199.372C101.865 199.372 102.441 199.505 102.943 199.772C103.444 200.039 103.833 200.412 104.111 200.892V195.98H105.455V207.5H104.239L104.111 206.188C103.855 206.572 103.487 206.919 103.007 207.228C102.527 207.537 101.924 207.692 101.199 207.692ZM101.343 206.524C101.876 206.524 102.345 206.401 102.751 206.156C103.167 205.9 103.487 205.548 103.711 205.1C103.945 204.652 104.063 204.129 104.063 203.532C104.063 202.935 103.945 202.412 103.711 201.964C103.487 201.516 103.167 201.169 102.751 200.924C102.345 200.668 101.876 200.54 101.343 200.54C100.82 200.54 100.351 200.668 99.9347 200.924C99.5294 201.169 99.2094 201.516 98.9747 201.964C98.7507 202.412 98.6387 202.935 98.6387 203.532C98.6387 204.129 98.7507 204.652 98.9747 205.1C99.2094 205.548 99.5294 205.9 99.9347 206.156C100.351 206.401 100.82 206.524 101.343 206.524ZM111.294 207.692C110.536 207.692 109.864 207.521 109.278 207.18C108.691 206.828 108.227 206.343 107.886 205.724C107.555 205.105 107.39 204.375 107.39 203.532C107.39 202.7 107.555 201.975 107.886 201.356C108.216 200.727 108.675 200.241 109.262 199.9C109.859 199.548 110.547 199.372 111.326 199.372C112.094 199.372 112.755 199.548 113.31 199.9C113.875 200.241 114.307 200.695 114.606 201.26C114.904 201.825 115.054 202.433 115.054 203.084C115.054 203.201 115.048 203.319 115.038 203.436C115.038 203.553 115.038 203.687 115.038 203.836H108.718C108.75 204.444 108.888 204.951 109.134 205.356C109.39 205.751 109.704 206.049 110.078 206.252C110.462 206.455 110.867 206.556 111.294 206.556C111.848 206.556 112.312 206.428 112.686 206.172C113.059 205.916 113.331 205.569 113.502 205.132H114.83C114.616 205.868 114.206 206.481 113.598 206.972C113 207.452 112.232 207.692 111.294 207.692ZM111.294 200.508C110.654 200.508 110.083 200.705 109.582 201.1C109.091 201.484 108.808 202.049 108.734 202.796H113.726C113.694 202.081 113.448 201.521 112.99 201.116C112.531 200.711 111.966 200.508 111.294 200.508ZM124.365 207.5C123.64 207.5 123.069 207.324 122.653 206.972C122.237 206.62 122.029 205.985 122.029 205.068V200.7H120.653V199.564H122.029L122.205 197.66H123.373V199.564H125.709V200.7H123.373V205.068C123.373 205.569 123.475 205.911 123.677 206.092C123.88 206.263 124.237 206.348 124.749 206.348H125.581V207.5H124.365ZM130.894 207.692C130.147 207.692 129.475 207.521 128.878 207.18C128.281 206.839 127.806 206.359 127.454 205.74C127.113 205.111 126.942 204.375 126.942 203.532C126.942 202.689 127.118 201.959 127.47 201.34C127.822 200.711 128.297 200.225 128.894 199.884C129.502 199.543 130.179 199.372 130.926 199.372C131.673 199.372 132.345 199.543 132.942 199.884C133.539 200.225 134.009 200.711 134.35 201.34C134.702 201.959 134.878 202.689 134.878 203.532C134.878 204.375 134.702 205.111 134.35 205.74C133.998 206.359 133.518 206.839 132.91 207.18C132.313 207.521 131.641 207.692 130.894 207.692ZM130.894 206.54C131.353 206.54 131.779 206.428 132.174 206.204C132.569 205.98 132.889 205.644 133.134 205.196C133.379 204.748 133.502 204.193 133.502 203.532C133.502 202.871 133.379 202.316 133.134 201.868C132.899 201.42 132.585 201.084 132.19 200.86C131.795 200.636 131.374 200.524 130.926 200.524C130.467 200.524 130.041 200.636 129.646 200.86C129.251 201.084 128.931 201.42 128.686 201.868C128.441 202.316 128.318 202.871 128.318 203.532C128.318 204.193 128.441 204.748 128.686 205.196C128.931 205.644 129.246 205.98 129.63 206.204C130.025 206.428 130.446 206.54 130.894 206.54ZM136.827 211.02V199.564H138.043L138.171 200.876C138.427 200.492 138.789 200.145 139.259 199.836C139.739 199.527 140.347 199.372 141.083 199.372C141.872 199.372 142.56 199.553 143.147 199.916C143.733 200.279 144.187 200.775 144.507 201.404C144.837 202.033 145.003 202.748 145.003 203.548C145.003 204.348 144.837 205.063 144.507 205.692C144.187 206.311 143.728 206.801 143.131 207.164C142.544 207.516 141.856 207.692 141.067 207.692C140.416 207.692 139.835 207.559 139.323 207.292C138.821 207.025 138.437 206.652 138.171 206.172V211.02H136.827ZM140.923 206.524C141.456 206.524 141.925 206.401 142.331 206.156C142.736 205.9 143.056 205.548 143.291 205.1C143.525 204.652 143.643 204.129 143.643 203.532C143.643 202.935 143.525 202.412 143.291 201.964C143.056 201.516 142.736 201.169 142.331 200.924C141.925 200.668 141.456 200.54 140.923 200.54C140.389 200.54 139.92 200.668 139.515 200.924C139.109 201.169 138.789 201.516 138.555 201.964C138.32 202.412 138.203 202.935 138.203 203.532C138.203 204.129 138.32 204.652 138.555 205.1C138.789 205.548 139.109 205.9 139.515 206.156C139.92 206.401 140.389 206.524 140.923 206.524ZM146.794 203.42V202.284H153.13V203.42H146.794ZM155.237 207.5V199.564H156.453L156.533 200.988C156.789 200.487 157.157 200.092 157.637 199.804C158.117 199.516 158.661 199.372 159.269 199.372C160.207 199.372 160.954 199.66 161.509 200.236C162.074 200.801 162.357 201.676 162.357 202.86V207.5H161.013V203.004C161.013 201.351 160.33 200.524 158.965 200.524C158.282 200.524 157.711 200.775 157.253 201.276C156.805 201.767 156.581 202.471 156.581 203.388V207.5H155.237ZM168.089 207.692C167.342 207.692 166.67 207.521 166.073 207.18C165.476 206.839 165.001 206.359 164.649 205.74C164.308 205.111 164.137 204.375 164.137 203.532C164.137 202.689 164.313 201.959 164.665 201.34C165.017 200.711 165.492 200.225 166.089 199.884C166.697 199.543 167.374 199.372 168.121 199.372C168.868 199.372 169.54 199.543 170.137 199.884C170.734 200.225 171.204 200.711 171.545 201.34C171.897 201.959 172.073 202.689 172.073 203.532C172.073 204.375 171.897 205.111 171.545 205.74C171.193 206.359 170.713 206.839 170.105 207.18C169.508 207.521 168.836 207.692 168.089 207.692ZM168.089 206.54C168.548 206.54 168.974 206.428 169.369 206.204C169.764 205.98 170.084 205.644 170.329 205.196C170.574 204.748 170.697 204.193 170.697 203.532C170.697 202.871 170.574 202.316 170.329 201.868C170.094 201.42 169.78 201.084 169.385 200.86C168.99 200.636 168.569 200.524 168.121 200.524C167.662 200.524 167.236 200.636 166.841 200.86C166.446 201.084 166.126 201.42 165.881 201.868C165.636 202.316 165.513 202.871 165.513 203.532C165.513 204.193 165.636 204.748 165.881 205.196C166.126 205.644 166.441 205.98 166.825 206.204C167.22 206.428 167.641 206.54 168.089 206.54ZM176.845 207.5C176.12 207.5 175.549 207.324 175.133 206.972C174.717 206.62 174.509 205.985 174.509 205.068V200.7H173.133V199.564H174.509L174.685 197.66H175.853V199.564H178.189V200.7H175.853V205.068C175.853 205.569 175.955 205.911 176.157 206.092C176.36 206.263 176.717 206.348 177.229 206.348H178.061V207.5H176.845ZM183.406 207.692C182.649 207.692 181.966 207.521 181.358 207.18C180.761 206.828 180.286 206.343 179.934 205.724C179.593 205.095 179.422 204.364 179.422 203.532C179.422 202.7 179.593 201.975 179.934 201.356C180.286 200.727 180.761 200.241 181.358 199.9C181.966 199.548 182.649 199.372 183.406 199.372C184.345 199.372 185.134 199.617 185.774 200.108C186.425 200.599 186.835 201.255 187.006 202.076H185.63C185.523 201.585 185.262 201.207 184.846 200.94C184.43 200.663 183.945 200.524 183.39 200.524C182.942 200.524 182.521 200.636 182.126 200.86C181.731 201.084 181.411 201.42 181.166 201.868C180.921 202.316 180.798 202.871 180.798 203.532C180.798 204.193 180.921 204.748 181.166 205.196C181.411 205.644 181.731 205.985 182.126 206.22C182.521 206.444 182.942 206.556 183.39 206.556C183.945 206.556 184.43 206.423 184.846 206.156C185.262 205.879 185.523 205.489 185.63 204.988H187.006C186.846 205.788 186.441 206.439 185.79 206.94C185.139 207.441 184.345 207.692 183.406 207.692ZM188.963 207.5V195.98H190.307V200.924C190.574 200.433 190.952 200.055 191.443 199.788C191.934 199.511 192.467 199.372 193.043 199.372C193.96 199.372 194.696 199.66 195.251 200.236C195.806 200.801 196.083 201.676 196.083 202.86V207.5H194.755V203.004C194.755 201.351 194.088 200.524 192.755 200.524C192.062 200.524 191.48 200.775 191.011 201.276C190.542 201.767 190.307 202.471 190.307 203.388V207.5H188.963ZM205.554 207.692C204.604 207.692 203.815 207.452 203.186 206.972C202.556 206.492 202.188 205.841 202.082 205.02H203.458C203.543 205.436 203.762 205.799 204.114 206.108C204.476 206.407 204.962 206.556 205.57 206.556C206.135 206.556 206.551 206.439 206.818 206.204C207.084 205.959 207.218 205.671 207.218 205.34C207.218 204.86 207.042 204.54 206.69 204.38C206.348 204.22 205.863 204.076 205.234 203.948C204.807 203.863 204.38 203.74 203.954 203.58C203.527 203.42 203.17 203.196 202.882 202.908C202.594 202.609 202.45 202.22 202.45 201.74C202.45 201.047 202.706 200.481 203.218 200.044C203.74 199.596 204.444 199.372 205.33 199.372C206.172 199.372 206.86 199.585 207.394 200.012C207.938 200.428 208.252 201.025 208.338 201.804H207.01C206.956 201.399 206.78 201.084 206.482 200.86C206.194 200.625 205.804 200.508 205.314 200.508C204.834 200.508 204.46 200.609 204.194 200.812C203.938 201.015 203.81 201.281 203.81 201.612C203.81 201.932 203.975 202.183 204.306 202.364C204.647 202.545 205.106 202.7 205.682 202.828C206.172 202.935 206.636 203.068 207.074 203.228C207.522 203.377 207.884 203.607 208.162 203.916C208.45 204.215 208.594 204.652 208.594 205.228C208.604 205.943 208.332 206.535 207.778 207.004C207.234 207.463 206.492 207.692 205.554 207.692ZM214.21 207.692C213.463 207.692 212.791 207.521 212.194 207.18C211.596 206.839 211.122 206.359 210.77 205.74C210.428 205.111 210.258 204.375 210.258 203.532C210.258 202.689 210.434 201.959 210.786 201.34C211.138 200.711 211.612 200.225 212.21 199.884C212.818 199.543 213.495 199.372 214.242 199.372C214.988 199.372 215.66 199.543 216.258 199.884C216.855 200.225 217.324 200.711 217.666 201.34C218.018 201.959 218.194 202.689 218.194 203.532C218.194 204.375 218.018 205.111 217.666 205.74C217.314 206.359 216.834 206.839 216.226 207.18C215.628 207.521 214.956 207.692 214.21 207.692ZM214.21 206.54C214.668 206.54 215.095 206.428 215.49 206.204C215.884 205.98 216.204 205.644 216.45 205.196C216.695 204.748 216.818 204.193 216.818 203.532C216.818 202.871 216.695 202.316 216.45 201.868C216.215 201.42 215.9 201.084 215.506 200.86C215.111 200.636 214.69 200.524 214.242 200.524C213.783 200.524 213.356 200.636 212.962 200.86C212.567 201.084 212.247 201.42 212.002 201.868C211.756 202.316 211.634 202.871 211.634 203.532C211.634 204.193 211.756 204.748 212.002 205.196C212.247 205.644 212.562 205.98 212.946 206.204C213.34 206.428 213.762 206.54 214.21 206.54ZM220.142 207.5V195.98H221.486V207.5H220.142ZM226.665 207.692C225.727 207.692 224.98 207.409 224.425 206.844C223.871 206.268 223.593 205.388 223.593 204.204V199.564H224.937V204.06C224.937 205.713 225.615 206.54 226.969 206.54C227.663 206.54 228.233 206.295 228.681 205.804C229.14 205.303 229.369 204.593 229.369 203.676V199.564H230.713V207.5H229.497L229.401 206.076C229.156 206.577 228.788 206.972 228.297 207.26C227.817 207.548 227.273 207.692 226.665 207.692ZM236.142 207.5C235.416 207.5 234.846 207.324 234.43 206.972C234.014 206.62 233.806 205.985 233.806 205.068V200.7H232.43V199.564H233.806L233.982 197.66H235.15V199.564H237.486V200.7H235.15V205.068C235.15 205.569 235.251 205.911 235.454 206.092C235.656 206.263 236.014 206.348 236.526 206.348H237.358V207.5H236.142ZM240.089 197.804C239.822 197.804 239.598 197.719 239.417 197.548C239.246 197.367 239.161 197.143 239.161 196.876C239.161 196.62 239.246 196.407 239.417 196.236C239.598 196.065 239.822 195.98 240.089 195.98C240.345 195.98 240.564 196.065 240.745 196.236C240.926 196.407 241.017 196.62 241.017 196.876C241.017 197.143 240.926 197.367 240.745 197.548C240.564 197.719 240.345 197.804 240.089 197.804ZM239.417 207.5V199.564H240.761V207.5H239.417ZM246.797 207.692C246.051 207.692 245.379 207.521 244.781 207.18C244.184 206.839 243.709 206.359 243.357 205.74C243.016 205.111 242.845 204.375 242.845 203.532C242.845 202.689 243.021 201.959 243.373 201.34C243.725 200.711 244.2 200.225 244.797 199.884C245.405 199.543 246.083 199.372 246.829 199.372C247.576 199.372 248.248 199.543 248.845 199.884C249.443 200.225 249.912 200.711 250.253 201.34C250.605 201.959 250.781 202.689 250.781 203.532C250.781 204.375 250.605 205.111 250.253 205.74C249.901 206.359 249.421 206.839 248.813 207.18C248.216 207.521 247.544 207.692 246.797 207.692ZM246.797 206.54C247.256 206.54 247.683 206.428 248.077 206.204C248.472 205.98 248.792 205.644 249.037 205.196C249.283 204.748 249.405 204.193 249.405 203.532C249.405 202.871 249.283 202.316 249.037 201.868C248.803 201.42 248.488 201.084 248.093 200.86C247.699 200.636 247.277 200.524 246.829 200.524C246.371 200.524 245.944 200.636 245.549 200.86C245.155 201.084 244.835 201.42 244.589 201.868C244.344 202.316 244.221 202.871 244.221 203.532C244.221 204.193 244.344 204.748 244.589 205.196C244.835 205.644 245.149 205.98 245.533 206.204C245.928 206.428 246.349 206.54 246.797 206.54ZM252.73 207.5V199.564H253.946L254.026 200.988C254.282 200.487 254.65 200.092 255.13 199.804C255.61 199.516 256.154 199.372 256.762 199.372C257.701 199.372 258.447 199.66 259.002 200.236C259.567 200.801 259.85 201.676 259.85 202.86V207.5H258.506V203.004C258.506 201.351 257.823 200.524 256.458 200.524C255.775 200.524 255.205 200.775 254.746 201.276C254.298 201.767 254.074 202.471 254.074 203.388V207.5H252.73ZM265.006 207.692C264.057 207.692 263.268 207.452 262.638 206.972C262.009 206.492 261.641 205.841 261.534 205.02H262.91C262.996 205.436 263.214 205.799 263.566 206.108C263.929 206.407 264.414 206.556 265.022 206.556C265.588 206.556 266.004 206.439 266.27 206.204C266.537 205.959 266.67 205.671 266.67 205.34C266.67 204.86 266.494 204.54 266.142 204.38C265.801 204.22 265.316 204.076 264.686 203.948C264.26 203.863 263.833 203.74 263.406 203.58C262.98 203.42 262.622 203.196 262.334 202.908C262.046 202.609 261.902 202.22 261.902 201.74C261.902 201.047 262.158 200.481 262.67 200.044C263.193 199.596 263.897 199.372 264.782 199.372C265.625 199.372 266.313 199.585 266.846 200.012C267.39 200.428 267.705 201.025 267.79 201.804H266.462C266.409 201.399 266.233 201.084 265.934 200.86C265.646 200.625 265.257 200.508 264.766 200.508C264.286 200.508 263.913 200.609 263.646 200.812C263.39 201.015 263.262 201.281 263.262 201.612C263.262 201.932 263.428 202.183 263.758 202.364C264.1 202.545 264.558 202.7 265.134 202.828C265.625 202.935 266.089 203.068 266.526 203.228C266.974 203.377 267.337 203.607 267.614 203.916C267.902 204.215 268.046 204.652 268.046 205.228C268.057 205.943 267.785 206.535 267.23 207.004C266.686 207.463 265.945 207.692 265.006 207.692ZM62.5168 228.692C61.8661 228.692 61.2848 228.559 60.7728 228.292C60.2715 228.025 59.8875 227.652 59.6208 227.172L59.4928 228.5H58.2768V216.98H59.6208V221.876C59.8768 221.492 60.2395 221.145 60.7088 220.836C61.1888 220.527 61.7968 220.372 62.5328 220.372C63.3221 220.372 64.0101 220.553 64.5968 220.916C65.1835 221.279 65.6368 221.775 65.9568 222.404C66.2875 223.033 66.4528 223.748 66.4528 224.548C66.4528 225.348 66.2875 226.063 65.9568 226.692C65.6368 227.311 65.1781 227.801 64.5808 228.164C63.9941 228.516 63.3061 228.692 62.5168 228.692ZM62.3728 227.524C62.9061 227.524 63.3755 227.401 63.7808 227.156C64.1861 226.9 64.5061 226.548 64.7408 226.1C64.9755 225.652 65.0928 225.129 65.0928 224.532C65.0928 223.935 64.9755 223.412 64.7408 222.964C64.5061 222.516 64.1861 222.169 63.7808 221.924C63.3755 221.668 62.9061 221.54 62.3728 221.54C61.8395 221.54 61.3701 221.668 60.9648 221.924C60.5595 222.169 60.2395 222.516 60.0048 222.964C59.7701 223.412 59.6528 223.935 59.6528 224.532C59.6528 225.129 59.7701 225.652 60.0048 226.1C60.2395 226.548 60.5595 226.9 60.9648 227.156C61.3701 227.401 61.8395 227.524 62.3728 227.524ZM68.6271 232.02L70.5951 227.732H70.1311L66.9791 220.564H68.4351L71.0591 226.74L73.8431 220.564H75.2351L70.0351 232.02H68.6271ZM81.0481 232.02V220.564H82.2641L82.3921 221.876C82.6481 221.492 83.0107 221.145 83.4801 220.836C83.9601 220.527 84.5681 220.372 85.3041 220.372C86.0934 220.372 86.7814 220.553 87.3681 220.916C87.9547 221.279 88.4081 221.775 88.7281 222.404C89.0587 223.033 89.2241 223.748 89.2241 224.548C89.2241 225.348 89.0587 226.063 88.7281 226.692C88.4081 227.311 87.9494 227.801 87.3521 228.164C86.7654 228.516 86.0774 228.692 85.2881 228.692C84.6374 228.692 84.0561 228.559 83.5441 228.292C83.0427 228.025 82.6587 227.652 82.3921 227.172V232.02H81.0481ZM85.1441 227.524C85.6774 227.524 86.1467 227.401 86.5521 227.156C86.9574 226.9 87.2774 226.548 87.5121 226.1C87.7467 225.652 87.8641 225.129 87.8641 224.532C87.8641 223.935 87.7467 223.412 87.5121 222.964C87.2774 222.516 86.9574 222.169 86.5521 221.924C86.1467 221.668 85.6774 221.54 85.1441 221.54C84.6107 221.54 84.1414 221.668 83.7361 221.924C83.3307 222.169 83.0107 222.516 82.7761 222.964C82.5414 223.412 82.4241 223.935 82.4241 224.532C82.4241 225.129 82.5414 225.652 82.7761 226.1C83.0107 226.548 83.3307 226.9 83.7361 227.156C84.1414 227.401 84.6107 227.524 85.1441 227.524ZM91.1749 228.5V220.564H92.3909L92.5029 222.084C92.7483 221.561 93.1216 221.145 93.6229 220.836C94.1243 220.527 94.7429 220.372 95.4789 220.372V221.78H95.1109C94.6416 221.78 94.2096 221.865 93.8149 222.036C93.4203 222.196 93.1056 222.473 92.8709 222.868C92.6363 223.263 92.5189 223.807 92.5189 224.5V228.5H91.1749ZM100.387 228.692C99.6399 228.692 98.9679 228.521 98.3706 228.18C97.7732 227.839 97.2986 227.359 96.9466 226.74C96.6052 226.111 96.4346 225.375 96.4346 224.532C96.4346 223.689 96.6106 222.959 96.9626 222.34C97.3146 221.711 97.7892 221.225 98.3866 220.884C98.9946 220.543 99.6719 220.372 100.419 220.372C101.165 220.372 101.837 220.543 102.435 220.884C103.032 221.225 103.501 221.711 103.843 222.34C104.195 222.959 104.371 223.689 104.371 224.532C104.371 225.375 104.195 226.111 103.843 226.74C103.491 227.359 103.011 227.839 102.403 228.18C101.805 228.521 101.133 228.692 100.387 228.692ZM100.387 227.54C100.845 227.54 101.272 227.428 101.667 227.204C102.061 226.98 102.381 226.644 102.627 226.196C102.872 225.748 102.995 225.193 102.995 224.532C102.995 223.871 102.872 223.316 102.627 222.868C102.392 222.42 102.077 222.084 101.683 221.86C101.288 221.636 100.867 221.524 100.419 221.524C99.9599 221.524 99.5332 221.636 99.1386 221.86C98.7439 222.084 98.4239 222.42 98.1786 222.868C97.9332 223.316 97.8106 223.871 97.8106 224.532C97.8106 225.193 97.9332 225.748 98.1786 226.196C98.4239 226.644 98.7386 226.98 99.1226 227.204C99.5172 227.428 99.9386 227.54 100.387 227.54ZM108.201 228.5L105.193 220.564H106.601L108.985 227.204L111.385 220.564H112.761L109.753 228.5H108.201ZM115.153 218.804C114.886 218.804 114.662 218.719 114.481 218.548C114.31 218.367 114.225 218.143 114.225 217.876C114.225 217.62 114.31 217.407 114.481 217.236C114.662 217.065 114.886 216.98 115.153 216.98C115.409 216.98 115.627 217.065 115.809 217.236C115.99 217.407 116.081 217.62 116.081 217.876C116.081 218.143 115.99 218.367 115.809 218.548C115.627 218.719 115.409 218.804 115.153 218.804ZM114.481 228.5V220.564H115.825V228.5H114.481ZM121.845 228.692C121.056 228.692 120.362 228.511 119.765 228.148C119.178 227.785 118.72 227.289 118.389 226.66C118.069 226.031 117.909 225.316 117.909 224.516C117.909 223.716 118.074 223.007 118.405 222.388C118.736 221.759 119.194 221.268 119.781 220.916C120.368 220.553 121.061 220.372 121.861 220.372C122.512 220.372 123.088 220.505 123.589 220.772C124.09 221.039 124.48 221.412 124.757 221.892V216.98H126.101V228.5H124.885L124.757 227.188C124.501 227.572 124.133 227.919 123.653 228.228C123.173 228.537 122.57 228.692 121.845 228.692ZM121.989 227.524C122.522 227.524 122.992 227.401 123.397 227.156C123.813 226.9 124.133 226.548 124.357 226.1C124.592 225.652 124.709 225.129 124.709 224.532C124.709 223.935 124.592 223.412 124.357 222.964C124.133 222.516 123.813 222.169 123.397 221.924C122.992 221.668 122.522 221.54 121.989 221.54C121.466 221.54 120.997 221.668 120.581 221.924C120.176 222.169 119.856 222.516 119.621 222.964C119.397 223.412 119.285 223.935 119.285 224.532C119.285 225.129 119.397 225.652 119.621 226.1C119.856 226.548 120.176 226.9 120.581 227.156C120.997 227.401 121.466 227.524 121.989 227.524ZM129.188 218.804C128.921 218.804 128.697 218.719 128.516 218.548C128.345 218.367 128.26 218.143 128.26 217.876C128.26 217.62 128.345 217.407 128.516 217.236C128.697 217.065 128.921 216.98 129.188 216.98C129.444 216.98 129.662 217.065 129.844 217.236C130.025 217.407 130.116 217.62 130.116 217.876C130.116 218.143 130.025 218.367 129.844 218.548C129.662 218.719 129.444 218.804 129.188 218.804ZM128.516 228.5V220.564H129.86V228.5H128.516ZM132.28 228.5V220.564H133.496L133.576 221.988C133.832 221.487 134.2 221.092 134.68 220.804C135.16 220.516 135.704 220.372 136.312 220.372C137.251 220.372 137.997 220.66 138.552 221.236C139.117 221.801 139.4 222.676 139.4 223.86V228.5H138.056V224.004C138.056 222.351 137.373 221.524 136.008 221.524C135.325 221.524 134.755 221.775 134.296 222.276C133.848 222.767 133.624 223.471 133.624 224.388V228.5H132.28ZM144.652 226.004C144.204 226.004 143.794 225.945 143.42 225.828L142.62 226.58C142.738 226.665 142.882 226.74 143.052 226.804C143.234 226.857 143.49 226.911 143.82 226.964C144.151 227.007 144.615 227.055 145.212 227.108C146.279 227.183 147.042 227.428 147.5 227.844C147.959 228.26 148.188 228.804 148.188 229.476C148.188 229.935 148.06 230.372 147.804 230.788C147.559 231.204 147.175 231.545 146.652 231.812C146.14 232.079 145.479 232.212 144.668 232.212C143.954 232.212 143.319 232.116 142.764 231.924C142.21 231.743 141.778 231.46 141.468 231.076C141.159 230.703 141.004 230.228 141.004 229.652C141.004 229.353 141.084 229.028 141.244 228.676C141.404 228.335 141.703 228.009 142.14 227.7C141.906 227.604 141.703 227.503 141.532 227.396C141.372 227.279 141.223 227.151 141.084 227.012V226.644L142.444 225.3C141.815 224.767 141.5 224.063 141.5 223.188C141.5 222.665 141.623 222.191 141.868 221.764C142.114 221.337 142.471 221.001 142.94 220.756C143.41 220.5 143.98 220.372 144.652 220.372C145.111 220.372 145.527 220.436 145.9 220.564H148.828V221.572L147.34 221.636C147.65 222.084 147.804 222.601 147.804 223.188C147.804 223.711 147.676 224.185 147.42 224.612C147.175 225.039 146.818 225.38 146.348 225.636C145.89 225.881 145.324 226.004 144.652 226.004ZM144.652 224.9C145.218 224.9 145.666 224.756 145.996 224.468C146.338 224.169 146.508 223.743 146.508 223.188C146.508 222.644 146.338 222.228 145.996 221.94C145.666 221.641 145.218 221.492 144.652 221.492C144.076 221.492 143.618 221.641 143.276 221.94C142.946 222.228 142.78 222.644 142.78 223.188C142.78 223.743 142.946 224.169 143.276 224.468C143.618 224.756 144.076 224.9 144.652 224.9ZM142.316 229.524C142.316 230.057 142.54 230.452 142.988 230.708C143.436 230.975 143.996 231.108 144.668 231.108C145.33 231.108 145.858 230.964 146.252 230.676C146.658 230.388 146.86 230.004 146.86 229.524C146.86 229.183 146.722 228.884 146.444 228.628C146.167 228.383 145.655 228.239 144.908 228.196C144.322 228.153 143.815 228.1 143.388 228.036C142.951 228.271 142.663 228.521 142.524 228.788C142.386 229.065 142.316 229.311 142.316 229.524ZM158.355 228.692C157.608 228.692 156.936 228.521 156.339 228.18C155.741 227.839 155.267 227.359 154.915 226.74C154.573 226.111 154.403 225.375 154.403 224.532C154.403 223.689 154.579 222.959 154.931 222.34C155.283 221.711 155.757 221.225 156.355 220.884C156.963 220.543 157.64 220.372 158.387 220.372C159.133 220.372 159.805 220.543 160.403 220.884C161 221.225 161.469 221.711 161.811 222.34C162.163 222.959 162.339 223.689 162.339 224.532C162.339 225.375 162.163 226.111 161.811 226.74C161.459 227.359 160.979 227.839 160.371 228.18C159.773 228.521 159.101 228.692 158.355 228.692ZM158.355 227.54C158.813 227.54 159.24 227.428 159.635 227.204C160.029 226.98 160.349 226.644 160.595 226.196C160.84 225.748 160.963 225.193 160.963 224.532C160.963 223.871 160.84 223.316 160.595 222.868C160.36 222.42 160.045 222.084 159.651 221.86C159.256 221.636 158.835 221.524 158.387 221.524C157.928 221.524 157.501 221.636 157.107 221.86C156.712 222.084 156.392 222.42 156.147 222.868C155.901 223.316 155.779 223.871 155.779 224.532C155.779 225.193 155.901 225.748 156.147 226.196C156.392 226.644 156.707 226.98 157.091 227.204C157.485 227.428 157.907 227.54 158.355 227.54ZM167.183 228.692C166.245 228.692 165.498 228.409 164.943 227.844C164.389 227.268 164.111 226.388 164.111 225.204V220.564H165.455V225.06C165.455 226.713 166.133 227.54 167.487 227.54C168.181 227.54 168.751 227.295 169.199 226.804C169.658 226.303 169.887 225.593 169.887 224.676V220.564H171.231V228.5H170.015L169.919 227.076C169.674 227.577 169.306 227.972 168.815 228.26C168.335 228.548 167.791 228.692 167.183 228.692ZM176.66 228.5C175.934 228.5 175.364 228.324 174.948 227.972C174.532 227.62 174.324 226.985 174.324 226.068V221.7H172.948V220.564H174.324L174.5 218.66H175.668V220.564H178.004V221.7H175.668V226.068C175.668 226.569 175.769 226.911 175.972 227.092C176.174 227.263 176.532 227.348 177.044 227.348H177.876V228.5H176.66ZM182.831 228.692C181.882 228.692 181.093 228.452 180.463 227.972C179.834 227.492 179.466 226.841 179.359 226.02H180.735C180.821 226.436 181.039 226.799 181.391 227.108C181.754 227.407 182.239 227.556 182.847 227.556C183.413 227.556 183.829 227.439 184.095 227.204C184.362 226.959 184.495 226.671 184.495 226.34C184.495 225.86 184.319 225.54 183.967 225.38C183.626 225.22 183.141 225.076 182.511 224.948C182.085 224.863 181.658 224.74 181.231 224.58C180.805 224.42 180.447 224.196 180.159 223.908C179.871 223.609 179.727 223.22 179.727 222.74C179.727 222.047 179.983 221.481 180.495 221.044C181.018 220.596 181.722 220.372 182.607 220.372C183.45 220.372 184.138 220.585 184.671 221.012C185.215 221.428 185.53 222.025 185.615 222.804H184.287C184.234 222.399 184.058 222.084 183.759 221.86C183.471 221.625 183.082 221.508 182.591 221.508C182.111 221.508 181.738 221.609 181.471 221.812C181.215 222.015 181.087 222.281 181.087 222.612C181.087 222.932 181.253 223.183 181.583 223.364C181.925 223.545 182.383 223.7 182.959 223.828C183.45 223.935 183.914 224.068 184.351 224.228C184.799 224.377 185.162 224.607 185.439 224.916C185.727 225.215 185.871 225.652 185.871 226.228C185.882 226.943 185.61 227.535 185.055 228.004C184.511 228.463 183.77 228.692 182.831 228.692ZM190.648 228.5C189.922 228.5 189.352 228.324 188.936 227.972C188.52 227.62 188.312 226.985 188.312 226.068V221.7H186.936V220.564H188.312L188.488 218.66H189.656V220.564H191.992V221.7H189.656V226.068C189.656 226.569 189.757 226.911 189.96 227.092C190.162 227.263 190.52 227.348 191.032 227.348H191.864V228.5H190.648ZM196.419 228.692C195.758 228.692 195.209 228.58 194.771 228.356C194.334 228.132 194.009 227.833 193.795 227.46C193.582 227.087 193.475 226.681 193.475 226.244C193.475 225.433 193.785 224.809 194.403 224.372C195.022 223.935 195.865 223.716 196.931 223.716H199.075V223.62C199.075 222.927 198.894 222.404 198.531 222.052C198.169 221.689 197.683 221.508 197.075 221.508C196.553 221.508 196.099 221.641 195.715 221.908C195.342 222.164 195.107 222.543 195.011 223.044H193.635C193.689 222.468 193.881 221.983 194.211 221.588C194.553 221.193 194.974 220.895 195.475 220.692C195.977 220.479 196.51 220.372 197.075 220.372C198.185 220.372 199.017 220.671 199.571 221.268C200.137 221.855 200.419 222.639 200.419 223.62V228.5H199.219L199.139 227.076C198.915 227.524 198.585 227.908 198.147 228.228C197.721 228.537 197.145 228.692 196.419 228.692ZM196.627 227.556C197.139 227.556 197.577 227.423 197.939 227.156C198.313 226.889 198.595 226.543 198.787 226.116C198.979 225.689 199.075 225.241 199.075 224.772V224.756H197.043C196.254 224.756 195.694 224.895 195.363 225.172C195.043 225.439 194.883 225.775 194.883 226.18C194.883 226.596 195.033 226.932 195.331 227.188C195.641 227.433 196.073 227.556 196.627 227.556ZM202.516 228.5V220.564H203.732L203.812 221.988C204.068 221.487 204.436 221.092 204.916 220.804C205.396 220.516 205.94 220.372 206.548 220.372C207.486 220.372 208.233 220.66 208.788 221.236C209.353 221.801 209.636 222.676 209.636 223.86V228.5H208.292V224.004C208.292 222.351 207.609 221.524 206.244 221.524C205.561 221.524 204.99 221.775 204.532 222.276C204.084 222.767 203.86 223.471 203.86 224.388V228.5H202.516ZM215.352 228.692C214.562 228.692 213.869 228.511 213.272 228.148C212.685 227.785 212.226 227.289 211.896 226.66C211.576 226.031 211.416 225.316 211.416 224.516C211.416 223.716 211.581 223.007 211.912 222.388C212.242 221.759 212.701 221.268 213.288 220.916C213.874 220.553 214.568 220.372 215.368 220.372C216.018 220.372 216.594 220.505 217.096 220.772C217.597 221.039 217.986 221.412 218.264 221.892V216.98H219.608V228.5H218.392L218.264 227.188C218.008 227.572 217.64 227.919 217.16 228.228C216.68 228.537 216.077 228.692 215.352 228.692ZM215.496 227.524C216.029 227.524 216.498 227.401 216.904 227.156C217.32 226.9 217.64 226.548 217.864 226.1C218.098 225.652 218.216 225.129 218.216 224.532C218.216 223.935 218.098 223.412 217.864 222.964C217.64 222.516 217.32 222.169 216.904 221.924C216.498 221.668 216.029 221.54 215.496 221.54C214.973 221.54 214.504 221.668 214.088 221.924C213.682 222.169 213.362 222.516 213.128 222.964C212.904 223.412 212.792 223.935 212.792 224.532C212.792 225.129 212.904 225.652 213.128 226.1C213.362 226.548 213.682 226.9 214.088 227.156C214.504 227.401 214.973 227.524 215.496 227.524ZM222.695 218.804C222.428 218.804 222.204 218.719 222.023 218.548C221.852 218.367 221.767 218.143 221.767 217.876C221.767 217.62 221.852 217.407 222.023 217.236C222.204 217.065 222.428 216.98 222.695 216.98C222.951 216.98 223.169 217.065 223.351 217.236C223.532 217.407 223.623 217.62 223.623 217.876C223.623 218.143 223.532 218.367 223.351 218.548C223.169 218.719 222.951 218.804 222.695 218.804ZM222.023 228.5V220.564H223.367V228.5H222.023ZM225.787 228.5V220.564H227.003L227.083 221.988C227.339 221.487 227.707 221.092 228.187 220.804C228.667 220.516 229.211 220.372 229.819 220.372C230.757 220.372 231.504 220.66 232.059 221.236C232.624 221.801 232.907 222.676 232.907 223.86V228.5H231.563V224.004C231.563 222.351 230.88 221.524 229.515 221.524C228.832 221.524 228.261 221.775 227.803 222.276C227.355 222.767 227.131 223.471 227.131 224.388V228.5H225.787ZM238.159 226.004C237.711 226.004 237.3 225.945 236.927 225.828L236.127 226.58C236.244 226.665 236.388 226.74 236.559 226.804C236.74 226.857 236.996 226.911 237.327 226.964C237.658 227.007 238.122 227.055 238.719 227.108C239.786 227.183 240.548 227.428 241.007 227.844C241.466 228.26 241.695 228.804 241.695 229.476C241.695 229.935 241.567 230.372 241.311 230.788C241.066 231.204 240.682 231.545 240.159 231.812C239.647 232.079 238.986 232.212 238.175 232.212C237.46 232.212 236.826 232.116 236.271 231.924C235.716 231.743 235.284 231.46 234.975 231.076C234.666 230.703 234.511 230.228 234.511 229.652C234.511 229.353 234.591 229.028 234.751 228.676C234.911 228.335 235.21 228.009 235.647 227.7C235.412 227.604 235.21 227.503 235.039 227.396C234.879 227.279 234.73 227.151 234.591 227.012V226.644L235.951 225.3C235.322 224.767 235.007 224.063 235.007 223.188C235.007 222.665 235.13 222.191 235.375 221.764C235.62 221.337 235.978 221.001 236.447 220.756C236.916 220.5 237.487 220.372 238.159 220.372C238.618 220.372 239.034 220.436 239.407 220.564H242.335V221.572L240.847 221.636C241.156 222.084 241.311 222.601 241.311 223.188C241.311 223.711 241.183 224.185 240.927 224.612C240.682 225.039 240.324 225.38 239.855 225.636C239.396 225.881 238.831 226.004 238.159 226.004ZM238.159 224.9C238.724 224.9 239.172 224.756 239.503 224.468C239.844 224.169 240.015 223.743 240.015 223.188C240.015 222.644 239.844 222.228 239.503 221.94C239.172 221.641 238.724 221.492 238.159 221.492C237.583 221.492 237.124 221.641 236.783 221.94C236.452 222.228 236.287 222.644 236.287 223.188C236.287 223.743 236.452 224.169 236.783 224.468C237.124 224.756 237.583 224.9 238.159 224.9ZM235.823 229.524C235.823 230.057 236.047 230.452 236.495 230.708C236.943 230.975 237.503 231.108 238.175 231.108C238.836 231.108 239.364 230.964 239.759 230.676C240.164 230.388 240.367 230.004 240.367 229.524C240.367 229.183 240.228 228.884 239.951 228.628C239.674 228.383 239.162 228.239 238.415 228.196C237.828 228.153 237.322 228.1 236.895 228.036C236.458 228.271 236.17 228.521 236.031 228.788C235.892 229.065 235.823 229.311 235.823 229.524ZM43.4503 239.804C43.1836 239.804 42.9596 239.719 42.7783 239.548C42.6076 239.367 42.5223 239.143 42.5223 238.876C42.5223 238.62 42.6076 238.407 42.7783 238.236C42.9596 238.065 43.1836 237.98 43.4503 237.98C43.7063 237.98 43.925 238.065 44.1063 238.236C44.2876 238.407 44.3783 238.62 44.3783 238.876C44.3783 239.143 44.2876 239.367 44.1063 239.548C43.925 239.719 43.7063 239.804 43.4503 239.804ZM42.7783 249.5V241.564H44.1223V249.5H42.7783ZM46.5424 249.5V241.564H47.7584L47.8544 242.716C48.1104 242.289 48.4518 241.959 48.8784 241.724C49.3051 241.489 49.7851 241.372 50.3184 241.372C50.9478 241.372 51.4864 241.5 51.9344 241.756C52.3931 242.012 52.7451 242.401 52.9904 242.924C53.2678 242.444 53.6464 242.065 54.1264 241.788C54.6171 241.511 55.1451 241.372 55.7104 241.372C56.6598 241.372 57.4171 241.66 57.9824 242.236C58.5478 242.801 58.8304 243.676 58.8304 244.86V249.5H57.5024V245.004C57.5024 244.183 57.3371 243.564 57.0064 243.148C56.6758 242.732 56.2011 242.524 55.5824 242.524C54.9424 242.524 54.4091 242.775 53.9824 243.276C53.5664 243.767 53.3584 244.471 53.3584 245.388V249.5H52.0144V245.004C52.0144 244.183 51.8491 243.564 51.5184 243.148C51.1878 242.732 50.7131 242.524 50.0944 242.524C49.4651 242.524 48.9371 242.775 48.5104 243.276C48.0944 243.767 47.8864 244.471 47.8864 245.388V249.5H46.5424ZM60.9349 253.02V241.564H62.1509L62.2789 242.876C62.5349 242.492 62.8976 242.145 63.3669 241.836C63.8469 241.527 64.4549 241.372 65.1909 241.372C65.9803 241.372 66.6683 241.553 67.2549 241.916C67.8416 242.279 68.2949 242.775 68.6149 243.404C68.9456 244.033 69.1109 244.748 69.1109 245.548C69.1109 246.348 68.9456 247.063 68.6149 247.692C68.2949 248.311 67.8363 248.801 67.2389 249.164C66.6523 249.516 65.9643 249.692 65.1749 249.692C64.5243 249.692 63.9429 249.559 63.4309 249.292C62.9296 249.025 62.5456 248.652 62.2789 248.172V253.02H60.9349ZM65.0309 248.524C65.5643 248.524 66.0336 248.401 66.4389 248.156C66.8443 247.9 67.1643 247.548 67.3989 247.1C67.6336 246.652 67.7509 246.129 67.7509 245.532C67.7509 244.935 67.6336 244.412 67.3989 243.964C67.1643 243.516 66.8443 243.169 66.4389 242.924C66.0336 242.668 65.5643 242.54 65.0309 242.54C64.4976 242.54 64.0283 242.668 63.6229 242.924C63.2176 243.169 62.8976 243.516 62.6629 243.964C62.4283 244.412 62.3109 244.935 62.3109 245.532C62.3109 246.129 62.4283 246.652 62.6629 247.1C62.8976 247.548 63.2176 247.9 63.6229 248.156C64.0283 248.401 64.4976 248.524 65.0309 248.524ZM71.0618 249.5V237.98H72.4058V249.5H71.0618ZM78.2567 249.692C77.4994 249.692 76.8274 249.521 76.2407 249.18C75.654 248.828 75.19 248.343 74.8487 247.724C74.518 247.105 74.3527 246.375 74.3527 245.532C74.3527 244.7 74.518 243.975 74.8487 243.356C75.1794 242.727 75.638 242.241 76.2247 241.9C76.822 241.548 77.51 241.372 78.2887 241.372C79.0567 241.372 79.718 241.548 80.2727 241.9C80.838 242.241 81.27 242.695 81.5687 243.26C81.8674 243.825 82.0167 244.433 82.0167 245.084C82.0167 245.201 82.0114 245.319 82.0007 245.436C82.0007 245.553 82.0007 245.687 82.0007 245.836H75.6807C75.7127 246.444 75.8514 246.951 76.0967 247.356C76.3527 247.751 76.6674 248.049 77.0407 248.252C77.4247 248.455 77.83 248.556 78.2567 248.556C78.8114 248.556 79.2754 248.428 79.6487 248.172C80.022 247.916 80.294 247.569 80.4647 247.132H81.7927C81.5794 247.868 81.1687 248.481 80.5607 248.972C79.9634 249.452 79.1954 249.692 78.2567 249.692ZM78.2567 242.508C77.6167 242.508 77.046 242.705 76.5447 243.1C76.054 243.484 75.7714 244.049 75.6967 244.796H80.6887C80.6567 244.081 80.4114 243.521 79.9527 243.116C79.494 242.711 78.9287 242.508 78.2567 242.508ZM83.8781 249.5V241.564H85.0941L85.1901 242.716C85.4461 242.289 85.7874 241.959 86.2141 241.724C86.6407 241.489 87.1207 241.372 87.6541 241.372C88.2834 241.372 88.8221 241.5 89.2701 241.756C89.7287 242.012 90.0807 242.401 90.3261 242.924C90.6034 242.444 90.9821 242.065 91.4621 241.788C91.9527 241.511 92.4807 241.372 93.0461 241.372C93.9954 241.372 94.7527 241.66 95.3181 242.236C95.8834 242.801 96.1661 243.676 96.1661 244.86V249.5H94.8381V245.004C94.8381 244.183 94.6727 243.564 94.3421 243.148C94.0114 242.732 93.5367 242.524 92.9181 242.524C92.2781 242.524 91.7447 242.775 91.3181 243.276C90.9021 243.767 90.6941 244.471 90.6941 245.388V249.5H89.3501V245.004C89.3501 244.183 89.1847 243.564 88.8541 243.148C88.5234 242.732 88.0487 242.524 87.4301 242.524C86.8007 242.524 86.2727 242.775 85.8461 243.276C85.4301 243.767 85.2221 244.471 85.2221 245.388V249.5H83.8781ZM101.839 249.692C101.081 249.692 100.409 249.521 99.8226 249.18C99.2359 248.828 98.7719 248.343 98.4306 247.724C98.0999 247.105 97.9346 246.375 97.9346 245.532C97.9346 244.7 98.0999 243.975 98.4306 243.356C98.7612 242.727 99.2199 242.241 99.8066 241.9C100.404 241.548 101.092 241.372 101.871 241.372C102.639 241.372 103.3 241.548 103.855 241.9C104.42 242.241 104.852 242.695 105.151 243.26C105.449 243.825 105.599 244.433 105.599 245.084C105.599 245.201 105.593 245.319 105.583 245.436C105.583 245.553 105.583 245.687 105.583 245.836H99.2626C99.2946 246.444 99.4332 246.951 99.6786 247.356C99.9346 247.751 100.249 248.049 100.623 248.252C101.007 248.455 101.412 248.556 101.839 248.556C102.393 248.556 102.857 248.428 103.231 248.172C103.604 247.916 103.876 247.569 104.047 247.132H105.375C105.161 247.868 104.751 248.481 104.143 248.972C103.545 249.452 102.777 249.692 101.839 249.692ZM101.839 242.508C101.199 242.508 100.628 242.705 100.127 243.1C99.6359 243.484 99.3532 244.049 99.2786 244.796H104.271C104.239 244.081 103.993 243.521 103.535 243.116C103.076 242.711 102.511 242.508 101.839 242.508ZM107.46 249.5V241.564H108.676L108.756 242.988C109.012 242.487 109.38 242.092 109.86 241.804C110.34 241.516 110.884 241.372 111.492 241.372C112.431 241.372 113.177 241.66 113.732 242.236C114.297 242.801 114.58 243.676 114.58 244.86V249.5H113.236V245.004C113.236 243.351 112.553 242.524 111.188 242.524C110.505 242.524 109.935 242.775 109.476 243.276C109.028 243.767 108.804 244.471 108.804 245.388V249.5H107.46ZM119.832 249.5C119.107 249.5 118.536 249.324 118.12 248.972C117.704 248.62 117.496 247.985 117.496 247.068V242.7H116.12V241.564H117.496L117.672 239.66H118.84V241.564H121.176V242.7H118.84V247.068C118.84 247.569 118.942 247.911 119.144 248.092C119.347 248.263 119.704 248.348 120.216 248.348H121.048V249.5H119.832ZM125.604 249.692C124.942 249.692 124.393 249.58 123.956 249.356C123.518 249.132 123.193 248.833 122.98 248.46C122.766 248.087 122.66 247.681 122.66 247.244C122.66 246.433 122.969 245.809 123.588 245.372C124.206 244.935 125.049 244.716 126.116 244.716H128.26V244.62C128.26 243.927 128.078 243.404 127.716 243.052C127.353 242.689 126.868 242.508 126.26 242.508C125.737 242.508 125.284 242.641 124.9 242.908C124.526 243.164 124.292 243.543 124.196 244.044H122.82C122.873 243.468 123.065 242.983 123.396 242.588C123.737 242.193 124.158 241.895 124.66 241.692C125.161 241.479 125.694 241.372 126.26 241.372C127.369 241.372 128.201 241.671 128.756 242.268C129.321 242.855 129.604 243.639 129.604 244.62V249.5H128.404L128.324 248.076C128.1 248.524 127.769 248.908 127.332 249.228C126.905 249.537 126.329 249.692 125.604 249.692ZM125.812 248.556C126.324 248.556 126.761 248.423 127.124 248.156C127.497 247.889 127.78 247.543 127.972 247.116C128.164 246.689 128.26 246.241 128.26 245.772V245.756H126.228C125.438 245.756 124.878 245.895 124.548 246.172C124.228 246.439 124.068 246.775 124.068 247.18C124.068 247.596 124.217 247.932 124.516 248.188C124.825 248.433 125.257 248.556 125.812 248.556ZM134.617 249.5C133.892 249.5 133.321 249.324 132.905 248.972C132.489 248.62 132.281 247.985 132.281 247.068V242.7H130.905V241.564H132.281L132.457 239.66H133.625V241.564H135.961V242.7H133.625V247.068C133.625 247.569 133.727 247.911 133.929 248.092C134.132 248.263 134.489 248.348 135.001 248.348H135.833V249.5H134.617ZM138.565 239.804C138.298 239.804 138.074 239.719 137.893 239.548C137.722 239.367 137.637 239.143 137.637 238.876C137.637 238.62 137.722 238.407 137.893 238.236C138.074 238.065 138.298 237.98 138.565 237.98C138.821 237.98 139.039 238.065 139.221 238.236C139.402 238.407 139.493 238.62 139.493 238.876C139.493 239.143 139.402 239.367 139.221 239.548C139.039 239.719 138.821 239.804 138.565 239.804ZM137.893 249.5V241.564H139.237V249.5H137.893ZM145.273 249.692C144.526 249.692 143.854 249.521 143.257 249.18C142.659 248.839 142.185 248.359 141.833 247.74C141.491 247.111 141.321 246.375 141.321 245.532C141.321 244.689 141.497 243.959 141.849 243.34C142.201 242.711 142.675 242.225 143.273 241.884C143.881 241.543 144.558 241.372 145.305 241.372C146.051 241.372 146.723 241.543 147.321 241.884C147.918 242.225 148.387 242.711 148.729 243.34C149.081 243.959 149.257 244.689 149.257 245.532C149.257 246.375 149.081 247.111 148.729 247.74C148.377 248.359 147.897 248.839 147.289 249.18C146.691 249.521 146.019 249.692 145.273 249.692ZM145.273 248.54C145.731 248.54 146.158 248.428 146.553 248.204C146.947 247.98 147.267 247.644 147.513 247.196C147.758 246.748 147.881 246.193 147.881 245.532C147.881 244.871 147.758 244.316 147.513 243.868C147.278 243.42 146.963 243.084 146.569 242.86C146.174 242.636 145.753 242.524 145.305 242.524C144.846 242.524 144.419 242.636 144.025 242.86C143.63 243.084 143.31 243.42 143.065 243.868C142.819 244.316 142.697 244.871 142.697 245.532C142.697 246.193 142.819 246.748 143.065 247.196C143.31 247.644 143.625 247.98 144.009 248.204C144.403 248.428 144.825 248.54 145.273 248.54ZM151.206 249.5V241.564H152.422L152.502 242.988C152.758 242.487 153.126 242.092 153.606 241.804C154.086 241.516 154.63 241.372 155.238 241.372C156.176 241.372 156.923 241.66 157.478 242.236C158.043 242.801 158.326 243.676 158.326 244.86V249.5H156.982V245.004C156.982 243.351 156.299 242.524 154.934 242.524C154.251 242.524 153.68 242.775 153.222 243.276C152.774 243.767 152.55 244.471 152.55 245.388V249.5H151.206ZM167.396 249.692C166.735 249.692 166.186 249.58 165.748 249.356C165.311 249.132 164.986 248.833 164.772 248.46C164.559 248.087 164.452 247.681 164.452 247.244C164.452 246.433 164.762 245.809 165.38 245.372C165.999 244.935 166.842 244.716 167.908 244.716H170.052V244.62C170.052 243.927 169.871 243.404 169.508 243.052C169.146 242.689 168.66 242.508 168.052 242.508C167.53 242.508 167.076 242.641 166.692 242.908C166.319 243.164 166.084 243.543 165.988 244.044H164.612C164.666 243.468 164.858 242.983 165.188 242.588C165.53 242.193 165.951 241.895 166.452 241.692C166.954 241.479 167.487 241.372 168.052 241.372C169.162 241.372 169.994 241.671 170.548 242.268C171.114 242.855 171.396 243.639 171.396 244.62V249.5H170.196L170.116 248.076C169.892 248.524 169.562 248.908 169.124 249.228C168.698 249.537 168.122 249.692 167.396 249.692ZM167.604 248.556C168.116 248.556 168.554 248.423 168.916 248.156C169.29 247.889 169.572 247.543 169.764 247.116C169.956 246.689 170.052 246.241 170.052 245.772V245.756H168.02C167.231 245.756 166.671 245.895 166.34 246.172C166.02 246.439 165.86 246.775 165.86 247.18C165.86 247.596 166.01 247.932 166.308 248.188C166.618 248.433 167.05 248.556 167.604 248.556ZM173.492 249.5V241.564H174.708L174.788 242.988C175.044 242.487 175.412 242.092 175.892 241.804C176.372 241.516 176.916 241.372 177.524 241.372C178.463 241.372 179.21 241.66 179.764 242.236C180.33 242.801 180.612 243.676 180.612 244.86V249.5H179.268V245.004C179.268 243.351 178.586 242.524 177.22 242.524C176.538 242.524 175.967 242.775 175.508 243.276C175.06 243.767 174.836 244.471 174.836 245.388V249.5H173.492ZM186.329 249.692C185.539 249.692 184.846 249.511 184.249 249.148C183.662 248.785 183.203 248.289 182.873 247.66C182.553 247.031 182.393 246.316 182.393 245.516C182.393 244.716 182.558 244.007 182.889 243.388C183.219 242.759 183.678 242.268 184.265 241.916C184.851 241.553 185.545 241.372 186.345 241.372C186.995 241.372 187.571 241.505 188.073 241.772C188.574 242.039 188.963 242.412 189.241 242.892V237.98H190.585V249.5H189.369L189.241 248.188C188.985 248.572 188.617 248.919 188.137 249.228C187.657 249.537 187.054 249.692 186.329 249.692ZM186.473 248.524C187.006 248.524 187.475 248.401 187.881 248.156C188.297 247.9 188.617 247.548 188.841 247.1C189.075 246.652 189.193 246.129 189.193 245.532C189.193 244.935 189.075 244.412 188.841 243.964C188.617 243.516 188.297 243.169 187.881 242.924C187.475 242.668 187.006 242.54 186.473 242.54C185.95 242.54 185.481 242.668 185.065 242.924C184.659 243.169 184.339 243.516 184.105 243.964C183.881 244.412 183.769 244.935 183.769 245.532C183.769 246.129 183.881 246.652 184.105 247.1C184.339 247.548 184.659 247.9 185.065 248.156C185.481 248.401 185.95 248.524 186.473 248.524ZM200.21 249.692C199.261 249.692 198.471 249.452 197.842 248.972C197.213 248.492 196.845 247.841 196.738 247.02H198.114C198.199 247.436 198.418 247.799 198.77 248.108C199.133 248.407 199.618 248.556 200.226 248.556C200.791 248.556 201.207 248.439 201.474 248.204C201.741 247.959 201.874 247.671 201.874 247.34C201.874 246.86 201.698 246.54 201.346 246.38C201.005 246.22 200.519 246.076 199.89 245.948C199.463 245.863 199.037 245.74 198.61 245.58C198.183 245.42 197.826 245.196 197.538 244.908C197.25 244.609 197.106 244.22 197.106 243.74C197.106 243.047 197.362 242.481 197.874 242.044C198.397 241.596 199.101 241.372 199.986 241.372C200.829 241.372 201.517 241.585 202.05 242.012C202.594 242.428 202.909 243.025 202.994 243.804H201.666C201.613 243.399 201.437 243.084 201.138 242.86C200.85 242.625 200.461 242.508 199.97 242.508C199.49 242.508 199.117 242.609 198.85 242.812C198.594 243.015 198.466 243.281 198.466 243.612C198.466 243.932 198.631 244.183 198.962 244.364C199.303 244.545 199.762 244.7 200.338 244.828C200.829 244.935 201.293 245.068 201.73 245.228C202.178 245.377 202.541 245.607 202.818 245.916C203.106 246.215 203.25 246.652 203.25 247.228C203.261 247.943 202.989 248.535 202.434 249.004C201.89 249.463 201.149 249.692 200.21 249.692ZM208.146 249.692C207.207 249.692 206.461 249.409 205.906 248.844C205.351 248.268 205.074 247.388 205.074 246.204V241.564H206.418V246.06C206.418 247.713 207.095 248.54 208.45 248.54C209.143 248.54 209.714 248.295 210.162 247.804C210.621 247.303 210.85 246.593 210.85 245.676V241.564H212.194V249.5H210.978L210.882 248.076C210.637 248.577 210.269 248.972 209.778 249.26C209.298 249.548 208.754 249.692 208.146 249.692ZM214.486 253.02V241.564H215.702L215.83 242.876C216.086 242.492 216.449 242.145 216.918 241.836C217.398 241.527 218.006 241.372 218.742 241.372C219.532 241.372 220.22 241.553 220.806 241.916C221.393 242.279 221.846 242.775 222.166 243.404C222.497 244.033 222.662 244.748 222.662 245.548C222.662 246.348 222.497 247.063 222.166 247.692C221.846 248.311 221.388 248.801 220.79 249.164C220.204 249.516 219.516 249.692 218.726 249.692C218.076 249.692 217.494 249.559 216.982 249.292C216.481 249.025 216.097 248.652 215.83 248.172V253.02H214.486ZM218.582 248.524C219.116 248.524 219.585 248.401 219.99 248.156C220.396 247.9 220.716 247.548 220.95 247.1C221.185 246.652 221.302 246.129 221.302 245.532C221.302 244.935 221.185 244.412 220.95 243.964C220.716 243.516 220.396 243.169 219.99 242.924C219.585 242.668 219.116 242.54 218.582 242.54C218.049 242.54 217.58 242.668 217.174 242.924C216.769 243.169 216.449 243.516 216.214 243.964C215.98 244.412 215.862 244.935 215.862 245.532C215.862 246.129 215.98 246.652 216.214 247.1C216.449 247.548 216.769 247.9 217.174 248.156C217.58 248.401 218.049 248.524 218.582 248.524ZM224.613 253.02V241.564H225.829L225.957 242.876C226.213 242.492 226.576 242.145 227.045 241.836C227.525 241.527 228.133 241.372 228.869 241.372C229.658 241.372 230.346 241.553 230.933 241.916C231.52 242.279 231.973 242.775 232.293 243.404C232.624 244.033 232.789 244.748 232.789 245.548C232.789 246.348 232.624 247.063 232.293 247.692C231.973 248.311 231.514 248.801 230.917 249.164C230.33 249.516 229.642 249.692 228.853 249.692C228.202 249.692 227.621 249.559 227.109 249.292C226.608 249.025 226.224 248.652 225.957 248.172V253.02H224.613ZM228.709 248.524C229.242 248.524 229.712 248.401 230.117 248.156C230.522 247.9 230.842 247.548 231.077 247.1C231.312 246.652 231.429 246.129 231.429 245.532C231.429 244.935 231.312 244.412 231.077 243.964C230.842 243.516 230.522 243.169 230.117 242.924C229.712 242.668 229.242 242.54 228.709 242.54C228.176 242.54 227.706 242.668 227.301 242.924C226.896 243.169 226.576 243.516 226.341 243.964C226.106 244.412 225.989 244.935 225.989 245.532C225.989 246.129 226.106 246.652 226.341 247.1C226.576 247.548 226.896 247.9 227.301 248.156C227.706 248.401 228.176 248.524 228.709 248.524ZM238.356 249.692C237.609 249.692 236.937 249.521 236.34 249.18C235.743 248.839 235.268 248.359 234.916 247.74C234.575 247.111 234.404 246.375 234.404 245.532C234.404 244.689 234.58 243.959 234.932 243.34C235.284 242.711 235.759 242.225 236.356 241.884C236.964 241.543 237.641 241.372 238.388 241.372C239.135 241.372 239.807 241.543 240.404 241.884C241.001 242.225 241.471 242.711 241.812 243.34C242.164 243.959 242.34 244.689 242.34 245.532C242.34 246.375 242.164 247.111 241.812 247.74C241.46 248.359 240.98 248.839 240.372 249.18C239.775 249.521 239.103 249.692 238.356 249.692ZM238.356 248.54C238.815 248.54 239.241 248.428 239.636 248.204C240.031 247.98 240.351 247.644 240.596 247.196C240.841 246.748 240.964 246.193 240.964 245.532C240.964 244.871 240.841 244.316 240.596 243.868C240.361 243.42 240.047 243.084 239.652 242.86C239.257 242.636 238.836 242.524 238.388 242.524C237.929 242.524 237.503 242.636 237.108 242.86C236.713 243.084 236.393 243.42 236.148 243.868C235.903 244.316 235.78 244.871 235.78 245.532C235.78 246.193 235.903 246.748 236.148 247.196C236.393 247.644 236.708 247.98 237.092 248.204C237.487 248.428 237.908 248.54 238.356 248.54ZM244.289 249.5V241.564H245.505L245.617 243.084C245.862 242.561 246.235 242.145 246.737 241.836C247.238 241.527 247.857 241.372 248.593 241.372V242.78H248.225C247.755 242.78 247.323 242.865 246.929 243.036C246.534 243.196 246.219 243.473 245.985 243.868C245.75 244.263 245.633 244.807 245.633 245.5V249.5H244.289ZM253.317 249.5C252.592 249.5 252.021 249.324 251.605 248.972C251.189 248.62 250.981 247.985 250.981 247.068V242.7H249.605V241.564H250.981L251.157 239.66H252.325V241.564H254.661V242.7H252.325V247.068C252.325 247.569 252.427 247.911 252.629 248.092C252.832 248.263 253.189 248.348 253.701 248.348H254.533V249.5H253.317ZM256.913 249.58C256.646 249.58 256.422 249.495 256.241 249.324C256.07 249.143 255.985 248.924 255.985 248.668C255.985 248.412 256.07 248.199 256.241 248.028C256.422 247.847 256.646 247.756 256.913 247.756C257.169 247.756 257.382 247.847 257.553 248.028C257.734 248.199 257.825 248.412 257.825 248.668C257.825 248.924 257.734 249.143 257.553 249.324C257.382 249.495 257.169 249.58 256.913 249.58Z" fill="#3D3D3D"/>
<defs>
<clipPath id="clip0_240_1664">
<rect width="34" height="33.6856" fill="white" transform="translate(133.5 74.5)"/>
</clipPath>
</defs>
</svg>
